SplineFontDB: 3.2
FontName: msbarocci102fin2
FullName: MS Barocci 102fin2
FamilyName: MS Barocci 102fin2
Weight: Regular
Copyright: Konstantina Eleftheriadi
Version: 
ItalicAngle: 0
UnderlinePosition: 0
UnderlineWidth: 0
Ascent: 800
Descent: 200
InvalidEm: 0
LayerCount: 2
Layer: 0 0 "Back" 1
Layer: 1 0 "Fore" 0
HasVMetrics: 1
XUID: [1021 757 -1823054581 2354]
OS2Version: 0
OS2_WeightWidthSlopeOnly: 0
OS2_UseTypoMetrics: 0
CreationTime: 1720953014
ModificationTime: 1720953291
PfmFamily: 17
TTFWeight: 400
TTFWidth: 5
LineGap: 90
VLineGap: 90
OS2TypoAscent: 0
OS2TypoAOffset: 1
OS2TypoDescent: 0
OS2TypoDOffset: 1
OS2TypoLinegap: 90
OS2WinAscent: 0
OS2WinAOffset: 1
OS2WinDescent: 0
OS2WinDOffset: 1
HheadAscent: 0
HheadAOffset: 1
HheadDescent: 0
HheadDOffset: 1
OS2Vendor: 'PfEd'
Lookup: 4 0 1 "'liga' +A5oDvwO5A70DrAAA +A8ADvwO7A7sDsQPAA7sDrAAA +A8MDxAO/A7kDxwO1A68DsQAA lookup 0" { "'liga' +A5oDvwO5A70DrAAA +A8ADvwO7A7sDsQPAA7sDrAAA +A8MDxAO/A7kDxwO1A68DsQAA lookup 0 subtable"  } ['liga' ('DFLT' <'dflt' > ) ]
Lookup: 4 0 1 "msbarocci102fin1-<1,2> Common Ligatures lookup 0" { "msbarocci102fin1-<1,2> Common Ligatures lookup 0 subtable"  } [<1,2> ('DFLT' <'dflt' > ) ]
MarkAttachClasses: 1
DEI: 91125
Encoding: Original
UnicodeInterp: none
NameList: AGL with PUA
DisplaySize: -48
AntiAlias: 1
FitToEm: 0
WinInfo: 0 26 6
BeginPrivate: 0
EndPrivate
BeginChars: 78 78

StartChar: uni0000
Encoding: 0 0 0
Width: 450
VWidth: 924
LayerCount: 2
Fore
SplineSet
0 -100 m 1
 1000 -100 l 1
 1000 900 l 1
 0 900 l 1
 0 -100 l 1
EndSplineSet
EndChar

StartChar: gamma
Encoding: 1 947 1
Width: 626
VWidth: 924
Flags: W
LayerCount: 2
Fore
SplineSet
622.384765625 351.76171875 m 1
 578.4140625 335.2734375 l 1
 548.185546875 299.546875 l 1
 506.962890625 225.34765625 l 1
 443.755859375 142.904296875 l 1
 405.283203125 93.4375 l 1
 342.07421875 16.490234375 l 1
 270.623046875 -52.21484375 l 1
 237.646484375 -74.19921875 l 1
 223.90625 -54.962890625 l 1
 215.66015625 -19.236328125 l 1
 188.1796875 76.94921875 l 1
 141.4609375 175.880859375 l 1
 119.4765625 236.33984375 l 1
 81.001953125 285.806640625 l 1
 28.787109375 310.5390625 l 1
 -23.427734375 294.05078125 l 1
 -42.6640625 280.310546875 l 1
 -53.65625 233.591796875 l 1
 -42.6640625 200.615234375 l 1
 -12.43359375 170.384765625 l 1
 9.55078125 142.904296875 l 1
 17.794921875 129.162109375 l 1
 28.787109375 134.658203125 l 1
 56.26953125 131.91015625 l 1
 75.505859375 107.177734375 l 1
 105.736328125 54.962890625 l 1
 135.96484375 -24.732421875 l 1
 135.96484375 -65.955078125 l 1
 144.208984375 -153.89453125 l 1
 133.216796875 -206.109375 l 1
 113.98046875 -233.591796875 l 1
 83.75 -263.8203125 l 1
 61.765625 -316.03515625 l 1
 61.765625 -362.75390625 l 1
 75.505859375 -398.478515625 l 1
 130.46875 -414.96875 l 1
 182.68359375 -373.74609375 l 1
 204.66796875 -332.5234375 l 1
 223.90625 -283.05859375 l 1
 262.37890625 -228.095703125 l 1
 289.861328125 -181.376953125 l 1
 391.541015625 -85.19140625 l 1
 452 0 l 1
 501.466796875 71.451171875 l 1
 561.92578125 85.193359375 l 1
 630.62890625 120.91796875 l 1
 652.615234375 184.125 l 1
 671.8515625 296.798828125 l 1
 666.35546875 343.517578125 l 1
 622.384765625 351.76171875 l 1
EndSplineSet
EndChar

StartChar: omicron
Encoding: 2 959 2
Width: 299
VWidth: 924
Flags: W
LayerCount: 2
Fore
SplineSet
78.59375 323.294921875 m 1
 45.615234375 312.302734375 l 1
 15.38671875 282.072265625 l 1
 4.392578125 251.84375 l 1
 1.64453125 199.62890625 l 1
 1.64453125 155.658203125 l 1
 7.142578125 95.19921875 l 1
 20.8828125 67.71875 l 1
 62.103515625 31.9921875 l 1
 89.5859375 15.50390625 l 1
 133.556640625 -0.984375 l 1
 177.525390625 1.763671875 l 1
 216 21 l 1
 246.23046875 53.9765625 l 1
 279.20703125 95.19921875 l 1
 292.947265625 133.673828125 l 1
 298.443359375 177.64453125 l 1
 290.19921875 235.35546875 l 1
 265.466796875 271.080078125 l 1
 235.236328125 298.5625 l 1
 194.015625 320.546875 l 1
 130.80859375 323.294921875 l 1
 78.59375 323.294921875 l 1
166.533203125 251.84375 m 1
 185.771484375 227.109375 l 1
 202.259765625 199.62890625 l 1
 202.259765625 166.650390625 l 1
 194.015625 141.91796875 l 1
 180.2734375 117.185546875 l 1
 158.2890625 97.947265625 l 1
 128.060546875 95.19921875 l 1
 108.822265625 100.6953125 l 1
 106.07421875 128.177734375 l 1
 106.07421875 150.162109375 l 1
 111.5703125 183.140625 l 1
 125.3125 232.60546875 l 1
 144.548828125 249.095703125 l 1
 166.533203125 251.84375 l 1
EndSplineSet
EndChar

StartChar: uniE024
Encoding: 3 57380 3
Width: 450
VWidth: 924
LayerCount: 2
Fore
SplineSet
55.091796875 732.9609375 m 5
 25.8203125 729.302734375 l 5
 11.18359375 696.37109375 l 5
 20.33203125 654.294921875 l 5
 40.455078125 636 l 5
 71.556640625 619.533203125 l 5
 67.8984375 590.26171875 l 1
 64.23828125 564.650390625 l 1
 84.36328125 555.501953125 l 1
 117.29296875 544.525390625 l 1
 144.736328125 553.671875 l 1
 172.177734375 546.35546875 l 1
 212.42578125 506.10546875 l 1
 281.947265625 447.5625 l 1
 314.876953125 399.99609375 l 1
 318.958984375 394.943359375 l 1
 296.58203125 389.01953125 l 1
 131.9296875 273.763671875 l 1
 93.509765625 224.3671875 l 1
 33.138671875 184.119140625 l 1
 -19.916015625 149.359375 l 1
 -109.560546875 63.373046875 l 1
 -147.98046875 34.1015625 l 1
 -142.4921875 -4.318359375 l 1
 -126.02734375 -37.248046875 l 1
 -104.072265625 -48.224609375 l 1
 -74.80078125 -46.396484375 l 1
 -23.576171875 -31.759765625 l 1
 -1.623046875 -11.634765625 l 1
 36.796875 32.271484375 l 1
 55.091796875 78.009765625 l 1
 77.044921875 109.109375 l 1
 137.41796875 147.529296875 l 1
 192.302734375 191.435546875 l 1
 263.65234375 242.662109375 l 1
 327.68359375 290.228515625 l 1
 367.931640625 306.693359375 l 1
 384.22265625 314.140625 l 1
 391.71484375 304.86328125 l 1
 446.599609375 240.83203125 l 1
 486.84765625 185.947265625 l 1
 523.4375 138.380859375 l 1
 572.833984375 68.861328125 l 1
 618.5703125 -22.61328125 l 1
 691.75 -141.52734375 l 1
 728.33984375 -178.1171875 l 1
 772.24609375 -194.583984375 l 1
 797.859375 -187.265625 l 1
 808.8359375 -165.310546875 l 1
 810.666015625 -145.1875 l 1
 794.19921875 -132.380859375 l 1
 777.734375 -125.0625 l 1
 737.486328125 -40.90625 l 1
 697.23828125 41.419921875 l 1
 666.13671875 83.498046875 l 1
 585.640625 200.583984375 l 1
 503.3125 306.693359375 l 1
 460.21484375 365.560546875 l 1
 470.3828125 376.212890625 l 1
 466.724609375 409.14453125 l 1
 417.328125 421.951171875 l 1
 415.658203125 421.482421875 l 1
 353.296875 482.322265625 l 1
 263.65234375 579.28515625 l 1
 184.984375 657.953125 l 5
 122.783203125 705.51953125 l 5
 55.091796875 732.9609375 l 5
802.13671875 57.548828125 m 1
 773.1484375 48.490234375 l 1
 759.560546875 33.99609375 l 1
 751.408203125 12.255859375 l 1
 758.65625 -22.16796875 l 1
 787.642578125 -48.4375 l 1
 826.595703125 -67.4609375 l 1
 866.453125 -61.119140625 l 1
 903.59375 -47.53125 l 1
 928.05078125 -23.978515625 l 1
 940.732421875 2.291015625 l 1
 939.826171875 24.9375 l 1
 927.14453125 37.619140625 l 1
 907.216796875 36.712890625 l 1
 881.8515625 34.90234375 l 1
 862.830078125 38.525390625 l 1
 851.958984375 51.20703125 l 1
 833.841796875 56.642578125 l 1
 802.13671875 57.548828125 l 1
EndSplineSet
EndChar

StartChar: uniE030
Encoding: 4 57392 4
Width: 450
VWidth: 924
LayerCount: 2
Fore
SplineSet
640.541015625 660.5 m 1
 596.5703125 644.01171875 l 1
 566.341796875 608.28515625 l 1
 525.119140625 534.0859375 l 1
 461.912109375 451.642578125 l 1
 423.439453125 402.17578125 l 1
 360.23046875 325.228515625 l 1
 288.779296875 256.5234375 l 1
 255.802734375 234.5390625 l 1
 242.0625 253.775390625 l 1
 233.81640625 289.501953125 l 1
 206.3359375 385.6875 l 1
 159.6171875 484.619140625 l 1
 137.6328125 545.078125 l 1
 99.158203125 594.544921875 l 1
 46.943359375 619.27734375 l 1
 -5.271484375 602.7890625 l 1
 -24.5078125 589.048828125 l 1
 -35.5 542.330078125 l 1
 -24.5078125 509.353515625 l 1
 5.72265625 479.123046875 l 1
 27.70703125 451.642578125 l 1
 35.951171875 437.900390625 l 1
 46.943359375 443.396484375 l 1
 74.42578125 440.6484375 l 1
 93.662109375 415.916015625 l 1
 123.892578125 363.701171875 l 1
 154.12109375 284.005859375 l 1
 154.12109375 242.783203125 l 1
 162.365234375 154.84375 l 1
 151.373046875 102.62890625 l 1
 132.13671875 75.146484375 l 1
 101.90625 44.91796875 l 1
 79.921875 -7.296875 l 1
 79.921875 -54.015625 l 1
 93.662109375 -89.740234375 l 1
 148.625 -106.23046875 l 1
 200.83984375 -65.0078125 l 1
 222.82421875 -23.78515625 l 1
 242.0625 25.6796875 l 1
 280.53515625 80.642578125 l 1
 308.017578125 127.361328125 l 1
 409.697265625 223.546875 l 1
 470.15625 308.73828125 l 1
 519.623046875 380.189453125 l 1
 580.08203125 393.931640625 l 1
 648.78515625 429.65625 l 1
 670.771484375 492.86328125 l 1
 690.0078125 605.537109375 l 1
 684.51171875 652.255859375 l 1
 640.541015625 660.5 l 1
487.611328125 217.724609375 m 1
 458.623046875 208.666015625 l 1
 445.03515625 194.171875 l 1
 436.8828125 172.431640625 l 1
 444.130859375 138.0078125 l 1
 473.1171875 111.73828125 l 1
 512.0703125 92.71484375 l 1
 551.927734375 99.056640625 l 1
 589.068359375 112.64453125 l 1
 613.525390625 136.197265625 l 1
 626.20703125 162.466796875 l 1
 625.30078125 185.11328125 l 1
 612.619140625 197.794921875 l 1
 592.69140625 196.888671875 l 1
 567.326171875 195.078125 l 1
 548.3046875 198.701171875 l 1
 537.43359375 211.3828125 l 1
 519.31640625 216.818359375 l 1
 487.611328125 217.724609375 l 1
EndSplineSet
EndChar

StartChar: uniE031
Encoding: 5 57393 5
Width: 450
VWidth: 924
HStem: 150.502 82.8789<95.4618 130.861 140.438 183.287> 364.639 83.0586<564.915 608.427> 425.465 82.1523<198.042 281.891 362.549 465.748> 507.643 0.861328<295.391 310.308>
VStem: -3.39844 83.0996<244.101 356.706> 219.836 83.002<269.631 342.172 360.477 385.418>
LayerCount: 2
Fore
SplineSet
304.177734375 767.060546875 m 2xbc
 295.814453125 766.748046875 286.88671875 763.734375 278.05078125 757.142578125 c 0
 261.95703125 744.135742188 248.08203125 728.592773438 233.630859375 713.830078125 c 0
 214.19140625 693.907226562 194.075195312 674.668945312 173.923828125 655.47265625 c 0
 158.249023438 640.65625 143.438476562 624.969726562 128.28125 609.6328125 c 0
 115.188476562 596.974609375 103.244140625 583.282226562 92.423828125 568.650390625 c 0
 85.1494140625 558.037109375 78.2451171875 547.1953125 70.4609375 536.94140625 c 0
 65.158203125 530.026367188 59.099609375 523.758789062 53.111328125 517.447265625 c 0
 42.3056640625 506.076171875 34.71484375 491.665039062 34.689453125 475.607421875 c 0
 34.6826171875 471.16796875 35.6396484375 466.78125 36.115234375 462.3671875 c 0
 37.875 457.783203125 39.0234375 452.915039062 41.39453125 448.615234375 c 0
 44.888671875 442.280273438 49.009765625 437.643554688 53.95703125 433.564453125 c 1
 51.2177734375 430.467773438 48.568359375 427.2890625 46.123046875 423.931640625 c 0
 41.97265625 418.149414062 38.1669921875 412.157226562 34.396484375 406.123046875 c 0
 26.8779296875 394.415039062 19.93359375 382.333984375 13.951171875 369.76171875 c 0
 4.341796875 348.5390625 -3.8642578125 326.35546875 -3.3984375 302.67578125 c 0
 -2.525390625 280.115234375 -0.0322265625 257.516601562 7.095703125 235.974609375 c 0
 8.65234375 231.880859375 10.03125 227.71484375 11.765625 223.693359375 c 0
 18.2578125 208.635742188 27.853515625 193.950195312 39.78125 182.650390625 c 0
 43.2490234375 179.365234375 47.1787109375 176.603515625 50.876953125 173.580078125 c 0
 58.5 168.87890625 61.736328125 166.5625 70.123046875 162.794921875 c 0
 82.8408203125 157.081054688 96.3681640625 153.8671875 110.125 151.900390625 c 0
 118.068359375 151.075195312 122.67578125 150.3828125 130.861328125 150.501953125 c 0
 142.106445312 150.665039062 153.067382812 152.8828125 163.84375 155.947265625 c 0
 178.788085938 160.36328125 193.53515625 165.500976562 207.3984375 172.70703125 c 0
 220.288085938 179.526367188 232.778320312 187.146484375 243.58203125 197.046875 c 0
 257.0703125 209.6953125 269.353515625 223.606445312 278.244140625 239.947265625 c 0
 285.715820312 254.962890625 291.643554688 270.639648438 295.400390625 287.021484375 c 0
 299.154296875 303.552734375 301.8984375 320.28515625 302.837890625 337.234375 c 0
 303.296875 344.981445312 303.578125 352.73828125 304.16796875 360.4765625 c 0
 308.37890625 419.12109375 225.443359375 425.076171875 221.232421875 366.431640625 c 0
 220.603515625 358.35546875 220.319335938 350.2578125 219.8359375 342.171875 c 0
 219.116210938 329.859375 217.201171875 317.6875 214.375 305.6953125 c 0
 211.989257812 295.947265625 208.766601562 286.427734375 204.080078125 277.544921875 c 0
 199.384765625 270.197265625 193.45703125 263.845703125 187.03125 258.00390625 c 0
 181.5703125 253.299804688 175.322265625 249.672851562 168.923828125 246.419921875 c 0
 159.85546875 241.776367188 150.192382812 238.56640625 140.4375 235.734375 c 0
 136.690429688 234.97265625 132.96875 233.520507812 129.103515625 233.380859375 c 0
 126.1953125 233.276367188 122.1171875 234.190429688 119.3046875 234.54296875 c 0
 114.513671875 235.575195312 109.551757812 236.26953125 104.955078125 238.056640625 c 0
 101.53515625 239.385742188 98.3349609375 241.827148438 95.3203125 243.85546875 c 0
 92.3271484375 249.103515625 88.8505859375 254.095703125 86.67578125 259.783203125 c 0
 86.119140625 261.240234375 85.7509765625 262.762695312 85.2890625 264.251953125 c 0
 81.4296875 277.68359375 80.1083984375 291.666015625 79.701171875 305.5859375 c 0
 79.7919921875 307.032226562 79.7421875 308.493164062 79.974609375 309.923828125 c 0
 80.1201171875 310.817382812 80.560546875 311.637695312 80.82421875 312.50390625 c 0
 82.3291015625 317.439453125 82.33203125 318.209960938 84.259765625 323.232421875 c 0
 85.822265625 327.303710938 87.7314453125 331.225585938 89.56640625 335.17578125 c 0
 93.9306640625 344.116210938 98.8994140625 352.748046875 104.30078125 361.09765625 c 0
 107.380859375 365.734375 110.079101562 370.619140625 113.412109375 375.083984375 c 0
 118.03515625 381.212890625 123.759765625 386.3515625 129.587890625 391.296875 c 0
 133.510742188 394.57421875 137.828125 397.333984375 142.4140625 399.578125 c 0
 145.768554688 401.103515625 149.196289062 402.456054688 152.67578125 403.66796875 c 0
 156.2109375 404.741210938 159.724609375 405.880859375 163.22265625 407.0703125 c 0
 163.244140625 407.077148438 163.265625 407.084960938 163.287109375 407.091796875 c 0
 176.165039062 406.263671875 188.970703125 411.751953125 197.556640625 421.216796875 c 1
 207.913085938 422.48046875 218.260742188 423.817382812 228.615234375 425.083984375 c 0
 246.3515625 427.517578125 264.153320312 426.26953125 281.890625 424.78125 c 0
 301.24609375 423.1484375 270.657226562 426.463867188 290.0546875 425.46484375 c 0xbc
 314.919921875 423.76171875 339.811523438 423.887695312 364.70703125 424.53125 c 0
 388.0390625 424.887695312 409.831054688 419.314453125 433.087890625 421.0625 c 0
 444.216796875 421.85546875 551.18359375 363.526367188 562.283203125 364.638671875 c 1
 577.782226562 358.005859375 597.298828125 360.522460938 612.197265625 379.1171875 c 0
 615.413085938 386.833984375 618.625976562 394.55078125 621.841796875 402.267578125 c 1
 617.43359375 413.981445312 615.782226562 427.145507812 608.619140625 437.408203125 c 0
 604.583007812 443.190429688 596.659179688 445.022460938 590.134765625 447.697265625 c 0xdc
 582.740234375 450.728515625 572.444335938 449.1796875 564.54296875 448.43359375 c 0
 550.6328125 446.814453125 445.227539062 499.109375 431.259765625 498.10546875 c 0
 409.359375 496.458984375 384.520507812 507.97265625 362.548828125 507.654296875 c 0
 339.795898438 507.060546875 317.05078125 506.90234375 294.326171875 508.50390625 c 0
 275.811523438 509.455078125 307.283203125 506.0859375 288.80859375 507.642578125 c 0
 265.404296875 509.586914062 241.89453125 510.755859375 218.513671875 507.6171875 c 0
 197.024414062 504.985351562 187.86328125 508.133789062 166.279296875 506.3515625 c 0
 162.5390625 506.041015625 157.928710938 505.29296875 152.943359375 504.388671875 c 1
 160.31640625 511.920898438 167.821289062 519.6328125 171.76171875 525.6171875 c 0
 180.051757812 537.0703125 177.30078125 541.328125 187.42578125 551.1875 c 0
 201.9921875 565.9296875 216.225585938 581.010742188 231.275390625 595.267578125 c 0
 252.127929688 615.131835938 272.934570312 635.048828125 293.05078125 655.6640625 c 0
 304.509765625 667.370117188 315.6328125 679.501953125 327.7734375 690.49609375 c 0
 366.0625 719.0625 340.41796875 768.416015625 304.177734375 767.060546875 c 2xbc
388.509765625 271.912109375 m 1
 359.521484375 262.853515625 l 1
 345.93359375 248.359375 l 1
 337.78125 226.619140625 l 1
 345.029296875 192.1953125 l 1
 374.015625 165.92578125 l 1
 412.96875 146.90234375 l 1
 452.826171875 153.244140625 l 1
 489.966796875 166.83203125 l 1
 514.423828125 190.384765625 l 1
 527.10546875 216.654296875 l 1
 526.19921875 239.30078125 l 1
 513.517578125 251.982421875 l 1
 493.58984375 251.076171875 l 1
 468.224609375 249.265625 l 1
 449.203125 252.888671875 l 1
 438.33203125 265.5703125 l 1
 420.21484375 271.005859375 l 1
 388.509765625 271.912109375 l 1
EndSplineSet
EndChar

StartChar: "+4CQDvwAA"
Encoding: 6 -1 6
Width: 630
VWidth: 924
Flags: W
HStem: 477.928 53.5879<28.7012 63.7012>
LayerCount: 2
Fore
SplineSet
107.5078125 544.125 m 1
 25.548828125 531.515625 l 1
 9.787109375 512.6015625 l 1
 28.701171875 477.927734375 l 1
 75.986328125 468.470703125 l 1
 123.26953125 474.775390625 l 1
 195.771484375 440.099609375 l 1
 274.578125 392.81640625 l 1
 334.47265625 348.68359375 l 1
 362.841796875 326.6171875 l 1
 303.25390625 281.572265625 l 1
 174.685546875 211.2421875 l 1
 85.9453125 155.892578125 l 1
 29.203125 117.15234375 l 1
 -8.623046875 73.01953125 l 1
 -21.232421875 41.49609375 l 1
 3.986328125 3.669921875 l 1
 44.96484375 -8.939453125 l 1
 92.25 -2.634765625 l 1
 145.837890625 25.736328125 l 1
 167.904296875 60.41015625 l 1
 171.056640625 104.54296875 l 1
 171.056640625 118.064453125 l 1
 243.1875 152.263671875 l 1
 400.669921875 257.267578125 l 1
 429.041015625 279.333984375 l 1
 482.62890625 257.267578125 l 1
 479.4765625 232.048828125 l 1
 432.193359375 169.00390625 l 1
 391.212890625 128.025390625 l 1
 388.060546875 33.45703125 l 1
 416.431640625 -20.1328125 l 1
 473.171875 -39.046875 l 1
 545.673828125 -39.046875 l 1
 602.416015625 -13.828125 l 1
 646.546875 39.759765625 l 1
 652.8515625 87.044921875 l 1
 652.8515625 146.9375 l 1
 631.6328125 226.4609375 l 1
 575.740234375 262.791015625 l 1
 520.45703125 314.0078125 l 1
 425.888671875 386.51171875 l 1
 309.25390625 465.318359375 l 1
 230.447265625 515.75390625 l 1
 167.400390625 544.125 l 1
 107.5078125 544.125 l 1
542.521484375 143.78515625 m 1
 567.740234375 121.720703125 l 1
 567.740234375 83.892578125 l 1
 551.978515625 46.064453125 l 1
 511 24 l 1
 473.171875 39.759765625 l 1
 473.171875 71.283203125 l 1
 479.4765625 99.654296875 l 1
 511 140.6328125 l 1
 542.521484375 143.78515625 l 1
EndSplineSet
LCarets2: 1 0
Ligature2: "'liga' +A5oDvwO5A70DrAAA +A8ADvwO7A7sDsQPAA7sDrAAA +A8MDxAO/A7kDxwO1A68DsQAA lookup 0 subtable" uniE024 omicron
EndChar

StartChar: "+4DADvwAA"
Encoding: 7 -1 7
Width: 810
VWidth: 924
Flags: W
VStem: 78.8145 80.0068<-162.738 -81.877>
LayerCount: 2
Fore
SplineSet
79.6123046875 230.227539062 m 1
 43.4365234375 241.2578125 l 1
 14.0439453125 244.10546875 l 1
 -7.7275390625 197.453125 l 1
 16.5947265625 147.83984375 l 1
 35.1533203125 127.708984375 l 1
 60.6943359375 104.150390625 l 1
 60.6943359375 57.498046875 l 1
 66.0751953125 16.509765625 l 1
 72.876953125 -81.876953125 l 1
 78.814453125 -162.73828125 l 1
 76.5498046875 -229.75390625 l 1
 78.5146484375 -304.970703125 l 1
 101.125976562 -346.817382812 l 1
 169.536132812 -348.506835938 l 1
 243.609375 -311.748046875 l 1
 317.407226562 -229.454101562 l 1
 364.053710938 -129.366210938 l 1
 413.538085938 -62.083984375 l 1
 455.678710938 -10.923828125 l 1
 484.094726562 51.5712890625 l 1
 551.900390625 63.34765625 l 1
 638 0 l 1
 715.75390625 0 l 1
 780.928710938 10.177734375 l 1
 859.735351562 72.08984375 856.163085938 181.446289062 784.17578125 248.810546875 c 1
 747.744140625 256.810546875 l 1
 715.75390625 270.580078125 l 1
 644.220703125 273.69140625 l 1
 607.486328125 252.765625 l 1
 556.879882812 236.364257812 l 1
 477.477539062 178.217773438 l 1
 406.772460938 96.7900390625 l 1
 359.264648438 7.736328125 l 1
 310.060546875 -64.634765625 l 1
 291.681640625 -132.775390625 l 1
 262.288085938 -184.50390625 l 1
 223.845703125 -216.731445312 l 1
 183.977539062 -223.802734375 l 1
 159.666992188 -199.491210938 l 1
 158.821289062 -147.750976562 l 1
 152.3125 -74.8115234375 l 1
 141.557617188 -20.25390625 l 1
 133.911132812 62.873046875 l 1
 126.264648438 128.4609375 l 1
 114.381835938 161.247070312 l 1
 100.245117188 200.540039062 l 1
 79.6123046875 230.227539062 l 1
686.629882812 205.842773438 m 1
 740.359375 190.149414062 l 1
 761.002929688 148.016601562 l 1
 744.032226562 98.1044921875 l 1
 713.068359375 72.798828125 l 1
 670.090820312 64.8828125 l 1
 631.918945312 72.2353515625 l 1
 606.900390625 107.866210938 l 1
 600.536132812 159.6171875 l 1
 625.978515625 194.25390625 l 1
 686.629882812 205.842773438 l 1
EndSplineSet
LCarets2: 1 0
Ligature2: "'liga' +A5oDvwO5A70DrAAA +A8ADvwO7A7sDsQPAA7sDrAAA +A8MDxAO/A7kDxwO1A68DsQAA lookup 0 subtable" uniE030 omicron
EndChar

StartChar: "+4DEDswAA"
Encoding: 8 -1 8
Width: 742
VWidth: 924
Flags: W
VStem: 280.633 82.0234<-61.6533 -29.127> 280.633 80.6094<-61.6533 144.829>
LayerCount: 2
Fore
SplineSet
248.10546875 294.728515625 m 1x40
 214.1640625 255.129882812 l 1
 159.009765625 188.662109375 l 1
 123.654296875 158.963867188 l 1
 117.998046875 143.407226562 l 1
 117.998046875 109.465820312 l 1
 142.0390625 99.56640625 l 1
 187.293945312 108.051757812 l 1
 214.1640625 126.436523438 l 1
 242.448242188 134.921875 l 1
 252.34765625 132.09375 l 1
 266.490234375 105.223632812 l 1
 263.662109375 69.8681640625 l 1
 253.762695312 48.6552734375 l 1
 233.962890625 31.6845703125 l 1
 187.293945312 18.9560546875 l 1
 159.009765625 10.470703125 l 1
 136.3828125 3.400390625 l 1
 106.68359375 7.642578125 l 1
 62.84375 31.6845703125 l 1
 31.73046875 54.3115234375 l 1
 7.689453125 116.537109375 l 1
 7.689453125 175.934570312 l 1
 23.2451171875 194.319335938 l 1
 85.470703125 242.40234375 l 1
 130.725585938 303.212890625 l 1
 191.537109375 385.237304688 l 1
 235.377929688 441.806640625 l 1
 301.845703125 488.475585938 l 1
 330.129882812 495.546875 l 1
 365.485351562 487.061523438 l 1
 382.456054688 460.19140625 l 1
 392.35546875 403.622070312 l 1
 383.870117188 348.467773438 l 1
 366.899414062 320.18359375 l 1
 357 282 l 1
 355.5859375 129.264648438 l 1
 357 31.6845703125 l 1
 361.2421875 -29.126953125 l 1x40
 362.65625 -61.6533203125 l 1x80
 373.970703125 -77.2099609375 l 1
 383.870117188 -74.3818359375 l 1
 395.18359375 -71.552734375 l 1
 436.196289062 -17.8134765625 l 1
 515.391601562 81.181640625 l 1
 588.930664062 191.490234375 l 1
 644.084960938 272.100585938 l 1
 696.411132812 321.598632812 l 1
 736.008789062 348.467773438 l 1
 754.393554688 351.296875 l 1
 767.122070312 335.740234375 l 1
 768.536132812 294.728515625 l 1
 764.29296875 243.81640625 l 1
 748.737304688 204.21875 l 1
 697.825195312 150.478515625 l 1
 641.256835938 102.395507812 l 1
 588.930664062 44.412109375 l 1
 515.391601562 -40.4404296875 l 1
 461.651367188 -115.393554688 l 1
 427.7109375 -163.477539062 l 1
 396.59765625 -207.317382812 l 1
 366.899414062 -272.37109375 l 1
 358.4140625 -311.969726562 l 1
 358.4140625 -347.325195312 l 1
 361.2421875 -381.265625 l 1x40
 348.514648438 -418.03515625 l 1
 330.129882812 -433.591796875 l 1
 300.431640625 -440.663085938 l 1
 277.803710938 -429.349609375 l 1
 256.590820312 -410.96484375 l 1
 245.27734375 -385.508789062 l 1
 238.206054688 -354.395507812 l 1
 245.27734375 -321.869140625 l 1
 276.389648438 -255.401367188 l 1
 290.532226562 -224.288085938 l 1
 283.4609375 -149.334960938 l 1
 280.6328125 -37.6123046875 l 1x80
 280.6328125 11.8857421875 l 1
 277.803710938 99.56640625 l 1
 274.975585938 190.076171875 l 1
 267.904296875 266.443359375 l 1
 248.10546875 294.728515625 l 1x40
EndSplineSet
LCarets2: 1 0
Ligature2: "'liga' +A5oDvwO5A70DrAAA +A8ADvwO7A7sDsQPAA7sDrAAA +A8MDxAO/A7kDxwO1A68DsQAA lookup 0 subtable" uniE031 gamma
EndChar

StartChar: .notdef
Encoding: 9 -1 9
Width: 500
GlyphClass: 1
Flags: MW
HStem: 0 50<100 400 100 450> 483 50<100 400 100 100>
VStem: 50 50<50 50 50 483> 400 50<50 483 483 483>
LayerCount: 2
Fore
SplineSet
50 0 m 1
 50 533 l 1
 450 533 l 1
 450 0 l 1
 50 0 l 1
100 50 m 1
 400 50 l 1
 400 483 l 1
 100 483 l 1
 100 50 l 1
EndSplineSet
EndChar

StartChar: uniE029
Encoding: 10 57385 10
Width: 492
VWidth: 924
GlyphClass: 1
Flags: MW
HStem: 132.498 78.1113
LayerCount: 2
Fore
SplineSet
425.9296875 470.37890625 m 1
 400.498046875 466.74609375 l 1
 378.69921875 452.212890625 l 1
 320.568359375 417.69921875 l 1
 260.62109375 381.3671875 l 1
 200.67578125 332.3203125 l 1
 120.74609375 266.923828125 l 1
 82.59765625 226.958984375 l 1
 39.001953125 185.177734375 l 1
 8.119140625 143.396484375 l 1
 2.669921875 96.166015625 l 1
 8.119140625 61.65234375 l 1
 44.451171875 27.13671875 l 1
 82.59765625 14.421875 l 1
 138.912109375 5.337890625 l 1
 197.04296875 -1.927734375 l 1
 251.5390625 3.521484375 l 1
 286.0546875 8.970703125 l 1
 326.017578125 39.853515625 l 1
 346 78 l 1
 346 101.615234375 l 1
 346 129.318359375 l 1
 358.716796875 130.681640625 l 1
 478.609375 132.498046875 l 1
 538.556640625 132.498046875 l 1
 560.35546875 145.212890625 l 1
 565.8046875 170.646484375 l 1
 556.72265625 188.810546875 l 1
 520.390625 201.52734375 l 1
 464.076171875 206.9765625 l 1
 335.1015625 210.609375 l 1
 271.521484375 214.2421875 l 1
 217.0234375 216.060546875 l 1
 212.748046875 216.509765625 l 1
 227.923828125 232.408203125 l 1
 291.50390625 276.005859375 l 1
 353.267578125 312.337890625 l 1
 431.37890625 363.201171875 l 1
 482.2421875 386.81640625 l 1
 511.30859375 415.880859375 l 1
 507.67578125 443.130859375 l 1
 476.79296875 463.11328125 l 1
 425.9296875 470.37890625 l 1
177.83984375 169.584960938 m 1
 191.591796875 161.563476562 l 1
 207.94140625 157.928710938 l 1
 208.162109375 158.327148438 l 1
 231.556640625 139.763671875 l 1
 232.78515625 139.529296875 l 1
 249.72265625 107.06640625 l 1
 258.8046875 76.18359375 l 1
 246.08984375 48.935546875 l 1
 218.841796875 48.935546875 l 1
 166.16015625 48.935546875 l 1
 131.646484375 54.384765625 l 1
 97.130859375 58.017578125 l 1
 89.865234375 87.083984375 l 1
 100.763671875 112.515625 l 1
 128.013671875 136.130859375 l 1
 153.4453125 154.295898438 l 1
 169.79296875 165.196289062 l 1
 177.83984375 169.584960938 l 1
EndSplineSet
EndChar

StartChar: uniE040
Encoding: 11 57408 11
Width: 500
VWidth: 924
GlyphClass: 1
Flags: W
LayerCount: 2
Fore
SplineSet
60.515625 566.01171875 m 1
 22.3671875 558.74609375 l 1
 -1.248046875 544.212890625 l 1
 2.38671875 509.697265625 l 1
 20.55078125 460.650390625 l 1
 58.69921875 437.03515625 l 1
 111.37890625 386.171875 l 1
 138.62890625 364.373046875 l 1
 154.9765625 337.125 l 1
 171.326171875 318.958984375 l 1
 169.509765625 297.16015625 l 1
 145.89453125 282.626953125 l 1
 120.462890625 268.095703125 l 1
 75.048828125 228.130859375 l 1
 49.6171875 204.515625 l 1
 20.55078125 168.18359375 l 1
 13.28515625 146.384765625 l 1
 4.203125 110.0546875 l 1
 4.203125 82.8046875 l 1
 9.65234375 50.107421875 l 1
 24.185546875 33.7578125 l 1
 56.8828125 13.775390625 l 1
 105.9296875 4.693359375 l 1
 147.7109375 4.693359375 l 1
 187.67578125 21.04296875 l 1
 236.72265625 55.556640625 l 1
 271.23828125 84.62109375 l 1
 298.486328125 117.3203125 l 1
 316.65234375 139.119140625 l 1
 320.28515625 157.28515625 l 1
 333 170 l 1
 360.25 175.44921875 l 1
 383.865234375 164.55078125 l 1
 411.11328125 131.853515625 l 1
 465.609375 95.521484375 l 1
 541.90625 42.841796875 l 1
 601.8515625 -8.0234375 l 1
 634.55078125 -18.921875 l 1
 663.615234375 -22.5546875 l 1
 679.96484375 -2.572265625 l 1
 663.615234375 26.4921875 l 1
 589.13671875 100.970703125 l 1
 531.005859375 170 l 1
 441.994140625 240.845703125 l 1
 362.06640625 304.42578125 l 1
 309.384765625 348.0234375 l 1
 254.888671875 387.98828125 l 1
 214.923828125 422.50390625 l 1
 184.04296875 460.650390625 l 1
 144.078125 518.78125 l 1
 111.37890625 551.478515625 l 1
 60.515625 566.01171875 l 1
202.208984375 211.78125 m 1
 220.373046875 211.78125 l 1
 218.556640625 182.716796875 l 1
 204.025390625 157.28515625 l 1
 184.04296875 130.03515625 l 1
 145.89453125 120.953125 l 1
 133.177734375 130.03515625 l 1
 142.26171875 162.734375 l 1
 158.611328125 184.533203125 l 1
 202.208984375 211.78125 l 1
EndSplineSet
EndChar

StartChar: uniE022
Encoding: 12 57378 12
Width: 450
VWidth: 924
GlyphClass: 1
Flags: MW
HStem: 10.0693 82.8789 247.521 83.0586 285.034 82.1514 367.211 0.862305
VStem: 11.3691 83.0996 234.604 83.002
LayerCount: 2
Fore
SplineSet
318.9453125 626.627929688 m 1xbc
 310.58203125 626.315429688 301.654296875 623.302734375 292.818359375 616.709960938 c 0
 276.724609375 603.703125 262.849609375 588.16015625 248.3984375 573.397460938 c 0
 228.958984375 553.475585938 208.842773438 534.236328125 188.69140625 515.040039062 c 0
 173.016601562 500.224609375 158.206054688 484.537109375 143.048828125 469.200195312 c 0
 129.956054688 456.54296875 118.01171875 442.850585938 107.19140625 428.21875 c 0
 99.9169921875 417.604492188 93.0126953125 406.762695312 85.228515625 396.508789062 c 0
 79.92578125 389.59375 73.8671875 383.326171875 67.87890625 377.014648438 c 0
 57.07421875 365.64453125 49.482421875 351.232421875 49.45703125 335.174804688 c 0
 49.4501953125 330.736328125 50.4072265625 326.348632812 50.8828125 321.934570312 c 0
 52.642578125 317.3515625 53.791015625 312.482421875 56.162109375 308.182617188 c 0
 59.65625 301.848632812 63.77734375 297.211914062 68.724609375 293.131835938 c 1
 65.9853515625 290.03515625 63.3359375 286.856445312 60.890625 283.5 c 0
 56.740234375 277.717773438 52.9345703125 271.725585938 49.1640625 265.690429688 c 0
 41.6455078125 253.982421875 34.701171875 241.901367188 28.71875 229.329101562 c 0
 19.109375 208.107421875 10.9033203125 185.922851562 11.369140625 162.244140625 c 0
 12.2421875 139.68359375 14.7353515625 117.084960938 21.86328125 95.5419921875 c 0
 23.419921875 91.4482421875 24.798828125 87.283203125 26.533203125 83.2607421875 c 0
 33.025390625 68.2041015625 42.62109375 53.517578125 54.548828125 42.21875 c 0
 58.0166015625 38.9326171875 61.9462890625 36.1708984375 65.64453125 33.1474609375 c 0
 73.267578125 28.4462890625 76.50390625 26.130859375 84.890625 22.3623046875 c 0
 97.6083984375 16.6494140625 111.135742188 13.4345703125 124.892578125 11.46875 c 0
 132.8359375 10.6435546875 137.443359375 9.951171875 145.62890625 10.0693359375 c 0
 156.874023438 10.2333984375 167.834960938 12.4501953125 178.611328125 15.5146484375 c 0
 193.555664062 19.9306640625 208.302734375 25.0693359375 222.166015625 32.275390625 c 0
 235.056640625 39.0947265625 247.545898438 46.71484375 258.349609375 56.6142578125 c 0
 271.837890625 69.2626953125 284.12109375 83.1748046875 293.01171875 99.5146484375 c 0
 300.483398438 114.530273438 306.411132812 130.208007812 310.16796875 146.588867188 c 0
 313.921875 163.120117188 316.666015625 179.852539062 317.60546875 196.801757812 c 0
 318.064453125 204.548828125 318.345703125 212.306640625 318.935546875 220.043945312 c 0
 323.146484375 278.689453125 240.2109375 284.64453125 236 226 c 0
 235.37109375 217.922851562 235.086914062 209.826171875 234.603515625 201.739257812 c 0
 233.883789062 189.426757812 231.96875 177.255859375 229.142578125 165.262695312 c 0
 226.756835938 155.514648438 223.534179688 145.995117188 218.84765625 137.112304688 c 0
 214.15234375 129.764648438 208.224609375 123.413085938 201.798828125 117.571289062 c 0
 196.337890625 112.8671875 190.090820312 109.241210938 183.69140625 105.987304688 c 0
 174.623046875 101.344726562 164.959960938 98.134765625 155.205078125 95.3017578125 c 0
 151.458007812 94.5400390625 147.736328125 93.087890625 143.87109375 92.9482421875 c 0
 140.962890625 92.84375 136.885742188 93.7578125 134.072265625 94.1103515625 c 0
 129.28125 95.1435546875 124.319335938 95.837890625 119.72265625 97.625 c 0
 116.302734375 98.9541015625 113.102539062 101.395507812 110.087890625 103.422851562 c 0
 107.094726562 108.671875 103.618164062 113.663085938 101.443359375 119.350585938 c 0
 100.88671875 120.807617188 100.518554688 122.330078125 100.056640625 123.819335938 c 0
 96.197265625 137.251953125 94.8759765625 151.234375 94.46875 165.153320312 c 0
 94.560546875 166.599609375 94.509765625 168.061523438 94.7421875 169.491210938 c 0
 94.8876953125 170.385742188 95.328125 171.205078125 95.591796875 172.071289062 c 0
 97.0966796875 177.006835938 97.1005859375 177.778320312 99.02734375 182.799804688 c 0
 100.58984375 186.87109375 102.499023438 190.793945312 104.333984375 194.744140625 c 0
 108.698242188 203.68359375 113.666992188 212.315429688 119.068359375 220.665039062 c 0
 122.1484375 225.302734375 124.846679688 230.1875 128.1796875 234.651367188 c 0
 132.802734375 240.780273438 138.52734375 245.919921875 144.35546875 250.864257812 c 0
 148.278320312 254.142578125 152.595703125 256.901367188 157.181640625 259.145507812 c 0
 160.536132812 260.671875 163.963867188 262.024414062 167.443359375 263.235351562 c 0
 170.978515625 264.30859375 174.4921875 265.448242188 177.990234375 266.637695312 c 0
 178.01171875 266.645507812 178.033203125 266.65234375 178.0546875 266.66015625 c 0
 190.932617188 265.83203125 203.737304688 271.319335938 212.32421875 280.78515625 c 1
 222.680664062 282.047851562 233.02734375 283.385742188 243.3828125 284.65234375 c 0
 261.119140625 287.084960938 278.920898438 285.837890625 296.658203125 284.349609375 c 0
 316.013671875 282.716796875 285.42578125 286.033203125 304.822265625 285.034179688 c 0xbc
 329.6875 283.331054688 354.579101562 283.458007812 379.474609375 284.100585938 c 0
 402.806640625 284.45703125 424.592773438 278.973632812 447.856445312 280.630859375 c 0
 458.985351562 281.423828125 532.985351562 246.409179688 544.0859375 247.521484375 c 1
 559.584960938 240.889648438 579.1015625 243.40625 594 262 c 0
 597.21484375 269.717773438 600.428710938 277.43359375 603.64453125 285.150390625 c 1
 599.236328125 296.864257812 597.584960938 310.028320312 590.421875 320.291015625 c 0
 586.385742188 326.07421875 578.461914062 327.905273438 571.9375 330.580078125 c 0xdc
 564.54296875 333.612304688 554.247070312 332.0625 546.345703125 331.31640625 c 0
 532.434570312 329.698242188 459.991210938 358.723632812 446.026367188 357.673828125 c 0
 424.125976562 356.02734375 399.2890625 367.541992188 377.31640625 367.223632812 c 0
 354.563476562 366.629882812 331.819335938 366.471679688 309.09375 368.073242188 c 0
 290.579101562 369.024414062 322.05078125 365.653320312 303.576171875 367.2109375 c 0
 280.171875 369.155273438 256.662109375 370.32421875 233.28125 367.185546875 c 0
 211.791992188 364.552734375 202.630859375 367.701171875 181.046875 365.919921875 c 0
 177.306640625 365.608398438 172.696289062 364.861328125 167.7109375 363.95703125 c 1
 175.083984375 371.489257812 182.588867188 379.201171875 186.529296875 385.185546875 c 0
 194.819335938 396.637695312 192.068359375 400.895507812 202.193359375 410.755859375 c 0
 216.759765625 425.498046875 230.993164062 440.578125 246.04296875 454.8359375 c 0
 266.895507812 474.69921875 287.702148438 494.616210938 307.818359375 515.232421875 c 0
 319.27734375 526.938476562 330.399414062 539.0703125 342.541015625 550.064453125 c 0
 380.830078125 578.629882812 355.185546875 627.983398438 318.9453125 626.62890625 c 1
 318.9453125 626.627929688 l 1xbc
EndSplineSet
EndChar

StartChar: Alpha
Encoding: 13 913 13
Width: 738
VWidth: 924
GlyphClass: 1
Flags: W
LayerCount: 2
Fore
SplineSet
615.349609375 783.37890625 m 1
 578.580078125 779.134765625 l 1
 540.396484375 742.365234375 l 1
 505.041015625 702.767578125 l 1
 459.787109375 650.44140625 l 1
 424.431640625 603.7734375 l 1
 376.34765625 534.4765625 l 1
 339.578125 455.28125 l 1
 316.951171875 405.783203125 l 1
 304.22265625 383.15625 l 1
 292.91015625 371.841796875 l 1
 246.240234375 371.841796875 l 1
 185.4296875 376.083984375 l 1
 134.517578125 373.255859375 l 1
 92.091796875 371.841796875 l 1
 49.6640625 357.69921875 l 1
 36.9375 336.486328125 l 1
 28.451171875 299.716796875 l 1
 39.765625 264.361328125 l 1
 77.94921875 230.419921875 l 1
 121.7890625 212.03515625 l 1
 165.630859375 207.79296875 l 1
 186.84375 227.591796875 l 1
 192.5 253.048828125 l 1
 198.158203125 277.08984375 l 1
 219.37109375 281.33203125 l 1
 236.341796875 275.67578125 l 1
 240.583984375 262.947265625 l 1
 229.26953125 229.005859375 l 1
 192.5 193.650390625 l 1
 114.71875 130.01171875 l 1
 52.494140625 91.828125 l 1
 -8.318359375 77.685546875 l 1
 -28.1171875 70.615234375 l 1
 -40.845703125 57.88671875 l 1
 -39.4296875 35.259765625 l 1
 -23.875 2.732421875 l 1
 -6.904296875 -7.16796875 l 1
 31.279296875 9.802734375 l 1
 85.01953125 22.53125 l 1
 157.14453125 47.986328125 l 1
 198.158203125 81.927734375 l 1
 260.3828125 134.25390625 l 1
 285.837890625 163.953125 l 1
 324.021484375 204.96484375 l 1
 365.03515625 262.947265625 l 1
 374.93359375 289.818359375 l 1
 400.390625 292.646484375 l 1
 431.501953125 279.91796875 l 1
 452.71484375 257.291015625 l 1
 452.71484375 227.591796875 l 1
 428.673828125 162.5390625 l 1
 408.875 96.0703125 l 1
 377.76171875 21.1171875 l 1
 359.376953125 -29.794921875 l 1
 353.720703125 -70.806640625 l 1
 376.34765625 -103.333984375 l 1
 410.2890625 -123.1328125 l 1
 438.57421875 -133.03125 l 1
 482.4140625 -120.3046875 l 1
 531.912109375 -73.634765625 l 1
 567.267578125 -41.107421875 l 1
 587.06640625 -12.82421875 l 1
 594.13671875 28.1875 l 1
 575.751953125 53.64453125 l 1
 551.7109375 56.47265625 l 1
 522.01171875 36.673828125 l 1
 496.556640625 12.6328125 l 1
 481 15.4609375 l 1
 478.171875 29.6015625 l 1
 475.34375 52.23046875 l 1
 481 89 l 1
 499.384765625 125.76953125 l 1
 523.42578125 196.48046875 l 1
 554.5390625 264.361328125 l 1
 606.865234375 260.119140625 l 1
 700.203125 240.3203125 l 1
 783.642578125 226.177734375 l 1
 835.966796875 221.935546875 l 1
 868.494140625 234.6640625 l 1
 872.736328125 262.947265625 l 1
 874.150390625 289.818359375 l 1
 862.837890625 306.7890625 l 1
 831.724609375 296.888671875 l 1
 729.90234375 303.958984375 l 1
 660.60546875 315.2734375 l 1
 616.763671875 316.6875 l 1
 587.06640625 325.173828125 l 1
 584.23828125 340.728515625 l 1
 582.82421875 383.15625 l 1
 587.06640625 421.33984375 l 1
 594.13671875 452.453125 l 1
 599.79296875 496.29296875 l 1
 612.521484375 527.40625 l 1
 640.806640625 591.044921875 l 1
 654.94921875 616.501953125 l 1
 659.19140625 661.755859375 l 1
 647.876953125 721.15234375 l 1
 646.462890625 764.994140625 l 1
 615.349609375 783.37890625 l 1
483.828125 492.05078125 m 1
 495.142578125 469.423828125 l 1
 496.556640625 435.482421875 l 1
 492.314453125 398.712890625 l 1
 481 373.255859375 l 1
 468.271484375 363.357421875 l 1
 438.57421875 367.599609375 l 1
 423.017578125 380.328125 l 1
 452.71484375 453.8671875 l 1
 464.029296875 479.322265625 l 1
 483.828125 492.05078125 l 1
EndSplineSet
EndChar

StartChar: colon
Encoding: 14 58 14
Width: 450
VWidth: 924
GlyphClass: 1
Flags: W
LayerCount: 2
Fore
SplineSet
103.228515625 421.318359375 m 1
 73.5234375 418.224609375 l 1
 44.53515625 409.166015625 l 1
 34.482421875 392.55078125 l 1
 29.158203125 372.224609375 l 1
 37.11328125 334.619140625 l 1
 59.029296875 312.23828125 l 1
 96.21484375 296.396484375 l 1
 137.83984375 299.556640625 l 1
 174.98046875 313.14453125 l 1
 195.548828125 334.576171875 l 1
 202.57421875 358.017578125 l 1
 197.0703125 378.54296875 l 1
 185.44921875 394.052734375 l 1
 169.412109375 403.75390625 l 1
 155.359375 414.31640625 l 1
 139.51953125 416.525390625 l 1
 123.345703125 418.955078125 l 1
 103.228515625 421.318359375 l 1
100.388671875 128.76171875 m 1
 70.68359375 125.66796875 l 1
 41.6953125 116.609375 l 1
 31.64453125 99.9921875 l 1
 26.3203125 79.66796875 l 1
 34.275390625 42.060546875 l 1
 56.189453125 19.681640625 l 1
 93.375 3.83984375 l 1
 135 7 l 1
 172.140625 20.587890625 l 1
 192.708984375 42.017578125 l 1
 199.734375 65.458984375 l 1
 194.232421875 85.984375 l 1
 182.611328125 101.494140625 l 1
 166.572265625 111.1953125 l 1
 152.521484375 121.759765625 l 1
 136.681640625 123.96875 l 1
 120.505859375 126.396484375 l 1
 100.388671875 128.76171875 l 1
EndSplineSet
EndChar

StartChar: plus
Encoding: 15 43 15
Width: 692
VWidth: 924
GlyphClass: 1
Flags: MW
VStem: 210.719 101.822
LayerCount: 2
Fore
SplineSet
304.056640625 707.666015625 m 1
 267.287109375 706.251953125 l 1
 239.001953125 689.28125 l 1
 224.859375 658.169921875 l 1
 209.302734375 624.228515625 l 1
 210.71875 567.66015625 l 1
 217.7890625 504.01953125 l 1
 226.2734375 447.451171875 l 1
 212.1328125 429.06640625 l 1
 188.08984375 430.48046875 l 1
 115.96484375 427.65234375 l 1
 73.5390625 424.82421875 l 1
 7.0703125 407.853515625 l 1
 1.4140625 380.984375 l 1
 0 362.599609375 l 1
 5.65625 327.244140625 l 1
 26.869140625 313.1015625 l 1
 82.0234375 315.9296875 l 1
 147.078125 317.34375 l 1
 186.67578125 320.171875 l 1
 205.060546875 315.9296875 l 1
 203.646484375 297.544921875 l 1
 202.232421875 259.361328125 l 1
 188.08984375 226.833984375 l 1
 179.60546875 153.294921875 l 1
 181.01953125 117.939453125 l 1
 197.990234375 78.341796875 l 1
 236.173828125 52.88671875 l 1
 285.671875 57.12890625 l 1
 298.3984375 83.998046875 l 1
 298.3984375 117.939453125 l 1
 278.599609375 156.123046875 l 1
 284.2578125 209.86328125 l 1
 296.984375 277.74609375 l 1
 301.2265625 311.6875 l 1
 323.85546875 325.830078125 l 1
 369.109375 341.384765625 l 1
 427.091796875 347.04296875 l 1
 510.53125 351.28515625 l 1
 593.96875 342.80078125 l 1
 651.953125 347.04296875 l 1
 670.337890625 365.427734375 l 1
 688.72265625 390.8828125 l 1
 683.064453125 407.853515625 l 1
 667.509765625 420.58203125 l 1
 644.880859375 427.65234375 l 1
 595.384765625 431.89453125 l 1
 547.30078125 433.30859375 l 1
 459.619140625 433.30859375 l 1
 398.80859375 429.06640625 l 1
 345.068359375 426.23828125 l 1
 322.44140625 433.30859375 l 1
 315.369140625 450.279296875 l 1
 312.541015625 479.978515625 l 1
 313.955078125 545.033203125 l 1
 318.197265625 608.671875 l 1
 328.09765625 677.96875 l 1
 304.056640625 707.666015625 l 1
EndSplineSet
EndChar

StartChar: hyphen
Encoding: 16 45 16
Width: 649
VWidth: 924
GlyphClass: 1
Flags: MW
HStem: 231 86 261 70
LayerCount: 2
Fore
SplineSet
70 333 m 1x40
 336 331 l 1x40
 374 319 l 1
 452 317 l 1
 584 313 l 1
 610 305 l 1
 616 265 l 1
 600 231 l 1x80
 530 229 l 1
 402 241 l 1
 278 255 l 1
 150 261 l 1
 112 235 l 1
 82 215 l 1
 52 239 l 1
 54 307 l 1
 70 333 l 1x40
EndSplineSet
EndChar

StartChar: nu
Encoding: 17 957 17
Width: 429
VWidth: 824
GlyphClass: 1
Flags: MW
VStem: 305.162 94.7676
LayerCount: 2
Fore
SplineSet
90.6953125 398.51171875 m 0
 84 398.57421875 77.4921875 395.588867188 71.49609375 392.609375 c 0
 67.375 390.5625 64.4541015625 386.686523438 60.93359375 383.724609375 c 0
 55.0400390625 376.860351562 51.529296875 368.515625 47.919921875 360.330078125 c 0
 44.6357421875 352.806640625 41.4931640625 345.220703125 38.3515625 337.63671875 c 0
 34.5966796875 328.447265625 31.4375 319.032226562 28.171875 309.662109375 c 0
 25.267578125 301.381835938 22.3935546875 293.084960938 19.037109375 284.974609375 c 0
 17.5078125 281.19140625 15.65234375 277.565429688 13.62890625 274.02734375 c 0
 13.0458984375 272.984375 12.3056640625 272.043945312 11.59765625 271.083984375 c 0
 10.4501953125 269.499023438 9.357421875 267.875976562 8.28125 266.2421875 c 0
 2.900390625 258.059570312 3.392578125 253.134765625 0.859375 241.333984375 c 0
 1.498046875 233.946289062 1.5390625 233.541992188 0.94921875 240.119140625 c 1
 1.2353515625 208.986328125 24.6845703125 194.5625 46.60546875 196.603515625 c 1
 45.6474609375 187.76953125 44.7265625 178.930664062 44.072265625 170.068359375 c 0
 43.390625 158.654296875 43.052734375 147.220703125 42.25 135.8125 c 0
 41.384765625 124.03515625 39.9111328125 112.319335938 38.34375 100.6171875 c 0
 36.61328125 87.77734375 34.779296875 74.9501953125 32.958984375 62.123046875 c 0
 31.2216796875 49.6943359375 29.5673828125 37.255859375 28.0546875 24.796875 c 0
 26.5029296875 13.244140625 24.75390625 1.720703125 23.033203125 -9.80859375 c 0
 21.2734375 -21.8955078125 19.634765625 -33.9990234375 18.041015625 -46.109375 c 0
 16.66796875 -56.0712890625 15.201171875 -66.0302734375 13.0859375 -75.8671875 c 0
 11.09765625 -85.154296875 8.8310546875 -94.3720703125 6.384765625 -103.548828125 c 0
 3.80078125 -114.038085938 1.4111328125 -124.57421875 -0.48828125 -135.212890625 c 0
 -2.6474609375 -147.306640625 -4.5048828125 -159.44921875 -5.84765625 -171.6640625 c 0
 -7.6455078125 -188.23828125 -8.98046875 -205.0078125 -5.95703125 -221.54296875 c 0
 -5.302734375 -224.361328125 -4.8291015625 -227.227539062 -3.99609375 -229.998046875 c 0
 0.5576171875 -245.139648438 9.109375 -258.6015625 23.37890625 -266.33203125 c 0
 26.869140625 -268.22265625 30.7666015625 -269.2421875 34.4609375 -270.697265625 c 0
 38.255859375 -271.249023438 42.015625 -272.165039062 45.845703125 -272.353515625 c 0
 60.150390625 -273.057617188 73.61328125 -267.10546875 84.71875 -258.583984375 c 0
 93.935546875 -250.250976562 101.116210938 -241.500976562 107.51953125 -230.83984375 c 0
 113.111328125 -221.971679688 118.5859375 -213.029296875 124.18359375 -204.1640625 c 0
 129.395507812 -195.624023438 134.650390625 -187.03125 138.4765625 -177.759765625 c 0
 140.844726562 -171.291015625 142.815429688 -164.700195312 143.998046875 -157.90234375 c 0
 151.553710938 -119.438476562 117.818359375 -99.537109375 91.125 -107.611328125 c 1
 92.2626953125 -102.862304688 93.3525390625 -98.1015625 94.380859375 -93.326171875 c 0
 96.9384765625 -81.478515625 98.74609375 -69.4912109375 100.408203125 -57.4921875 c 0
 101.979492188 -45.5849609375 103.58203125 -33.6796875 105.314453125 -21.794921875 c 0
 106.958007812 -10.8212890625 108.587890625 0.1533203125 110.091796875 11.146484375 c 0
 113.506835938 10.701171875 116.934570312 10.3251953125 120.384765625 10.306640625 c 0
 123.423828125 10.224609375 126.44921875 9.9140625 129.478515625 9.669921875 c 0
 137.59375 9.01953125 148.232421875 3.916015625 156.30078125 2.82421875 c 0
 166.137695312 1.6171875 176.009765625 0.962890625 185.90625 0.4609375 c 0
 196.251953125 -0.23828125 206.642578125 -0.9580078125 217 0 c 0
 228.110351562 1.08984375 239.049804688 3.1455078125 249.59765625 6.90234375 c 0
 259.325195312 10.173828125 269.168945312 13.1845703125 278.5859375 17.296875 c 0
 288.123046875 21.810546875 297.375 26.9306640625 305.484375 33.7578125 c 0
 311.706054688 38.7021484375 318.051757812 43.5205078125 323.736328125 49.09375 c 0
 329.986328125 55.5439453125 335.774414062 62.4296875 340.3203125 70.212890625 c 0
 345.151367188 77.98046875 349.92578125 85.7861328125 354.326171875 93.80859375 c 0
 360.065429688 104.095703125 365.921875 114.33203125 371.01171875 124.962890625 c 0
 375.201171875 133.453125 376.9375 146.158203125 380.521484375 154.927734375 c 0
 384.483398438 164.974609375 388.112304688 175.162109375 390.990234375 185.578125 c 0
 393.711914062 196.298828125 395.751953125 207.146484375 396.970703125 218.146484375 c 0
 398.559570312 229.8671875 400.0546875 241.611328125 400.755859375 253.423828125 c 0
 401.341796875 264.729492188 401.41015625 276.068359375 399.9296875 287.318359375 c 0
 399.245117188 293.194335938 398.580078125 299.073242188 398.03125 304.962890625 c 0
 397.596679688 309.881835938 397.162109375 314.801757812 396.828125 319.728515625 c 0
 405.748046875 403.69140625 299.955078125 380.31640625 301.787109375 316.16015625 c 0
 302.12890625 311.080078125 302.581054688 306.0078125 303.029296875 300.935546875 c 0
 303.640625 294.282226562 304.390625 287.642578125 305.162109375 281.005859375 c 0
 306.07421875 274.459960938 305.955078125 267.865234375 305.556640625 261.2890625 c 0
 304.950195312 251.6953125 303.701171875 242.157226562 302.404296875 232.63671875 c 0
 301.5234375 224.874023438 300.301757812 217.18359375 298.30078125 209.630859375 c 0
 296.219726562 202.603515625 293.782226562 195.6875 291.05859375 188.884765625 c 0
 288.220703125 182.23046875 284.93359375 175.779296875 281.734375 169.294921875 c 0
 277.254882812 159.92578125 272.05859375 150.924804688 267.001953125 141.861328125 c 0
 263.24609375 134.991210938 259.143554688 128.321289062 255.0078125 121.67578125 c 0
 253.650390625 119.106445312 251.865234375 116.9453125 249.775390625 114.96875 c 0
 246.239257812 112.061523438 242.629882812 109.243164062 239.044921875 106.39453125 c 0
 236.032226562 103.650390625 232.499023438 101.86328125 228.814453125 100.23046875 c 0
 222.068359375 97.72265625 231.291015625 100.311523438 224.470703125 98.017578125 c 0
 220.03125 96.3427734375 209.155273438 93.50390625 204.455078125 93.15625 c 0
 198.491210938 92.7841796875 192.513671875 93.369140625 186.56640625 93.7734375 c 0
 178.545898438 93.77734375 168.260742188 100.653320312 152.642578125 105.37109375 c 1
 138.6171875 119.209960938 140.649414062 120.43359375 135.98828125 126.23828125 c 0
 136.135742188 127.055664062 136.364257812 127.866210938 136.427734375 128.689453125 c 0
 137.311523438 140.510742188 140.8046875 157.348632812 141.52734375 169.177734375 c 0
 142.375976562 179.921875 143.581054688 190.634765625 144.76171875 201.345703125 c 0
 146.508789062 215.881835938 148.682617188 230.356445312 150.271484375 244.912109375 c 0
 151.854492188 259.834960938 152.26171875 274.837890625 152.404296875 289.83203125 c 0
 152.293945312 302.330078125 152.266601562 314.828125 152.283203125 327.326171875 c 0
 152.353515625 337.96875 151.567382812 348.587890625 150.248046875 359.140625 c 0
 149.7734375 362.674804688 149.221679688 366.198242188 148.48046875 369.685546875 c 0
 143.403320312 391.504882812 111.872070312 398.313476562 90.6953125 398.51171875 c 0
31.40625 -194.8359375 m 1
 31.0654296875 -195.25 30.716796875 -195.66015625 30.3359375 -196.037109375 c 0
 30.2548828125 -196.1171875 29.978515625 -196.293945312 30.03125 -196.193359375 c 0
 30.185546875 -195.893554688 30.451171875 -195.666992188 30.662109375 -195.404296875 c 0
 30.8935546875 -195.189453125 31.1669921875 -195.040039062 31.40625 -194.8359375 c 1
EndSplineSet
EndChar

StartChar: Omicron
Encoding: 18 927 18
Width: 450
VWidth: 824
GlyphClass: 1
Flags: MW
HStem: 3.81836 129.574 68.7617 0.927734 119.049 0.824219
VStem: 13.1543 128.928
LayerCount: 2
Fore
SplineSet
259.076171875 405.626953125 m 2x90
 257.5078125 405.5703125 255.936523438 405.552734375 254.369140625 405.458984375 c 0
 247.635742188 405.055664062 240.985351562 403.857421875 234.365234375 402.62109375 c 0
 232.751953125 402.258789062 231.12890625 401.928710938 229.5234375 401.533203125 c 0
 222.91796875 399.903320312 216.518554688 397.474609375 210.390625 394.537109375 c 0
 201.134765625 389.848632812 192.18359375 384.495117188 184.36328125 377.615234375 c 0
 176.864257812 371.0234375 169.626953125 364.1171875 163.138671875 356.51171875 c 0
 158.361328125 350.767578125 153.74609375 344.877929688 149.859375 338.482421875 c 0
 148.08203125 335.587890625 146.6796875 332.719726562 145.552734375 329.88671875 c 0
 142.911132812 330.12890625 127.205078125 339.959960938 125.40234375 339.9765625 c 1
 129.013671875 339.849609375 140.889648438 332.404296875 140.453125 334.07421875 c 0
 139.931640625 336.034179688 121.689453125 347.80078125 119.95703125 347.6015625 c 0
 118.91796875 347.481445312 117.626953125 346.76953125 116.044921875 345.224609375 c 0
 112.794921875 342.045898438 105.502929688 344.430664062 104.9765625 338.177734375 c 0
 104.288085938 338.1484375 103.405273438 337.90234375 102.94140625 338.119140625 c 0
 93.408203125 342.551757812 81.00390625 308.28125 76.220703125 303.7734375 c 0
 71.61328125 299.430664062 66.1630859375 295.850585938 62.0625 291.11328125 c 0
 59.8701171875 288.59375 57.396484375 286.71875 57.583984375 283.62109375 c 0
 57.7470703125 280.905273438 56.3896484375 278.581054688 54.572265625 276.388671875 c 0
 52.220703125 273.869140625 49.1533203125 271.419921875 47.283203125 268.740234375 c 0
 39.8974609375 258.1640625 33.4814453125 245.258789062 26.60546875 232.26953125 c 0
 21.19921875 222.043945312 19.3154296875 210.505859375 18.751953125 199.857421875 c 0
 18.666015625 198.221679688 19.5009765625 196.161132812 18.900390625 195.279296875 c 0
 12.755859375 186.3671875 13.001953125 176.88671875 12.3984375 167.91796875 c 0
 12.2548828125 162.46484375 11.91796875 157.239257812 10.064453125 151.3359375 c 0
 9.0234375 148.022460938 10.1279296875 144.912109375 11.04296875 142.1328125 c 0
 12.328125 138.215820312 13.8984375 134.681640625 13.154296875 129.421875 c 0
 13.025390625 128.52734375 12.9501953125 126.962890625 13.22265625 126.76953125 c 0
 17.521484375 123.787109375 18.818359375 118.754882812 19.798828125 113.392578125 c 0
 20.7919921875 107.9609375 21.46875 102.244140625 24.01953125 98.033203125 c 0
 26.11328125 94.5830078125 29.6162109375 92.50390625 26.837890625 87.16796875 c 0
 26.7802734375 87.0556640625 26.8701171875 86.740234375 27.041015625 86.34375 c 0
 27.3486328125 85.64453125 27.8955078125 84.728515625 28.3203125 84.203125 c 0
 30.70703125 81.21875 33.228515625 78.91796875 35.48046875 75.3359375 c 0
 37.541015625 72.05078125 42.6015625 72.6875 41.234375 66.12109375 c 1
 45.5966796875 64.0068359375 48.5244140625 59.345703125 52.44921875 56.720703125 c 0
 53.29296875 56.1513671875 54.2470703125 55.8154296875 55.16015625 55.517578125 c 0
 59.5576171875 54.0498046875 57.7919921875 47.263671875 61.251953125 46.703125 c 0
 64.9853515625 46.11328125 67.31640625 46.224609375 69.8671875 42.046875 c 0
 70.9453125 40.28515625 73.607421875 36.9716796875 75.818359375 37.23828125 c 0
 76.671875 37.341796875 77.443359375 37.392578125 78.134765625 37.37890625 c 0
 81.4482421875 37.3134765625 82.865234375 35.76171875 82.921875 31.400390625 c 0
 82.921875 31.017578125 83.7265625 30.169921875 84.017578125 30.20703125 c 0
 88.111328125 30.7177734375 91.236328125 28.38671875 94.466796875 26.2421875 c 0
 97.697265625 24.0966796875 101.025390625 22.142578125 104.94140625 23.447265625 c 0
 105.807617188 23.734375 106.72265625 23.337890625 107.23046875 22.455078125 c 0
 110.510742188 16.80859375 116.90234375 18.158203125 121.6640625 16.720703125 c 0
 123.000976562 16.3154296875 125.0390625 17.2158203125 125.91015625 16.51171875 c 0
 127.384765625 15.3134765625 128.962890625 14.3701171875 130.6015625 13.6171875 c 0
 138.0078125 10.2109375 146.421875 10.73828125 154.00390625 8.63671875 c 0
 163.329101562 6.0517578125 172.944335938 5.4208984375 182.318359375 4.494140625 c 0
 186.782226562 4.046875 191.421875 2.9228515625 196.033203125 3.818359375 c 0x90
 198.723632812 4.341796875 201.38671875 4.666015625 203.99609375 3.583984375 c 0
 204.724609375 3.2822265625 205.6171875 3.0244140625 206.359375 3.205078125 c 0
 216.866210938 5.740234375 227.198242188 1.3095703125 236.8671875 4.56640625 c 0
 240.041015625 5.6318359375 242.696289062 4.94140625 245.43359375 4.546875 c 0
 246.684570312 4.3671875 247.942382812 4.2548828125 249.232421875 4.4140625 c 0
 257.94140625 5.4931640625 265.983398438 9.37890625 274.625 10.533203125 c 0
 276.0625 10.7236328125 277.219726562 12.0947265625 278.609375 9.9140625 c 0
 280.11328125 7.537109375 282.129882812 7.28515625 283.791015625 9.66015625 c 0
 284.916992188 11.267578125 286.215820312 11.2294921875 287.92578125 10.88671875 c 0
 291.423828125 10.19921875 294.57421875 11.8349609375 297.67578125 13.115234375 c 0
 298.872070312 13.6201171875 300.134765625 15.09375 301.09375 14.796875 c 0
 306.081054688 13.2353515625 310.009765625 16.974609375 314.384765625 17.365234375 c 0
 321.999023438 18.037109375 328.377929688 22.140625 335.4296875 24.505859375 c 0
 335.846679688 24.6455078125 336.266601562 24.7666015625 336.689453125 24.873046875 c 0
 341.944335938 26.201171875 347.740234375 25.201171875 352.71484375 28.30859375 c 0
 360.21484375 33 369.629882812 33.1640625 378.34765625 35.251953125 c 0
 390.748046875 38.224609375 401.91015625 45.5166015625 415.638671875 47.548828125 c 0
 420.918945312 48.32421875 421.086914062 54.8310546875 425.8984375 56.4765625 c 0
 426.9765625 56.841796875 426.08984375 59.3330078125 425.4296875 60.552734375 c 0
 423.8203125 63.5390625 421.862304688 66.43359375 420.021484375 69.263671875 c 1
 421.580078125 69.0810546875 423.143554688 68.9130859375 424.71484375 68.76171875 c 0
 424.755859375 69.0712890625 424.796875 69.3798828125 424.8359375 69.689453125 c 0
 417.608398438 72.607421875 410.581054688 75.66015625 403.6328125 79.046875 c 0
 400.61328125 80.5234375 398.224609375 80.0107421875 396.12109375 78.373046875 c 0
 393.638671875 76.44921875 391.125976562 75.8720703125 387.390625 77.283203125 c 0
 383.7578125 78.650390625 380.100585938 77.7431640625 377.23046875 75.81640625 c 0
 374.864257812 74.2294921875 372.252929688 73.1806640625 369.201171875 72.94921875 c 0
 367.15625 72.7939453125 365.578125 72.515625 363.455078125 74.4375 c 0
 361.02734375 76.63671875 358.791015625 77.732421875 360.009765625 72.779296875 c 0
 360.982421875 68.80859375 358.272460938 69.0546875 355.978515625 70.642578125 c 0
 352.635742188 72.9462890625 350.80859375 72.22265625 349.216796875 69.861328125 c 1
 349.216796875 70.14453125 l 1
 349.197265625 65.4921875 344.797851562 66.220703125 342.513671875 64.310546875 c 0
 342.282226562 64.1123046875 341.185546875 64.658203125 341.185546875 64.658203125 c 2
 341.20703125 68.2509765625 339.806640625 69.3193359375 338.19140625 69.794921875 c 0
 336.54296875 70.2802734375 334.625976562 70.1875 333.373046875 71.408203125 c 0
 329.7890625 74.9072265625 329.298828125 77.8349609375 332.0546875 80.33203125 c 0
 333.666992188 81.7900390625 371.620117188 90.697265625 371.544921875 93.990234375 c 0
 371.505859375 95.666015625 373.232421875 95.435546875 374.458984375 95.67578125 c 0
 376.901367188 96.1484375 379.185546875 97.0283203125 381.689453125 97.46875 c 0
 386.154296875 98.259765625 388.349609375 101.7890625 387.826171875 106.53515625 c 0
 387.395507812 110.388671875 388.932617188 110.786132812 391.61328125 110.58203125 c 0
 395.749023438 110.262695312 398.672851562 111.91015625 400.69921875 114.638671875 c 0
 401.282226562 115.415039062 401.725585938 116.444335938 400.802734375 117.826171875 c 0
 399.631835938 119.58203125 398.00390625 119.92578125 396.689453125 119.873046875 c 0x70
 394.606445312 119.784179688 392.678710938 119.518554688 391.162109375 118.623046875 c 0
 371.592773438 118.8359375 333.2265625 123.172851562 289.375 139.25 c 0
 288.899414062 139.30078125 304.9453125 128.999023438 287.953125 139.302734375 c 0
 286.47265625 139.241210938 284.732421875 140.348632812 283.599609375 138.724609375 c 0
 281.744140625 136.075195312 281.192382812 143.016601562 279.763671875 139.646484375 c 0
 278.150390625 135.837890625 277.366210938 139.751953125 276.18359375 139.67578125 c 0
 275.407226562 139.634765625 274.693359375 139.18359375 273.927734375 138.82421875 c 0
 271.979492188 137.905273438 269.7734375 136.775390625 268.0234375 137.3984375 c 0
 267.4609375 137.598632812 266.9453125 137.606445312 266.4296875 137.60546875 c 0
 265.6171875 137.340820312 264.91796875 137.115234375 264.037109375 136.8515625 c 0
 262.856445312 135.987304688 261.729492188 134.450195312 260.607421875 132.17578125 c 1
 259.431640625 132.918945312 259.85546875 134.372070312 260.189453125 135.740234375 c 1
 253.299804688 133.951171875 246.6953125 132.94921875 240.90625 132.693359375 c 0
 235.331054688 132.446289062 231.274414062 132.9453125 230.41796875 133.650390625 c 0
 229.97265625 134.015625 226.041015625 133.530273438 219.38671875 133.392578125 c 0
 212.060546875 133.2734375 197.431640625 117.711914062 184.7265625 120.98828125 c 0
 174.774414062 123.481445312 162.940429688 128.26953125 153.64453125 137.25 c 0
 145.012695312 145.33203125 144.03515625 162.650390625 142.08203125 177.427734375 c 0
 140.340820312 188.625976562 142.478515625 198.133789062 146.541015625 207.4453125 c 1
 163.904296875 217.146484375 l 1
 175 234 l 1
 180.921875 257.669921875 l 1
 190.908203125 273.232421875 l 1
 193.192382812 270.340820312 195.40625 267.396484375 197.53515625 264.38671875 c 0
 203.081054688 256.208007812 208.497070312 247.94140625 214.025390625 239.751953125 c 0
 218.368164062 233.3671875 222.5625 226.877929688 227.232421875 220.72265625 c 0
 231.063476562 215.672851562 231.924804688 214.797851562 236.009765625 210.00390625 c 0
 243.776367188 201.313476562 252.193359375 193.237304688 260.947265625 185.5546875 c 0
 267.694335938 179.712890625 274.9296875 174.486328125 282.29296875 169.4609375 c 0
 288.786132812 164.995117188 295.548828125 160.954101562 302.494140625 157.23828125 c 0
 307.56640625 154.571289062 312.823242188 152.286132812 318.140625 150.16015625 c 0
 321.416015625 148.8515625 328.759765625 145.641601562 332.14453125 144.666015625 c 0
 333.1796875 144.796875 333.264648438 144.811523438 334.25390625 144.9375 c 0
 334.760742188 144.935546875 335.428710938 145.028320312 336.208984375 145.189453125 c 0
 336.453125 145.219726562 336.510742188 145.228515625 336.751953125 145.259765625 c 0
 412.647460938 136.25 428.958007812 137.495117188 432.3828125 138.36328125 c 0
 435.978515625 137.478515625 439.609375 136.721679688 443.265625 136.10546875 c 1
 412.73828125 196.3125 l 2
 409.826171875 198.428710938 407.950195312 201.611328125 405.88671875 204.4921875 c 0
 400.828125 209.828125 397.844726562 218.333007812 393.541015625 225.08984375 c 0
 388.498046875 233.077148438 383.455078125 241.083007812 377.8828125 248.71484375 c 0
 373.954101562 253.883789062 377.495117188 266.322265625 373.404296875 271.36328125 c 0
 370.694335938 274.743164062 367.943359375 278.103515625 365.5 281.685546875 c 0
 362.747070312 286.069335938 360.352539062 290.659179688 358.16015625 295.34765625 c 0
 355.110351562 301.879882812 352.271484375 308.501953125 349.5 315.158203125 c 0
 346.278320312 322.51171875 342.849609375 329.770507812 339.333984375 336.98828125 c 0
 336.534179688 342.887695312 333.749023438 348.796875 331.318359375 354.861328125 c 0
 329.788085938 358.43359375 328.802734375 360.880859375 326.96484375 364.44140625 c 0
 322.936523438 372.244140625 317.77734375 379.399414062 311.443359375 385.5 c 0
 309.625976562 387.043945312 307.859375 388.651367188 305.990234375 390.1328125 c 0
 300.16796875 394.747070312 293.397460938 398.080078125 286.548828125 400.8515625 c 0
 284.926757812 401.407226562 283.323242188 402.017578125 281.68359375 402.51953125 c 0
 274.365234375 404.756835938 266.716796875 405.6953125 259.078125 405.626953125 c 2
 259.076171875 405.626953125 l 2x90
141.486328125 325.44140625 m 1
 141.790039062 325.198242188 142.989257812 323.966796875 143.50390625 323.4921875 c 0
 143.502929688 323.486328125 143.50390625 323.48046875 143.50390625 323.474609375 c 1
 142.974609375 323.970703125 141.908203125 325.0703125 141.490234375 325.44140625 c 2
 141.486328125 325.44140625 l 1
259.658203125 322.537109375 m 0
 260.125 322.57421875 260.596679688 322.578125 261.001953125 322.5 c 0
 261.48046875 322.1875 260.466796875 322.326171875 259.4296875 322.509765625 c 1
 259.509765625 322.517578125 259.578125 322.530273438 259.658203125 322.537109375 c 0
314.88671875 122.712890625 m 1
 314.5546875 122.323242188 314.243164062 121.876953125 313.978515625 121.294921875 c 0
 313.420898438 120.064453125 312.54296875 121.323242188 311.841796875 122.103515625 c 1
 312.89453125 122.313476562 313.814453125 122.499023438 314.88671875 122.712890625 c 1
300.56640625 119.845703125 m 1
 300.501953125 119.796875 300.42578125 119.783203125 300.361328125 119.732421875 c 0
 299.08203125 118.71875 298.000976562 118.6640625 296.46875 118.90625 c 0
 296.32421875 118.928710938 296.188476562 118.921875 296.044921875 118.939453125 c 1
 297.341796875 119.205078125 299.17578125 119.5625 300.56640625 119.845703125 c 1
396.81640625 119.048828125 m 0x30
 397.452148438 119.1015625 397.721679688 119.077148438 397.57421875 118.96484375 c 0
 397.244140625 118.711914062 395.709960938 118.595703125 393.3515625 118.578125 c 1
 394.848632812 118.807617188 396.123046875 118.990234375 396.81640625 119.048828125 c 0x30
390.44921875 118.083984375 m 1
 390.295898438 117.95703125 390.116210938 117.870117188 389.974609375 117.724609375 c 0
 387.715820312 115.365234375 384.513671875 114.322265625 380.328125 115.73046875 c 0
 379.735351562 115.9296875 379.237304688 115.955078125 378.720703125 116.013671875 c 1
 383.383789062 116.866210938 387.366210938 117.576171875 390.44921875 118.083984375 c 1
285.970703125 116.83984375 m 1
 284.778320312 116.387695312 283.583984375 115.9453125 282.3671875 115.634765625 c 0
 280.868164062 115.255859375 279.427734375 114.778320312 277.830078125 114.9375 c 0
 277.415039062 114.974609375 281.013671875 115.780273438 285.970703125 116.83984375 c 1
329.482421875 110.47265625 m 1
 328.938476562 108.391601562 328.298828125 106.3828125 325.541015625 109.703125 c 1
 326.979492188 109.984375 328.043945312 110.19140625 329.482421875 110.47265625 c 1
323.109375 109.216796875 m 1
 322.986328125 109.141601562 322.88671875 109.012695312 322.728515625 109.0234375 c 0
 322.587890625 109.033203125 322.448242188 109.04296875 322.306640625 109.0546875 c 1
 322.598632812 109.111328125 322.817382812 109.159179688 323.109375 109.216796875 c 1
417.138671875 69.8984375 m 0
 417.9765625 69.8349609375 418.942382812 69.3271484375 419.779296875 69.3046875 c 1
 419.478515625 67.7724609375 419.466796875 65.841796875 417.15625 66.14453125 c 0
 415.961914062 66.3076171875 415.112304688 67.7158203125 415.513671875 68.732421875 c 0
 415.735351562 69.3056640625 416.01953125 69.623046875 416.3515625 69.779296875 c 0
 416.59375 69.8916015625 416.859375 69.9189453125 417.138671875 69.8984375 c 0
324.5234375 65.609375 m 0
 325.180664062 65.4833984375 325.856445312 64.845703125 326.224609375 63.931640625 c 0
 326.829101562 62.443359375 325.880859375 62.10546875 325.130859375 61.701171875 c 0
 323.72265625 60.9365234375 322.2734375 60.2529296875 320.556640625 59.947265625 c 0
 319.328125 59.734375 317.956054688 59.712890625 316.375 60.001953125 c 1
 316.963867188 61.9345703125 317.8203125 63.03125 318.8203125 63.72265625 c 0
 319.1015625 63.9189453125 319.393554688 64.083984375 319.693359375 64.224609375 c 0
 321.0546875 64.8623046875 322.578125 65.021484375 323.884765625 65.556640625 c 0
 324.086914062 65.63671875 324.3046875 65.6513671875 324.5234375 65.609375 c 0
EndSplineSet
EndChar

StartChar: uni03BC
Encoding: 19 956 19
Width: 700
VWidth: 824
GlyphClass: 1
Flags: MW
HStem: 8.88281 75.168 40.9336 83.1465
VStem: 160.75 138.01
LayerCount: 2
Fore
SplineSet
253.712890625 339.3359375 m 0x60
 247.734375 340.05859375 241.88671875 336.817382812 236.265625 334.658203125 c 0
 233.361328125 333.541992188 230.909179688 331.46875 228.412109375 329.61328125 c 0
 223.805664062 326.189453125 220.213867188 321.6796875 216.69921875 317.216796875 c 0
 210.497070312 308.845703125 205.697265625 299.5703125 201.208984375 290.203125 c 0
 196.362304688 279.981445312 192.8359375 269.23046875 189.6484375 258.400390625 c 0
 187.288085938 250.080078125 185.404296875 241.637695312 183.28515625 233.255859375 c 0
 181.916992188 227.493164062 180.0078125 221.895507812 177.947265625 216.3515625 c 0
 174.787109375 208.228515625 171.858398438 200.020507812 169.0703125 191.763671875 c 0
 165.592773438 181.82421875 163.455078125 171.51953125 161.8671875 161.1328125 c 0
 160.912109375 153.619140625 160.384765625 146.034179688 160.75 138.458984375 c 0
 160.963867188 134.000976562 161.247070312 132.290039062 161.7265625 128.58984375 c 0
 161.627929688 128.46875 161.543945312 128.336914062 161.4453125 128.216796875 c 0
 157.022460938 122.943359375 152.517578125 117.72265625 147.57421875 112.92578125 c 0
 145.067382812 110.466796875 142.631835938 107.869140625 139.896484375 105.673828125 c 0
 135.889648438 103.153320312 131.366210938 101.557617188 127 99.794921875 c 0
 120.811523438 97.388671875 114.69140625 94.81640625 108.5546875 92.283203125 c 0
 103.749023438 90.3662109375 98.939453125 88.4326171875 93.939453125 87.0703125 c 0
 90.6513671875 86.2021484375 87.3623046875 85.3037109375 83.98828125 84.83203125 c 0
 82.2822265625 84.8076171875 80.607421875 84.8564453125 78.90625 84.984375 c 0
 78.4697265625 85.0166015625 78.0341796875 85.0576171875 77.59765625 85.09375 c 0
 77.3837890625 85.111328125 77.1064453125 85.1923828125 76.955078125 85.146484375 c 0
 76.3994140625 85.38671875 75.5693359375 85.720703125 75.56640625 85.90625 c 0
 72.267578125 88.2333984375 69.1884765625 90.822265625 66.458984375 93.8125 c 0
 64.2314453125 96.25 62.01171875 98.6982421875 60.18359375 101.45703125 c 0
 60.1591796875 101.482421875 60.1376953125 101.4921875 60.111328125 101.533203125 c 0
 45.712890625 152.97265625 -6.0830078125 132.3046875 5.98046875 76.505859375 c 0
 7.6123046875 68.7099609375 11.212890625 61.62890625 15.29296875 54.865234375 c 0
 19.671875 47.7939453125 25.017578125 41.4248046875 30.5546875 35.24609375 c 0
 37.1611328125 27.9169921875 45.025390625 28.8193359375 52.96875 23 c 0
 59.1611328125 18.6298828125 65.71875 14.724609375 72.8046875 11.9765625 c 0
 74.431640625 11.345703125 75.0068359375 9.7275390625 76.654296875 9.150390625 c 0
 87.0009765625 6 79.2333984375 7.6591796875 89.986328125 7.513671875 c 0
 100.7109375 7.541015625 105.000976562 11.23046875 115.326171875 13.91015625 c 0
 123.654296875 16.095703125 131.706054688 19.146484375 139.6953125 22.326171875 c 0
 145.62109375 24.7373046875 149.678710938 25.4365234375 155.64453125 27.75 c 0
 163.985351562 30.80859375 171.9921875 34.6328125 179.736328125 38.96875 c 0
 189.006835938 44.2294921875 194.90625 48.3046875 202.47265625 55.703125 c 0
 209.344726562 62.369140625 213.102539062 54.642578125 219.265625 61.9609375 c 0
 219.286132812 61.9853515625 219.3203125 62.044921875 219.341796875 62.0703125 c 0
 219.418945312 62.0380859375 219.532226562 61.96484375 219.609375 61.93359375 c 0
 226.736328125 59.11328125 225.798828125 60.904296875 233.208984375 59.009765625 c 0
 239.6875 57.2451171875 245.344726562 59.5302734375 251.76953125 57.580078125 c 0
 258.341796875 55.548828125 265.036132812 53.9658203125 271.783203125 52.642578125 c 0
 274.889648438 52.251953125 277.881835938 51.392578125 280.908203125 50.63671875 c 0
 285.51171875 49.4931640625 290.143554688 48.466796875 294.787109375 47.498046875 c 0
 300.739257812 46.2890625 306.690429688 45.0732421875 312.64453125 43.869140625 c 0
 320.288085938 42.21875 328.051757812 41.36328125 335.849609375 40.92578125 c 0
 341.950195312 40.5859375 348.055664062 40.9072265625 354.158203125 40.93359375 c 0x60
 360.770507812 40.8505859375 367.381835938 40.6533203125 373.99609375 40.62890625 c 0
 382.098632812 40.5234375 390.168945312 41.0546875 398.1953125 42.130859375 c 0
 406.296875 43.345703125 414.303710938 45.0302734375 422.24609375 47.025390625 c 0
 429.5859375 48.9208984375 436.732421875 51.419921875 443.822265625 54.08203125 c 1
 447.89453125 49.5244140625 452.42578125 45.3876953125 457.392578125 41.71875 c 0
 461.203125 38.9033203125 462.764648438 38.0908203125 466.8515625 35.619140625 c 0
 474.471679688 31.2080078125 482.470703125 27.564453125 490.681640625 24.412109375 c 0
 499.576171875 21.041015625 508.696289062 18.423828125 518.00390625 16.490234375 c 0
 527.349609375 14.9091796875 536.814453125 14.2607421875 546.212890625 13.052734375 c 0
 557.71484375 11.3232421875 569.250976562 9.9013671875 580.837890625 8.8828125 c 0
 592.564453125 7.888671875 604.341796875 7.9287109375 616.099609375 8.109375 c 0
 627.076171875 8.2314453125 638.024414062 8.962890625 648.921875 10.2578125 c 0
 655.927734375 11.15625 662.837890625 12.6220703125 669.728515625 14.150390625 c 0
 676.356445312 15.6748046875 765.270507812 39.072265625 771.861328125 40.7548828125 c 0
 780.455078125 43.0361328125 789.02734375 45.390625 797.634765625 47.6220703125 c 0
 801.7109375 49.193359375 806.854492188 48.58203125 810.71875 50.6572265625 c 0
 817.39453125 54.2431640625 823.524414062 58.7626953125 829.927734375 62.8154296875 c 0
 870.203125 105.650390625 768.392578125 108.291992188 768.392578125 108.291992188 c 1
 755.953125 106.377929688 l 2
 749.770507812 105.426757812 744.305664062 103.905273438 749.96875 107.057617188 c 1
 741.450195312 104.84765625 676.500976562 90.2734375 668 88 c 0
 662.2734375 86.53125 656.521484375 85.1796875 650.763671875 83.84375 c 0
 646.5 82.8974609375 642.233398438 81.9365234375 637.908203125 81.314453125 c 0
 629.921875 80.298828125 621.880859375 79.890625 613.833984375 79.763671875 c 0
 604.916992188 79.6201171875 595.981445312 79.5224609375 587.083984375 80.236328125 c 0
 576.60546875 81.134765625 566.1875 82.515625 555.78515625 84.05078125 c 0xa0
 548.283203125 85.0029296875 541.72265625 97.255859375 534.205078125 98.044921875 c 0
 529.46875 98.8291015625 524.958984375 100.522460938 520.431640625 102.0703125 c 1
 520.624023438 102.263671875 520.826171875 102.447265625 521.01953125 102.640625 c 0
 529.491210938 111.16796875 535.828125 120.709960938 541.658203125 131.142578125 c 0
 545.53125 138.436523438 549.318359375 145.776367188 553.111328125 153.111328125 c 0
 557.533203125 161.376953125 561.418945312 169.885742188 564.814453125 178.619140625 c 0
 568.458984375 188.420898438 571.59765625 198.396484375 574.60546875 208.408203125 c 0
 578.377929688 220.47265625 577.280273438 225.231445312 579.296875 237.697265625 c 0
 580.995117188 249.854492188 581.936523438 262.09765625 582.87109375 274.33203125 c 0
 583.259765625 279.670898438 583.606445312 285.01171875 583.884765625 290.357421875 c 0
 585.30078125 319.48046875 564.961914062 321.40625 524.3984375 330.953125 c 0
 518.469726562 332.348632812 503.248046875 324.55078125 499.21875 318.63671875 c 0
 494.783203125 311.997070312 491.201171875 304.84375 487.447265625 297.810546875 c 0
 483.455078125 290.099609375 482.57421875 290.362304688 477.576171875 283.2734375 c 0
 471.25 274.740234375 464.456054688 266.575195312 458.015625 258.12890625 c 0
 449.879882812 247.350585938 442.291992188 236.19140625 435.2578125 224.66796875 c 0
 428.514648438 213.637695312 429.3984375 196.881835938 425.1015625 184.70703125 c 0
 421.327148438 173.87109375 420.103515625 162.470703125 419.291015625 151.099609375 c 0
 418.857421875 145.26171875 418.866210938 139.426757812 419.087890625 133.599609375 c 1
 413.3984375 131.336914062 407.658203125 129.194335938 401.740234375 127.607421875 c 0
 396.765625 126.313476562 391.73828125 125.297851562 386.6640625 124.4765625 c 0
 382.557617188 123.825195312 378.401367188 123.784179688 374.25 123.779296875 c 0
 367.321289062 123.794921875 360.3984375 124.06640625 353.470703125 124.080078125 c 0
 349.000976562 124.033203125 344.529296875 123.849609375 340.060546875 123.96875 c 0
 336.376953125 124.09765625 332.728515625 124.587890625 329.125 125.369140625 c 0
 323.309570312 126.543945312 317.497070312 127.735351562 311.68359375 128.9140625 c 0
 308.060546875 129.66015625 304.452148438 130.471679688 300.861328125 131.357421875 c 0
 296.467773438 132.416015625 292.104492188 133.624023438 287.623046875 134.26953125 c 0
 283.670898438 135.020507812 279.755859375 135.955078125 275.912109375 137.1484375 c 0
 273.620117188 137.84375 271.313476562 138.48828125 269.025390625 139.197265625 c 1
 271.005859375 143.453125 272.891601562 147.752929688 274.7734375 152.05078125 c 0
 278.471679688 160.172851562 281.846679688 168.419921875 284.71484375 176.87109375 c 0
 287.75 186.235351562 289.486328125 195.931640625 290.943359375 205.64453125 c 0
 292.234375 214.703125 293.353515625 223.783203125 294.380859375 232.875 c 0
 295.508789062 243.1640625 296.505859375 253.467773438 297.36328125 263.783203125 c 0
 298.087890625 272.450195312 298.610351562 281.133789062 298.759765625 289.830078125 c 0
 298.60546875 294.779296875 298.780273438 299.908203125 297.568359375 304.759765625 c 0
 296.818359375 307.760742188 296.34375 310.934570312 294.8046875 313.6171875 c 0
 291.666992188 319.083984375 287.401367188 323.8203125 283.701171875 328.921875 c 0
 273.705078125 332.393554688 264.217773438 338.065429688 253.712890625 339.3359375 c 0x60
215.51171875 292.41015625 m 0
 215.5078125 292.447265625 215.534179688 292.337890625 215.541015625 292.30078125 c 0
 215.553710938 292.231445312 215.544921875 292.17578125 215.552734375 292.119140625 c 1
 215.541015625 292.213867188 215.522460938 292.315429688 215.51171875 292.41015625 c 0
60.30078125 100.873046875 m 1
 60.3603515625 100.719726562 60.421875 100.565429688 60.4765625 100.41015625 c 0
 60.7451171875 99.646484375 60.951171875 98.943359375 61.146484375 98.154296875 c 0
 61.2451171875 97.75390625 61.326171875 97.349609375 61.416015625 96.947265625 c 1
 61.1064453125 98.3759765625 60.6611328125 99.5400390625 60.30078125 100.873046875 c 1
EndSplineSet
EndChar

StartChar: alpha
Encoding: 20 945 20
Width: 470
VWidth: 824
GlyphClass: 1
Flags: W
LayerCount: 2
Fore
SplineSet
391.466796875 347.560546875 m 1
 350.302734375 342.072265625 l 1
 325.60546875 317.375 l 1
 313.44140625 306.42578125 l 1
 295.41796875 265.234375 l 1
 267.9765625 240.537109375 l 1
 243.279296875 235.048828125 l 1
 227.724609375 246.158203125 l 1
 227.162109375 245.275390625 l 1
 225.712890625 247.595703125 l 1
 224.068359375 248.76953125 l 1
 224.162109375 250.076171875 l 1
 213.421875 267.26171875 l 1
 185.939453125 283.75 l 1
 136.474609375 289.24609375 l 1
 70.517578125 281.001953125 l 1
 34.79296875 256.267578125 l 1
 15.556640625 212.298828125 l 1
 7.310546875 165.580078125 l 1
 15.556640625 99.625 l 1
 37.541015625 61.150390625 l 1
 76.015625 19.927734375 l 1
 119.984375 17.1796875 l 1
 174.947265625 30.921875 l 1
 205.177734375 55.654296875 l 1
 243.650390625 61.150390625 l 1
 273.880859375 63.8984375 l 1
 277.78515625 62.43359375 l 1
 281.697265625 51.185546875 l 1
 320.1171875 21 l 1
 407.931640625 1.7890625 l 1
 482.025390625 1.7890625 l 1
 472.22265625 110.7265625 l 1
 409.744140625 90.251953125 l 1
 375 139 l 1
 377.744140625 171.931640625 l 1
 385.595703125 209.611328125 l 1
 386.5546875 212.298828125 l 1
 386.3828125 213.390625 l 1
 391.466796875 237.79296875 l 1
 416.1640625 284.443359375 l 1
 410.67578125 331.095703125 l 1
 391.466796875 347.560546875 l 1
158.458984375 206.802734375 m 1
 185.939453125 204.052734375 l 1
 216.169921875 184.81640625 l 1
 216.169921875 146.34375 l 1
 194.185546875 127.10546875 l 1
 166.703125 99.625 l 1
 108.9921875 102.373046875 l 1
 95.251953125 127.10546875 l 1
 92.50390625 154.587890625 l 1
 119.984375 193.060546875 l 1
 144.71875 201.3046875 l 1
 158.458984375 206.802734375 l 1
EndSplineSet
EndChar

StartChar: Pi
Encoding: 21 928 21
Width: 600
VWidth: 824
GlyphClass: 1
Flags: MW
HStem: 294.229 84.2188 319.934 56.5273
LayerCount: 2
Fore
SplineSet
-1.169921875 378.447265625 m 1x80
 -8.3203125 294.228515625 l 1x80
 189.4296875 304.416015625 l 1
 199.408203125 300.76171875 l 1
 200.1953125 276.625 l 1
 175.0390625 213.41015625 l 1
 155.921875 169.47265625 l 1
 120.650390625 138.951171875 l 1
 104.474609375 116.3828125 l 1
 99.904296875 88.900390625 l 1
 107.9921875 59.90625 l 1
 135.19921875 41.77734375 l 1
 166.185546875 39.634765625 l 1
 192.33984375 61.31640625 l 1
 190.712890625 84.408203125 l 1
 205.05078125 111.626953125 l 1
 246.361328125 156.986328125 l 1
 304.5546875 276.833984375 l 1
 319.154296875 289.83984375 l 1
 334.857421875 304.103515625 l 1
 372.357421875 300.8125 l 1
 408.28125 299.71484375 l 1
 405.91796875 248.099609375 l 1
 388.4296875 177.779296875 l 1
 365.740234375 122.0859375 l 1
 354.60546875 76.634765625 l 1
 359.384765625 41.47265625 l 1
 385.908203125 13.15625 l 1
 421.990234375 1.923828125 l 1
 470.623046875 7.828125 l 1
 503.763671875 36.14453125 l 1
 513.689453125 62.4765625 l 1
 507.3359375 83.060546875 l 1
 474.037109375 129.244140625 l 1
 472.93359375 149.775390625 l 1
 472.93359375 149.775390625 490.791992188 177.466796875 491.421875 181.384765625 c 0
 492.052734375 185.302734375 497.93359375 228.61328125 497.93359375 228.61328125 c 1
 501.71484375 267.482421875 l 1
 504.76171875 291.56640625 l 1
 511.95703125 292.296875 l 1
 516.619140625 304.833984375 l 1
 534.6875 315.962890625 l 1
 597.7109375 319.93359375 l 1
 637.888671875 319.986328125 l 1
 681.75 312.920898438 l 1
 697.873046875 336.274414062 l 1
 689.9375 363.765625 l 1
 691.091796875 376.095703125 l 1
 634.107421875 376.4609375 l 1x40
 440.044921875 373.953125 l 1
 -1.169921875 378.447265625 l 1x80
EndSplineSet
EndChar

StartChar: uniE023
Encoding: 22 57379 22
Width: 598
VWidth: 824
GlyphClass: 1
Flags: W
LayerCount: 2
Fore
SplineSet
727.728515625 619.229492188 m 1
 554.068359375 554.96875 l 1
 463.423828125 460.7421875 l 1
 402.509765625 520.09765625 l 1
 341.802734375 563.91015625 l 1
 277.0859375 558.61328125 l 1
 210.849609375 536.810546875 l 1
 171.369140625 491.830078125 l 1
 158.30078125 416.380859375 l 1
 160.4453125 333.572265625 l 1
 171.298828125 287.146484375 l 1
 192.25 243.12890625 l 1
 252.263671875 226.62109375 l 1
 310.205078125 218.78125 l 1
 411.84375 270.5703125 l 1
 411.705078125 257.158203125 l 1
 416.4765625 207.2265625 l 1
 400.40625 165.81640625 l 1
 362.654296875 123.517578125 l 1
 324 92 l 1
 289.080078125 82.8515625 l 1
 240.509765625 79.505859375 l 1
 197.603515625 117.328125 l 1
 153.51953125 149.99609375 l 1
 75.5625 233.719726562 l 1
 40.162109375 241.491210938 l 1
 12.8515625 234.612304688 l 1
 10.638671875 218.793945312 l 1
 10.638671875 218.793945312 -5.677734375 145.063476562 -1.736328125 139.905273438 c 0
 2.2041015625 134.747070312 45.486328125 109.436523438 45.486328125 109.436523438 c 1
 82.892578125 110.055664062 l 1
 164.248046875 37.962890625 l 1
 270.310546875 -1.515625 l 1
 355.423828125 8.6640625 l 1
 397.046875 31.361328125 l 1
 453.12109375 83.5625 l 1
 507.189453125 143.67578125 l 1
 529.869140625 229.029296875 l 1
 520.326171875 330.408203125 l 1
 536.3671875 400.35546875 l 1
 536.3671875 400.35546875 601.706054688 481.58203125 610.072265625 485.08984375 c 0
 618.4375 488.596679688 759.1953125 577.848632812 759.1953125 577.848632812 c 1
 727.728515625 619.229492188 l 1
327.701171875 478.373046875 m 1
 366.90234375 454.001953125 l 1
 389.994140625 430.2734375 l 1
 385.580078125 398.400390625 l 1
 381.744140625 380.94140625 l 1
 354.361328125 357.626953125 l 1
 326.45703125 334.630859375 l 1
 302.552734375 318.28515625 l 1
 271.4453125 317.654296875 l 1
 255.54296875 338.28125 l 1
 260.140625 372.580078125 l 1
 259.462890625 419.732421875 l 1
 270.244140625 446.810546875 l 1
 303.15625 474.796875 l 1
 327.701171875 478.373046875 l 1
EndSplineSet
EndChar

StartChar: eta
Encoding: 23 951 23
Width: 500
VWidth: 824
GlyphClass: 1
Flags: W
LayerCount: 2
Fore
SplineSet
76.107421875 337.02734375 m 1
 46.6923828125 251.7890625 l 1
 23.6708984375 169.094726562 l 1
 7.8974609375 96.4931640625 l 1
 27.1669921875 32.54296875 l 1
 63.9150390625 0.73828125 l 1
 126.2421875 9.134765625 l 1
 165.462890625 34.2392578125 l 1
 226 73 l 1
 285.2578125 108.11328125 l 1
 318.680664062 128.553710938 l 1
 337.779296875 128.383789062 l 1
 345.793945312 82.0751953125 l 1
 369.071289062 33.0517578125 l 1
 404.880859375 -2.4853515625 l 1
 455.271484375 -25.2998046875 l 1
 518.657226562 2.744140625 l 1
 556.172851562 35.65234375 l 1
 555.405273438 58.212890625 l 1
 538.5234375 79.33203125 l 1
 498.194335938 76.7021484375 l 1
 463.372070312 36.10546875 l 1
 448.536132812 47.9794921875 l 1
 443.846679688 108.70703125 l 1
 441.543945312 151.961914062 l 1
 443.079101562 218.7109375 l 1
 425.4296875 265.189453125 l 1
 398.458007812 298.154296875 l 1
 365.359375 301.306640625 l 1
 329.108398438 296.578125 l 1
 305.465820312 261.903320312 l 1
 280.248046875 222.5 l 1
 229.811523438 173.639648438 l 1
 188.83203125 140.540039062 l 1
 146.276367188 116.8984375 l 1
 116.329101562 110.59375 l 1
 103.720703125 132.66015625 l 1
 113.176757812 181.520507812 l 1
 163.61328125 315.4921875 l 1
 209.321289062 413.211914062 l 1
 231.387695312 468.376953125 l 1
 242.420898438 526.694335938 l 1
 243.997070312 577.130859375 l 1
 232.963867188 621.262695312 l 1
 203.016601562 627.567382812 l 1
 155.732421875 621.262695312 l 1
 114.752929688 581.859375 l 1
 64.3173828125 465.224609375 l 1
 48.5556640625 392.72265625 l 1
 56.4365234375 348.590820312 l 1
 76.107421875 337.02734375 l 1
EndSplineSet
EndChar

StartChar: sigma
Encoding: 24 963 24
Width: 473
VWidth: 824
GlyphClass: 1
Flags: W
LayerCount: 2
Fore
SplineSet
107.650390625 301.359375 m 1
 56.263671875 285.208984375 l 1
 21.02734375 229.419921875 l 1
 4.876953125 179.5 l 1
 -2.462890625 125.177734375 l 1
 10.75 76.728515625 l 1
 37.177734375 37.087890625 l 1
 77.380859375 23.810546875 l 1
 118.490234375 9.12890625 l 1
 166.939453125 1.787109375 l 1
 215.388671875 12.064453125 l 1
 253 18 l 1
 292.640625 57.640625 l 1
 313.1953125 92.87890625 l 1
 313.1953125 132.51953125 l 1
 307.322265625 180.96875 l 1
 322.00390625 189.77734375 l 1
 349.900390625 201.5234375 l 1
 414.5 204.458984375 l 1
 514.3359375 207.396484375 l 1
 578.9375 205.927734375 l 1
 589.21484375 220.609375 l 1
 593.619140625 244.1015625 l 1
 580.404296875 276.400390625 l 1
 549.572265625 274.93359375 l 1
 489.376953125 273.46484375 l 1
 386.60546875 271.99609375 l 1
 291.173828125 270.52734375 l 1
 226.572265625 270.52734375 l 1
 203.08203125 291.08203125 l 1
 151.6953125 299.892578125 l 1
 107.650390625 301.359375 l 1
147.291015625 207.396484375 m 1
 178.123046875 201.5234375 l 1
 197.208984375 189.77734375 l 1
 216.294921875 175.095703125 l 1
 226.572265625 147.201171875 l 1
 223.63671875 120.7734375 l 1
 204.55078125 103.154296875 l 1
 185.462890625 84.068359375 l 1
 160.50390625 70.85546875 l 1
 134.078125 70.85546875 l 1
 113.5234375 73.791015625 l 1
 100.30859375 81.1328125 l 1
 85.626953125 111.96484375 l 1
 81.22265625 131.05078125 l 1
 91.5 163.3515625 l 1
 107.650390625 188.310546875 l 1
 126.736328125 197.119140625 l 1
 147.291015625 207.396484375 l 1
EndSplineSet
EndChar

StartChar: beta
Encoding: 25 946 25
Width: 588
VWidth: 824
GlyphClass: 1
Flags: MW
HStem: -15.248 105.361
LayerCount: 2
Fore
SplineSet
454.74609375 300.833984375 m 1
 420.232421875 299.017578125 l 1
 389.349609375 297.201171875 l 1
 373.001953125 288.1171875 l 1
 367.55078125 255.419921875 l 1
 343.935546875 177.306640625 l 1
 313.0546875 124.626953125 l 1
 292.146484375 112.796875 l 1
 266.71484375 103.71484375 l 1
 235.833984375 100.08203125 l 1
 194.052734375 100.08203125 l 1
 172.25390625 101.8984375 l 1
 164.98828125 118.248046875 l 1
 171.36328125 133.708984375 l 1
 193.162109375 171.857421875 l 1
 211.326171875 215.455078125 l 1
 220.41015625 253.603515625 l 1
 218.59375 266.318359375 l 1
 198.611328125 288.1171875 l 1
 165.912109375 293.568359375 l 1
 125.94921875 293.568359375 l 1
 85.984375 293.568359375 l 1
 60.552734375 271.76953125 l 1
 29.669921875 271.76953125 l 1
 2.421875 273.5859375 l 1
 -1.2109375 233.62109375 l 1
 2.421875 213.638671875 l 1
 20.587890625 215.455078125 l 1
 49.65234375 215.455078125 l 1
 64.185546875 199.10546875 l 1
 66.001953125 177.306640625 l 1
 64.185546875 144.609375 l 1
 53.28515625 108.27734375 l 1
 53.28515625 68.314453125 l 1
 73.267578125 37.431640625 l 1
 102.333984375 15.6328125 l 1
 144.11328125 1.1015625 l 1
 200.427734375 6.55078125 l 1
 238.576171875 8.3671875 l 1
 287.623046875 24.716796875 l 1
 311.23828125 39.248046875 l 1
 327.587890625 39.248046875 l 1
 353.01953125 26.533203125 l 1
 382.083984375 4.734375 l 1
 407.515625 -11.615234375 l 1
 451.11328125 -15.248046875 l 1
 492.89453125 -15.248046875 l 1
 549.208984375 -6.166015625 l 1
 594.623046875 -2.533203125 l 1
 650.935546875 12 l 1
 689.083984375 22.900390625 l 1
 721.78125 33.798828125 l 1
 729.048828125 51.96484375 l 1
 719.96484375 84.662109375 l 1
 710.8828125 101.01171875 l 1
 681.818359375 101.01171875 l 1
 647.302734375 102.828125 l 1
 601.888671875 97.37890625 l 1
 549.208984375 93.74609375 l 1
 505.611328125 90.11328125 l 1
 478.361328125 90.11328125 l 1
 457.44921875 94.65234375 l 1
 452 111 l 1
 452 143.69921875 l 1
 457.44921875 161.865234375 l 1
 467.462890625 195.47265625 l 1
 483.8125 222.720703125 l 1
 485.62890625 269.953125 l 1
 476.544921875 291.751953125 l 1
 454.74609375 300.833984375 l 1
EndSplineSet
EndChar

StartChar: upsilon
Encoding: 26 965 26
Width: 411
VWidth: 824
GlyphClass: 1
Flags: MW
HStem: 1.37109 86.9336<172.355 172.355>
LayerCount: 2
Fore
SplineSet
96.140625 333.62109375 m 1
 74.705078125 322.904296875 l 1
 42.552734375 291.94140625 l 1
 25.87890625 268.123046875 l 1
 10.3984375 253.833984375 l 1
 5.634765625 238.3515625 l 1
 5.634765625 219.298828125 l 1
 11.58984375 202.626953125 l 1
 22.306640625 200.244140625 l 1
 34.21484375 203.818359375 l 1
 46.125 212.154296875 l 1
 52.078125 193.099609375 l 1
 49.697265625 157.375 l 1
 47.314453125 127.603515625 l 1
 49.697265625 91.876953125 l 1
 50.888671875 69.25 l 1
 62.796875 52.578125 l 1
 79.46875 38.2890625 l 1
 110.431640625 20.42578125 l 1
 141.392578125 7.326171875 l 1
 172.35546875 1.37109375 l 1
 204.5078125 0.1796875 l 1
 239.04296875 2.5625 l 1
 273.578125 13.279296875 l 1
 303.349609375 22.806640625 l 1
 331.9296875 34.71484375 l 1
 349.79296875 38.2890625 l 1
 374.80078125 68.060546875 l 1
 389.091796875 88.3046875 l 1
 391.47265625 124.029296875 l 1
 391.47265625 124.029296875 390.283203125 145.465820312 390.283203125 152.611328125 c 0
 390.283203125 159.756835938 401 180 401 180 c 1
 412.908203125 237.162109375 l 1
 415.291015625 270.505859375 l 1
 418.86328125 294.322265625 l 1
 418.86328125 294.322265625 412.91015625 303.848632812 408.146484375 310.994140625 c 0
 403.3828125 318.139648438 389.091796875 312.185546875 389.091796875 312.185546875 c 1
 346.220703125 305.041015625 l 1
 324.78515625 297.89453125 l 1
 315.2578125 274.078125 l 1
 304.541015625 247.87890625 l 1
 293.822265625 206.19921875 l 1
 281.9140625 157.375 l 1
 261.669921875 121.6484375 l 1
 243.806640625 101.404296875 l 1
 219.990234375 88.3046875 l 1
 198.5546875 85.921875 l 1
 198.5546875 85.921875 175.928710938 88.3046875 169.974609375 88.3046875 c 0
 164.020507812 88.3046875 153.30078125 90.685546875 153.30078125 90.685546875 c 1
 147.34765625 125.220703125 l 1
 150.919921875 153.80078125 l 1
 154.4921875 200.244140625 l 1
 166.400390625 212.154296875 l 1
 165.2109375 253.833984375 l 1
 165.2109375 294.322265625 l 1
 165.2109375 324.09375 l 1
 165.2109375 324.09375 154.493164062 330.048828125 148.5390625 330.048828125 c 0
 142.584960938 330.048828125 128.29296875 332.4296875 123.529296875 332.4296875 c 0
 118.765625 332.4296875 96.140625 333.62109375 96.140625 333.62109375 c 1
EndSplineSet
EndChar

StartChar: "+4CgDvQAA"
Encoding: 27 -1 27
Width: 984
VWidth: 824
GlyphClass: 1
Flags: MW
HStem: 5.67188 86.9336<170.391 170.391>
VStem: 890.906 80.9551
LayerCount: 2
Fore
SplineSet
936.185546875 347.001953125 m 1
 910.115234375 345.62890625 l 1
 890.90625 329.1640625 l 1
 886.791015625 283.884765625 l 1
 882.673828125 242.720703125 l 1
 871.697265625 194.697265625 l 1
 851.115234375 154.90625 l 1
 814.068359375 128.8359375 l 1
 785.25390625 119.23046875 l 1
 741.34765625 119.23046875 l 1
 694.6953125 128.8359375 l 1
 683.71875 154.90625 l 1
 689.20703125 189.208984375 l 1
 697.439453125 220.767578125 l 1
 698.810546875 263.302734375 l 1
 702.927734375 286.62890625 l 1
 694.6953125 307.2109375 l 1
 680.974609375 320.931640625 l 1
 641.18359375 319.55859375 l 1
 612.369140625 315.443359375 l 1
 595.904296875 305.837890625 l 1
 587.669921875 264.673828125 l 1
 579.4375 224.8828125 l 1
 564.345703125 191.953125 l 1
 549.251953125 160.39453125 l 1
 517.693359375 137.068359375 l 1
 495.740234375 126.091796875 l 1
 454.576171875 117.859375 l 1
 421.646484375 116.486328125 l 1
 399.69140625 126.091796875 l 1
 388.587890625 149.2265625 l 2
 388.493164062 151.895507812 388.318359375 155.293945312 388.318359375 156.912109375 c 0
 388.318359375 164.057617188 399.03515625 184.30078125 399.03515625 184.30078125 c 1
 410.943359375 241.462890625 l 1
 413.326171875 274.806640625 l 1
 416.8984375 298.623046875 l 1
 416.8984375 298.623046875 410.9453125 308.149414062 406.181640625 315.294921875 c 0
 401.41796875 322.440429688 387.126953125 316.486328125 387.126953125 316.486328125 c 1
 344.255859375 309.341796875 l 1
 322.8203125 302.1953125 l 1
 313.29296875 278.37890625 l 1
 302.576171875 252.1796875 l 1
 291.857421875 210.5 l 1
 279.94921875 161.67578125 l 1
 259.705078125 125.94921875 l 1
 241.841796875 105.705078125 l 1
 218.025390625 92.60546875 l 1
 196.58984375 90.22265625 l 1
 196.58984375 90.22265625 173.963867188 92.60546875 168.009765625 92.60546875 c 0
 162.055664062 92.60546875 151.3359375 94.986328125 151.3359375 94.986328125 c 1
 145.3828125 129.521484375 l 1
 148.955078125 158.1015625 l 1
 152.52734375 204.544921875 l 1
 164.435546875 216.455078125 l 1
 163.24609375 258.134765625 l 1
 163.24609375 298.623046875 l 1
 163.24609375 328.39453125 l 1
 163.24609375 328.39453125 152.528320312 334.349609375 146.57421875 334.349609375 c 0
 140.620117188 334.349609375 126.328125 336.73046875 121.564453125 336.73046875 c 0
 116.80078125 336.73046875 94.17578125 337.921875 94.17578125 337.921875 c 1
 72.740234375 327.205078125 l 1
 40.587890625 296.2421875 l 1
 23.9140625 272.423828125 l 1
 8.43359375 258.134765625 l 1
 3.669921875 242.65234375 l 1
 3.669921875 223.599609375 l 1
 9.625 206.927734375 l 1
 20.341796875 204.544921875 l 1
 32.25 208.119140625 l 1
 44.16015625 216.455078125 l 1
 50.11328125 197.400390625 l 1
 47.732421875 161.67578125 l 1
 45.349609375 131.904296875 l 1
 47.732421875 96.177734375 l 1
 48.923828125 73.55078125 l 1
 60.83203125 56.87890625 l 1
 77.50390625 42.58984375 l 1
 108.466796875 24.7265625 l 1
 139.427734375 11.626953125 l 1
 170.390625 5.671875 l 1
 202.54296875 4.48046875 l 1
 237.078125 6.86328125 l 1
 271.61328125 17.580078125 l 1
 301.384765625 27.107421875 l 1
 329.96484375 39.015625 l 1
 338.078125 40.638671875 l 1
 337.947265625 39.6484375 l 1
 351.66796875 27.30078125 l 1
 369.505859375 24.556640625 l 1
 407.923828125 24.556640625 l 1
 446.34375 25.927734375 l 1
 476.529296875 25.927734375 l 1
 519.064453125 38.27734375 l 1
 558.85546875 45.13671875 l 1
 597.275390625 57.486328125 l 1
 623.345703125 47.880859375 l 1
 639.810546875 39.6484375 l 1
 659.01953125 24.556640625 l 1
 697.439453125 17.6953125 l 1
 741.34765625 17.6953125 l 1
 785.25390625 20.439453125 l 1
 822.30078125 32.7890625 l 1
 860.720703125 46.509765625 l 1
 893.650390625 69.8359375 l 1
 916.9765625 89.044921875 l 1
 944.41796875 128.8359375 l 1
 965 170 l 1
 978.720703125 222.138671875 l 1
 980.09375 272.908203125 l 1
 971.861328125 314.0703125 l 1
 962.255859375 336.0234375 l 1
 936.185546875 347.001953125 l 1
EndSplineSet
Ligature2: "msbarocci102fin1-<1,2> Common Ligatures lookup 0 subtable" uniE028 nu
EndChar

StartChar: tau
Encoding: 28 964 28
Width: 642
VWidth: 824
GlyphClass: 1
Flags: W
LayerCount: 2
Fore
SplineSet
154.111328125 392.62890625 m 1
 99.2265625 383.0234375 l 1
 56.69140625 376.1640625 l 1
 19.64453125 372.046875 l 1
 -9.169921875 352.837890625 l 1
 -24.263671875 339.115234375 l 1
 -9.169921875 314.41796875 l 1
 18.271484375 293.8359375 l 1
 48.458984375 266.39453125 l 1
 78.64453125 238.953125 l 1
 104.71484375 225.23046875 l 1
 126.66796875 225.23046875 l 1
 144.505859375 247.185546875 l 1
 147.25 270.51171875 l 1
 156.85546875 293.8359375 l 1
 185.669921875 300.697265625 l 1
 233.693359375 302.068359375 l 1
 269.3671875 302.068359375 l 1
 299.5546875 299.32421875 l 1
 309.158203125 289.720703125 l 1
 303.669921875 265.021484375 l 1
 298.181640625 208.765625 l 1
 289.94921875 162.115234375 l 1
 284.4609375 112.71875 l 1
 280.34375 70.18359375 l 1
 289.94921875 30.392578125 l 1
 310.53125 7.06640625 l 1
 344.833984375 0.205078125 l 1
 387.369140625 9.810546875 l 1
 438.13671875 38.625 l 1
 444.998046875 57.833984375 l 1
 442.25390625 92.13671875 l 1
 428.53125 101.7421875 l 1
 425.787109375 140.16015625 l 1
 418.927734375 173.091796875 l 1
 409.322265625 185.439453125 l 1
 414.810546875 225.23046875 l 1
 429.904296875 263.650390625 l 1
 429.904296875 288.34765625 l 1
 458.71875 291.091796875 l 1
 525.951171875 288.34765625 l 1
 595.9296875 286.9765625 l 1
 652.185546875 277.37109375 l 1
 681 276 l 1
 698.837890625 273.255859375 l 1
 723.53515625 299.32421875 l 1
 737.255859375 330.8828125 l 1
 711.185546875 348.720703125 l 1
 657.673828125 359.697265625 l 1
 580.8359375 366.55859375 l 1
 509.486328125 373.41796875 l 1
 444.998046875 380.279296875 l 1
 369.53125 385.767578125 l 1
 307.787109375 391.255859375 l 1
 236.4375 392.62890625 l 1
 154.111328125 392.62890625 l 1
EndSplineSet
EndChar

StartChar: "+4DEDwwAA"
Encoding: 29 -1 29
Width: 712
VWidth: 824
GlyphClass: 1
Flags: MW
HStem: 66.0449 53.0332
VStem: 15.0801 99.873
LayerCount: 2
Fore
SplineSet
570.234375 665.4921875 m 1
 519.642578125 651.26171875 l 1
 355.21484375 515.294921875 l 1
 246.125 431.5 l 1
 187.50390625 356.34375 l 1
 182.673828125 356.7734375 l 1
 182.666992188 352.333984375 126.233398438 319.701171875 126.708984375 315.287109375 c 0
 128.352539062 311.004882812 69.740234375 274.549804688 63.955078125 266.265625 c 1
 64.6015625 268.255859375 l 1
 60.451171875 262.473632812 56.6455078125 256.481445312 52.875 250.447265625 c 0
 45.3564453125 238.739257812 38.412109375 226.658203125 32.4296875 214.0859375 c 0
 22.8203125 192.86328125 14.6142578125 170.6796875 15.080078125 147 c 0
 15.189453125 144.1640625 15.3759765625 141.784179688 15.630859375 139.73828125 c 2
 14.576171875 131.83203125 l 1
 35.2109375 88.974609375 l 1
 48.69921875 92.19921875 l 1
 53.537109375 86.6865234375 58.908203125 86.8525390625 67.765625 78.4609375 c 0
 71.2333984375 75.17578125 75.1630859375 72.4140625 78.861328125 69.390625 c 0
 86.484375 64.689453125 89.720703125 62.373046875 98.107421875 58.60546875 c 0
 110.825195312 52.8916015625 124.352539062 59.201171875 138.109375 57.234375 c 0
 146.052734375 56.4091796875 153.041015625 56.51171875 161.2265625 56.630859375 c 0
 172.471679688 56.7939453125 182.637695312 62.98046875 193.4140625 66.044921875 c 0
 208.358398438 70.4609375 221.51953125 61.3115234375 235.3828125 68.517578125 c 0
 248.272460938 75.3369140625 260.762695312 82.95703125 271.56640625 92.857421875 c 0
 285.0546875 105.504882812 282.27734375 99.6767578125 291.16796875 116.017578125 c 0
 296.079101562 125.885742188 299.236328125 130.071289062 301.9296875 136.29296875 c 1
 305.875 125.14453125 l 1
 346.533203125 34.8671875 l 1
 386.736328125 21.58984375 l 1
 427.845703125 6.908203125 l 1
 476.294921875 -0.43359375 l 1
 524.744140625 9.84375 l 1
 562.35546875 15.779296875 l 1
 594.08984375 71.23046875 l 1
 608.3203125 130.18359375 l 1
 608.3203125 169.82421875 l 1
 602.447265625 218.2734375 l 1
 617.12890625 227.08203125 l 1
 645.025390625 238.828125 l 1
 709.625 241.763671875 l 1
 809.4609375 244.701171875 l 1
 874.0625 243.232421875 l 1
 884.33984375 257.9140625 l 1
 888.744140625 281.40625 l 1
 875.529296875 313.705078125 l 1
 843.1171875 320.142578125 l 1
 782.921875 318.673828125 l 1
 680.150390625 317.205078125 l 1
 584.71875 315.736328125 l 1
 532.765625 326.8046875 l 1
 501.369140625 334.7109375 l 1
 446.8203125 337.197265625 l 1
 402.775390625 338.6640625 l 1
 377.869140625 330.8359375 l 1
 359.828125 333.99609375 336.178710938 338.473632812 312.474609375 342.658203125 c 1
 323.595703125 369.83984375 l 1
 383.673828125 425.17578125 l 1
 464.306640625 483.673828125 l 1
 529.12890625 535.84765625 l 1
 579.720703125 581.697265625 l 1
 601.85546875 608.57421875 l 1
 601.85546875 635.451171875 l 1
 593.951171875 663.91015625 l 1
 570.234375 665.4921875 l 1
181.765625 251.416015625 m 0
 189.333984375 250.9296875 226.766601562 246.690429688 258.208984375 245.138671875 c 1
 248.284179688 238.594726562 240.893554688 227.223632812 239.7109375 210.755859375 c 0
 239.08203125 202.6796875 238.797851562 194.58203125 238.314453125 186.49609375 c 0
 237.717773438 176.294921875 236.262695312 166.198242188 234.1875 156.212890625 c 0
 230.5703125 151.733398438 226.557617188 147.5859375 222.283203125 143.701171875 c 0
 216.822265625 138.997070312 210.57421875 135.372070312 204.17578125 132.119140625 c 0
 195.107421875 127.475585938 185.444335938 124.265625 175.689453125 121.43359375 c 0
 171.942382812 120.671875 168.220703125 119.217773438 164.35546875 119.078125 c 0
 161.447265625 118.973632812 157.369140625 119.887695312 154.556640625 120.240234375 c 0
 149.765625 121.272460938 144.803710938 121.96875 140.20703125 123.755859375 c 0
 136.787109375 125.084960938 133.586914062 127.524414062 130.572265625 129.552734375 c 0
 127.579101562 134.80078125 124.102539062 139.794921875 121.927734375 145.482421875 c 0
 121.37109375 146.939453125 121.002929688 148.461914062 120.541015625 149.951171875 c 0
 116.681640625 163.3828125 115.360351562 177.36328125 114.953125 191.283203125 c 0
 115.043945312 192.729492188 114.994140625 194.190429688 115.2265625 195.62109375 c 0
 115.372070312 196.514648438 115.8125 197.334960938 116.076171875 198.201171875 c 0
 117.580078125 203.13671875 117.584960938 203.909179688 119.51171875 208.931640625 c 0
 120.352539062 211.12109375 121.295898438 213.265625 122.271484375 215.396484375 c 0
 126.314453125 216.327148438 130.301757812 217.280273438 131.890625 219.408203125 c 0
 136.513671875 225.537109375 142.23828125 230.67578125 148.06640625 235.62109375 c 0
 151.989257812 238.8984375 156.306640625 241.658203125 160.892578125 243.90234375 c 0
 164.247070312 245.427734375 167.674804688 246.780273438 171.154296875 247.9921875 c 0
 174.689453125 249.065429688 178.203125 250.205078125 181.701171875 251.39453125 c 0
 181.72265625 251.401367188 181.744140625 251.409179688 181.765625 251.416015625 c 0
310.810546875 249.12109375 m 1
 308.4296875 242 l 1
 306.163085938 243.91015625 303.760742188 245.626953125 301.166015625 246.982421875 c 1
 301.938476562 247.333007812 302.59375 247.709960938 302.9921875 248.1484375 c 0
 305.598632812 248.466796875 308.204101562 248.795898438 310.810546875 249.12109375 c 1
442.416015625 244.701171875 m 1
 473.248046875 238.828125 l 1
 492.333984375 227.08203125 l 1
 511.419921875 212.400390625 l 1
 521.697265625 184.505859375 l 1
 518.76171875 158.078125 l 1
 506 112 l 1
 486.912109375 92.9140625 l 1
 461.953125 79.701171875 l 1
 435.52734375 79.701171875 l 1
 414.97265625 82.63671875 l 1
 387.529296875 121.599609375 l 1
 372.84765625 152.431640625 l 1
 368.443359375 171.517578125 l 1
 386.625 200.65625 l 1
 402.775390625 225.615234375 l 1
 421.861328125 234.423828125 l 1
 442.416015625 244.701171875 l 1
EndSplineSet
Ligature2: "msbarocci102fin1-<1,2> Common Ligatures lookup 0 subtable" uniE031 sigma
EndChar

StartChar: less
Encoding: 30 60 30
Width: 450
VWidth: 824
GlyphClass: 1
Flags: W
LayerCount: 2
Fore
SplineSet
301.650390625 350.6953125 m 1
 272.662109375 341.63671875 l 1
 259.07421875 327.142578125 l 1
 250.921875 305.40234375 l 1
 258.169921875 270.978515625 l 1
 287.15625 244.708984375 l 1
 326.109375 225.685546875 l 1
 365.966796875 232.02734375 l 1
 403.107421875 245.615234375 l 1
 427.564453125 269.16796875 l 1
 440.24609375 295.4375 l 1
 439.33984375 318.083984375 l 1
 426.658203125 330.765625 l 1
 406.73046875 329.859375 l 1
 381.365234375 328.048828125 l 1
 362.34375 331.671875 l 1
 351.47265625 344.353515625 l 1
 333.35546875 349.7890625 l 1
 301.650390625 350.6953125 l 1
EndSplineSet
EndChar

StartChar: lambda
Encoding: 31 955 31
Width: 520
VWidth: 824
GlyphClass: 1
Flags: W
LayerCount: 2
Fore
SplineSet
59.908203125 609.58984375 m 1
 30.63671875 605.931640625 l 1
 16 573 l 1
 51.1015625 518.26171875 l 1
 71.224609375 499.966796875 l 1
 102.326171875 483.5 l 1
 98.66796875 454.228515625 l 1
 95.0078125 428.6171875 l 1
 115.1328125 419.46875 l 1
 148.0625 408.4921875 l 1
 175.505859375 417.638671875 l 1
 202.947265625 410.322265625 l 1
 243.1953125 370.072265625 l 1
 312.716796875 311.529296875 l 1
 345.646484375 263.962890625 l 1
 349.728515625 258.91015625 l 1
 327.3515625 252.986328125 l 1
 162.69921875 137.73046875 l 1
 124.279296875 88.333984375 l 1
 63.908203125 48.0859375 l 1
 10.853515625 13.326171875 l 1
 -78.791015625 -72.66015625 l 1
 -117.2109375 -101.931640625 l 1
 -111.72265625 -140.3515625 l 1
 -95.2578125 -173.28125 l 1
 -73.302734375 -184.2578125 l 1
 -44.03125 -182.4296875 l 1
 7.193359375 -167.79296875 l 1
 29.146484375 -147.66796875 l 1
 67.56640625 -103.76171875 l 1
 85.861328125 -58.0234375 l 1
 107.814453125 -26.923828125 l 1
 168.1875 11.49609375 l 1
 223.072265625 55.40234375 l 1
 294.421875 106.62890625 l 1
 358.453125 154.1953125 l 1
 398.701171875 170.66015625 l 1
 414.9921875 178.107421875 l 1
 422.484375 168.830078125 l 1
 477.369140625 104.798828125 l 1
 517.6171875 49.9140625 l 1
 554.20703125 2.34765625 l 1
 603.603515625 -67.171875 l 1
 649.33984375 -158.646484375 l 1
 722.51953125 -277.560546875 l 1
 759.109375 -314.150390625 l 1
 803.015625 -330.6171875 l 1
 828.62890625 -323.298828125 l 1
 839.60546875 -301.34375 l 1
 841.435546875 -281.220703125 l 1
 824.96875 -268.4140625 l 1
 808.50390625 -261.095703125 l 1
 768.255859375 -176.939453125 l 1
 728.0078125 -94.61328125 l 1
 696.90625 -52.53515625 l 1
 616.41015625 64.55078125 l 1
 534.08203125 170.66015625 l 1
 490.984375 229.52734375 l 1
 501.15234375 240.1796875 l 1
 497.494140625 273.111328125 l 1
 448.09765625 285.91796875 l 1
 446.427734375 285.44921875 l 1
 384.06640625 346.2890625 l 1
 294.421875 443.251953125 l 1
 215.75390625 521.919921875 l 1
 127.599609375 582.1484375 l 1
 59.908203125 609.58984375 l 1
EndSplineSet
EndChar

StartChar: Eta
Encoding: 32 919 32
Width: 427
VWidth: 824
GlyphClass: 1
Flags: W
LayerCount: 2
Fore
SplineSet
318.873046875 331.072265625 m 1
 289.642578125 325.2265625 l 1
 270.15625 315.482421875 l 1
 262.361328125 278.45703125 l 1
 256.515625 251.17578125 l 1
 235.080078125 241.431640625 l 1
 192.208984375 243.380859375 l 1
 188.3125 268.71484375 l 1
 182.46484375 313.533203125 l 1
 159.08203125 325.2265625 l 1
 106.466796875 321.328125 l 1
 69.44140625 313.533203125 l 1
 51.904296875 294.046875 l 1
 44.109375 278.45703125 l 1
 36.314453125 258.970703125 l 1
 46.05859375 216.099609375 l 1
 46.05859375 186.869140625 l 1
 28.51953125 143.998046875 l 1
 14.87890625 110.87109375 l 1
 14.87890625 81.640625 l 1
 10.982421875 50.462890625 l 1
 24.623046875 27.078125 l 1
 44.109375 13.4375 l 1
 83.083984375 21.232421875 l 1
 108.416015625 44.615234375 l 1
 114.26171875 66.05078125 l 1
 124.005859375 101.126953125 l 1
 149.337890625 128.408203125 l 1
 184.4140625 134.255859375 l 1
 194.158203125 132.306640625 l 1
 207.798828125 103.076171875 l 1
 209.748046875 62.154296875 l 1
 225.3359375 29.02734375 l 1
 248.720703125 11.48828125 l 1
 291.591796875 1.744140625 l 1
 334.462890625 -0.203125 l 1
 355.8984375 15.384765625 l 1
 363.693359375 44.615234375 l 1
 352 68 l 1
 332.513671875 89.435546875 l 1
 334.462890625 116.716796875 l 1
 355.8984375 165.43359375 l 1
 373.435546875 194.6640625 l 1
 406.564453125 255.07421875 l 1
 396.8203125 299.892578125 l 1
 367.58984375 327.173828125 l 1
 318.873046875 331.072265625 l 1
EndSplineSet
EndChar

StartChar: kappa
Encoding: 33 954 33
Width: 460
VWidth: 824
GlyphClass: 1
Flags: MW
HStem: 27.8828 49.3945
LayerCount: 2
Fore
SplineSet
133.4375 436.76953125 m 1
 104.623046875 428.537109375 l 1
 71.693359375 398.3515625 l 1
 41.505859375 365.419921875 l 1
 29.158203125 347.583984375 l 1
 26.4140625 325.62890625 l 1
 23.669921875 300.931640625 l 1
 36.017578125 277.60546875 l 1
 48.3671875 273.490234375 l 1
 68.9482421875 285.837890625 l 1
 68.94921875 255.65234375 l 1
 66.205078125 211.744140625 l 1
 56.599609375 170.58203125 l 1
 42.87890625 132.162109375 l 1
 26.4140625 110.208984375 l 1
 20.923828125 85.51171875 l 1
 19.552734375 41.603515625 l 1
 33.2734375 7.30078125 l 1
 52.482421875 1.8125 l 1
 78.552734375 0.439453125 l 1
 104.623046875 5.927734375 l 1
 123.83203125 27.8828125 l 1
 125.205078125 48.46484375 l 1
 125.205078125 64.9296875 l 1
 138.92578125 95.115234375 l 1
 158.134765625 125.302734375 l 1
 173.228515625 132.162109375 l 1
 189.693359375 129.41796875 l 1
 218.5078125 103.34765625 l 1
 259.671875 86.8828125 l 1
 306.322265625 63.556640625 l 1
 336.509765625 52.580078125 l 1
 387.27734375 38.859375 l 1
 435.30078125 33.37109375 l 1
 481.953125 26.509765625 l 1
 516.255859375 27.8828125 l 1
 528.603515625 45.720703125 l 1
 528.603515625 69.044921875 l 1
 508.0234375 77.27734375 l 1
 460 91 l 1
 416.091796875 100.603515625 l 1
 370.8125 118.44140625 l 1
 344.7421875 133.53515625 l 1
 314.556640625 155.48828125 l 1
 293.974609375 174.697265625 l 1
 282.998046875 191.1640625 l 1
 284.369140625 213.1171875 l 1
 303.578125 228.2109375 l 1
 354.34765625 258.396484375 l 1
 420.20703125 300.931640625 l 1
 470.9765625 337.978515625 l 1
 488.8125 364.048828125 l 1
 481.953125 386.001953125 l 1
 457.255859375 394.234375 l 1
 409.23046875 392.86328125 l 1
 368.068359375 379.142578125 l 1
 309.06640625 340.72265625 l 1
 259.671875 307.79296875 l 1
 228.11328125 283.09375 l 1
 200.669921875 278.978515625 l 1
 189.693359375 294.0703125 l 1
 196.5546875 350.328125 l 1
 189.693359375 390.119140625 l 1
 163.623046875 435.3984375 l 1
 133.4375 436.76953125 l 1
EndSplineSet
EndChar

StartChar: iota
Encoding: 34 953 34
Width: 287
VWidth: 824
GlyphClass: 1
Flags: W
LayerCount: 2
Fore
SplineSet
132.849609375 345.478515625 m 1
 92.658203125 336.546875 l 1
 56.931640625 285.19140625 l 1
 39.068359375 236.068359375 l 1
 25.671875 184.712890625 l 1
 25.671875 126.658203125 l 1
 27.904296875 73.068359375 l 1
 36.8359375 48.5078125 l 1
 70.328125 23.9453125 l 1
 114.986328125 15.013671875 l 1
 179.740234375 3.849609375 l 1
 222.1640625 17.248046875 l 1
 248.95703125 39.576171875 l 1
 246.724609375 75.302734375 l 1
 211 82 l 1
 166.341796875 86.466796875 l 1
 148.478515625 111.02734375 l 1
 161.876953125 146.75390625 l 1
 179.740234375 184.712890625 l 1
 197.6015625 215.97265625 l 1
 197.6015625 271.79296875 l 1
 188.669921875 314.21875 l 1
 170.80859375 332.080078125 l 1
 132.849609375 345.478515625 l 1
EndSplineSet
EndChar

StartChar: "+4DEDuQAA"
Encoding: 35 -1 35
Width: 478
VWidth: 824
GlyphClass: 1
Flags: W
LayerCount: 2
Fore
SplineSet
497.779296875 626.134765625 m 1
 469.19921875 623.751953125 l 1
 414.419921875 602.31640625 l 1
 345.349609375 571.35546875 l 1
 250.080078125 538.01171875 l 1
 171.484375 511.8125 l 1
 40.48828125 442.7421875 l 1
 9.52734375 407.015625 l 1
 14.291015625 340.328125 l 1
 90.505859375 273.640625 l 1
 128.61328125 223.625 l 1
 195.30078125 185.515625 l 1
 278.66015625 152.171875 l 1
 273.8984375 73.576171875 l 1
 264.37109375 11.650390625 l 1
 252.462890625 -126.48828125 l 1
 257.2265625 -174.123046875 l 1
 276.279296875 -197.939453125 l 1
 307.2421875 -219.375 l 1
 376.3125 -216.994140625 l 1
 435.85546875 -190.794921875 l 1
 435.85546875 -190.794921875 476.34375 -143.16015625 485.87109375 -133.6328125 c 0
 495.3984375 -124.10546875 493.015625 -90.763671875 493.015625 -90.763671875 c 1
 483.48828125 -64.564453125 l 1
 457.2890625 -66.9453125 l 1
 423.9453125 -93.14453125 l 1
 373.9296875 -121.724609375 l 1
 340.5859375 -114.580078125 l 1
 347.73046875 -47.892578125 l 1
 347.73046875 4.505859375 l 1
 359.638671875 73.576171875 l 1
 362.021484375 130.736328125 l 1
 373.9296875 190.279296875 l 1
 371.548828125 221.2421875 l 1
 381.07421875 295.076171875 l 1
 381.07421875 368.908203125 l 1
 371.548828125 421.306640625 l 1
 347.73046875 464.177734375 l 1
 350.11328125 485.61328125 l 1
 438.236328125 511.8125 l 1
 507.306640625 542.7734375 l 1
 523.978515625 580.8828125 l 1
 516.83203125 607.080078125 l 1
 497.779296875 626.134765625 l 1
240.552734375 442.7421875 m 1
 266.751953125 428.451171875 l 1
 278.66015625 368.908203125 l 1
 290.5703125 295.076171875 l 1
 283.423828125 247.44140625 l 1
 238.171875 240.296875 l 1
 164.337890625 304.6015625 l 1
 142.90234375 347.47265625 l 1
 138.140625 376.0546875 l 1
 209.591796875 426.0703125 l 1
 240.552734375 442.7421875 l 1
EndSplineSet
Ligature2: "msbarocci102fin1-<1,2> Common Ligatures lookup 0 subtable" uniE031 iota
EndChar

StartChar: theta
Encoding: 36 952 36
Width: 453
VWidth: 824
GlyphClass: 1
Flags: MW
HStem: 280.103 84.2109
VStem: 68.6582 89.3145
LayerCount: 2
Fore
SplineSet
214.11328125 649.48046875 m 1
 173.28515625 621.41015625 l 1
 129.90234375 555.0625 l 1
 106.9375 475.95703125 l 1
 94.216796875 417.462890625 l 1
 84.05078125 379.624023438 l 1
 83.94921875 378.536132812 l 1
 61.083984375 379.624023438 l 1
 -7.81640625 379.624023438 l 1
 -12.919921875 295.413085938 l 1
 27.91015625 295.413085938 l 1
 75.91796875 291.049804688 l 1
 66.107421875 182.494140625 l 1
 68.658203125 105.939453125 l 1
 86.521484375 47.24609375 l 1
 142.662109375 -8.89453125 l 1
 198.802734375 6.41796875 l 1
 270.25390625 49.798828125 l 1
 313.634765625 123.802734375 l 1
 349.44140625 252.032226562 l 1
 355.42578125 288.793945312 l 1
 387.71875 285.206054688 l 1
 474.482421875 280.102539062 l 1
 548.484375 277.549804688 l 1
 576.5546875 274.999023438 l 1
 584.2109375 303.069335938 l 1
 574.00390625 351.553710938 l 1
 553.587890625 359.209960938 l 1
 484.689453125 364.313476562 l 1
 431.099609375 366.864257812 l 1
 382.615234375 371.969726562 l 1
 364.666015625 373.192382812 l 1
 359.6484375 394.934570312 l 1
 336.6015625 419.81640625 l 1
 326.39453125 475.95703125 l 1
 308.53125 544.85546875 l 1
 303.427734375 600.99609375 l 1
 300.876953125 641.826171875 l 1
 262.599609375 649.48046875 l 1
 214.11328125 649.48046875 l 1
234.529296875 483.611328125 m 1
 247.287109375 468.30078125 l 1
 252.390625 430.0234375 l 1
 267.783203125 400.040039062 l 1
 260.126953125 379.624023438 l 1
 256.298828125 377.073242188 l 1
 214.193359375 369.416992188 l 1
 203.13671875 370.268554688 l 1
 186.123046875 374.520507812 l 1
 186.123046875 389.831054688 l 1
 183.53125 391.9453125 l 1
 188.595703125 430.0234375 l 1
 201.35546875 468.30078125 l 1
 234.529296875 483.611328125 l 1
173.365234375 300.516601562 m 1
 244.81640625 300.516601562 l 1
 270.333984375 292.862304688 l 1
 247.287109375 197.8046875 l 1
 221.76953125 146.767578125 l 1
 193.69921875 111.04296875 l 1
 168.181640625 100.8359375 l 1
 157.97265625 126.353515625 l 1
 155.421875 185.046875 l 1
 173.365234375 300.516601562 l 1
EndSplineSet
EndChar

StartChar: pi
Encoding: 37 960 37
Width: 753
VWidth: 824
GlyphClass: 1
Flags: MW
HStem: 242.689 98.4863 276.383 64.793 297.115 44.0605
LayerCount: 2
Fore
SplineSet
244.681640625 343.767578125 m 1x20
 148.787109375 341.17578125 l 1x20
 71.03515625 341.17578125 l 1x80
 8.83203125 341.17578125 l 1
 -40.412109375 325.625 l 1
 -79.287109375 307.482421875 l 1
 -115.572265625 297.115234375 l 1x20
 -118.1640625 268.607421875 l 1
 -94.837890625 242.689453125 l 1
 -68.919921875 216.771484375 l 1
 -35.228515625 201.220703125 l 1
 -6.71875 208.99609375 l 1
 29.56640625 234.9140625 l 1
 91.767578125 242.689453125 l 1
 128.052734375 242.689453125 l 1x80
 112.501953125 198.62890625 l 1
 104.7265625 154.5703125 l 1
 115.09375 100.142578125 l 1
 146.1953125 76.81640625 l 1
 200.623046875 45.71484375 l 1
 257.640625 53.490234375 l 1
 309.4765625 76.81640625 l 1
 350.943359375 87.18359375 l 1
 389.8203125 53.490234375 l 1
 426.10546875 32.755859375 l 1
 477.94140625 9.431640625 l 1
 532.3671875 -0.935546875 l 1
 579.01953125 12.0234375 l 1
 623.078125 40.53125 l 1
 651.587890625 79.408203125 l 1
 669.73046875 120.876953125 l 1
 669.73046875 164.935546875 l 1
 664.546875 214.1796875 l 1
 659.36328125 240.09765625 l 1
 659.36328125 266.015625 l 1
 700.83203125 276.3828125 l 1
 752.666015625 273.791015625 l 1
 799.318359375 276.3828125 l 1x40
 838.1953125 286.75 l 1
 877.0703125 297.115234375 l 1
 892.62109375 323.033203125 l 1
 892.62109375 341.17578125 l 1
 840.787109375 343.767578125 l 1
 786.359375 341.17578125 l 1
 713.791015625 338.583984375 l 1
 628.26171875 338.583984375 l 1
 537.55078125 330.80859375 l 1
 454.615234375 330.80859375 l 1
 345.76171875 330.80859375 l 1
 244.681640625 343.767578125 l 1x20
467.57421875 260.83203125 m 1
 496.08203125 253.056640625 l 1
 522 234.9140625 l 1
 553.1015625 203.8125 l 1
 560.876953125 183.078125 l 1
 566.060546875 164.935546875 l 1
 566.060546875 133.8359375 l 1
 560.876953125 113.1015625 l 1
 547.91796875 92.3671875 l 1
 522 82 l 1
 501.265625 82 l 1
 470.166015625 94.958984375 l 1
 446.83984375 118.28515625 l 1
 441.65625 141.611328125 l 1
 439.064453125 172.7109375 l 1
 441.65625 203.8125 l 1
 446.83984375 242.689453125 l 1x80
 467.57421875 260.83203125 l 1
288.7421875 258.240234375 m 1
 312.068359375 258.240234375 l 1
 327.619140625 247.873046875 l 1
 327.619140625 216.771484375 l 1
 314.66015625 183.078125 l 1
 291.333984375 154.5703125 l 1
 247.2734375 146.794921875 l 1
 231.72265625 157.162109375 l 1
 231.72265625 175.302734375 l 1
 244.681640625 203.8125 l 1
 260.232421875 240.09765625 l 1
 288.7421875 258.240234375 l 1
EndSplineSet
EndChar

StartChar: chi
Encoding: 38 967 38
Width: 598
VWidth: 824
GlyphClass: 1
Flags: W
LayerCount: 2
Fore
SplineSet
147.731445312 514.907226562 m 1
 132.180664062 509.723632812 l 1
 98.4873046875 491.581054688 l 1
 80.3447265625 465.663085938 l 1
 88.1201171875 424.196289062 l 1
 103.670898438 385.319335938 l 1
 124.405273438 349.034179688 l 1
 129.588867188 317.932617188 l 1
 176.239257812 245.364257812 l 1
 220.299804688 141.694335938 l 1
 246.217773438 79.4912109375 l 1
 251.930664062 60.2080078125 l 1
 225.483398438 43.2060546875 l 1
 165.872070312 12.1064453125 l 1
 46.6513671875 -70.8310546875 l 1
 -18.1416015625 -109.706054688 l 1
 -77.7529296875 -151.174804688 l 1
 -88.1201171875 -177.092773438 l 1
 -85.5283203125 -200.418945312 l 1
 -80.3447265625 -218.561523438 l 1
 -44.0595703125 -218.561523438 l 1
 -12.9580078125 -205.602539062 l 1
 49.2431640625 -169.317382812 l 1
 111.446289062 -135.624023438 l 1
 171.055664062 -104.522460938 l 1
 238.442382812 -65.6474609375 l 1
 285.637695312 -34.8662109375 l 1
 287.684570312 -39.7294921875 l 1
 313.602539062 -99.3388671875 l 1
 336.928710938 -164.133789062 l 1
 368.030273438 -223.745117188 l 1
 409.499023438 -252.252929688 l 1
 450.965820312 -260.028320312 l 1
 476.883789062 -241.885742188 l 1
 489.842773438 -210.786132812 l 1
 487.250976562 -179.684570312 l 1
 461.333007812 -177.092773438 l 1
 440.598632812 -166.725585938 l 1
 427.639648438 -127.848632812 l 1
 404.315429688 -78.6064453125 l 1
 388.764648438 -29.3623046875 l 1
 375.805664062 17.2900390625 l 1
 373.184570312 24.4970703125 l 1
 419.864257812 61.3486328125 l 1
 448.374023438 82.0830078125 l 1
 476.883789062 102.817382812 l 1
 515.760742188 154.653320312 l 1
 557.227539062 198.711914062 l 1
 596.104492188 250.547851562 l 1
 647.940429688 286.833007812 l 1
 699.774414062 325.708007812 l 1
 702.366210938 361.993164062 l 1
 691.999023438 382.727539062 l 1
 660.899414062 385.319335938 l 1
 634.981445312 380.135742188 l 1
 601.288085938 369.768554688 l 1
 565.002929688 338.666992188 l 1
 510.577148438 299.790039062 l 1
 474.291992188 250.547851562 l 1
 419.864257812 193.528320312 l 1
 375.805664062 144.286132812 l 1
 338.995117188 118.518554688 l 1
 334.336914062 131.327148438 l 1
 303.235351562 224.629882812 l 1
 272.135742188 294.608398438 l 1
 235.850585938 374.952148438 l 1
 212.524414062 426.788085938 l 1
 204.749023438 483.805664062 l 1
 181.422851562 509.723632812 l 1
 147.731445312 514.907226562 l 1
EndSplineSet
EndChar

StartChar: omega
Encoding: 39 969 39
Width: 600
VWidth: 824
GlyphClass: 1
Flags: W
LayerCount: 2
Fore
SplineSet
411.49609375 347.294921875 m 1
 359.28125 317.064453125 l 1
 312.5625 275.84375 l 1
 304.318359375 289.583984375 l 1
 268.59375 300.576171875 l 1
 216.37890625 319.8125 l 1
 155.919921875 339.05078125 l 1
 87.216796875 330.806640625 l 1
 32.25390625 297.828125 l 1
 10.267578125 251.109375 l 1
 4.771484375 207.140625 l 1
 4.771484375 135.6875 l 1
 35.001953125 86.22265625 l 1
 92.712890625 55.9921875 l 1
 147.67578125 39.50390625 l 1
 238.36328125 34.0078125 l 1
 293.326171875 42.251953125 l 1
 323.5546875 34.0078125 l 1
 340.044921875 3.77734375 l 1
 356.533203125 1.029296875 l 1
 406 45 l 1
 425.236328125 45 l 1
 460.962890625 36.755859375 l 1
 535.162109375 28.51171875 l 1
 584.62890625 45 l 1
 606.61328125 91.71875 l 1
 609.361328125 135.6875 l 1
 609.361328125 165.91796875 l 1
 598.369140625 218.1328125 l 1
 584.62890625 251.109375 l 1
 570.888671875 286.8359375 l 1
 543.40625 311.568359375 l 1
 480.19921875 347.294921875 l 1
 411.49609375 347.294921875 l 1
172.408203125 259.353515625 m 1
 210.8828125 251.109375 l 1
 274.08984375 209.888671875 l 1
 279.5859375 163.169921875 l 1
 263.095703125 138.435546875 l 1
 243.859375 121.947265625 l 1
 213.630859375 121.947265625 l 1
 183.400390625 127.443359375 l 1
 142.177734375 135.6875 l 1
 106.453125 160.421875 l 1
 95.4609375 187.90234375 l 1
 98.208984375 218.1328125 l 1
 111.94921875 242.865234375 l 1
 139.4296875 256.60546875 l 1
 172.408203125 259.353515625 l 1
469.20703125 242.865234375 m 1
 502.18359375 242.865234375 l 1
 513.177734375 226.376953125 l 1
 521.421875 196.146484375 l 1
 524.169921875 168.666015625 l 1
 518.673828125 135.6875 l 1
 499.435546875 108.20703125 l 1
 469.20703125 102.7109375 l 1
 422.48828125 105.458984375 l 1
 381.265625 130.19140625 l 1
 389.51171875 168.666015625 l 1
 400.50390625 196.146484375 l 1
 430.732421875 226.376953125 l 1
 469.20703125 242.865234375 l 1
EndSplineSet
EndChar

StartChar: rho
Encoding: 40 961 40
Width: 385
VWidth: 824
GlyphClass: 1
Flags: W
LayerCount: 2
Fore
SplineSet
204.748046875 393.09375 m 1
 160.689453125 380.134765625 l 1
 124.404296875 351.625 l 1
 101.078125 304.974609375 l 1
 82.935546875 250.546875 l 1
 59.611328125 172.794921875 l 1
 33.693359375 76.900390625 l 1
 18.142578125 4.330078125 l 1
 10.3671875 -52.689453125 l 1
 18.142578125 -91.564453125 l 1
 36.28515625 -122.666015625 l 1
 59.611328125 -138.216796875 l 1
 98.486328125 -158.951171875 l 1
 139.955078125 -169.318359375 l 1
 176.240234375 -169.318359375 l 1
 212.5234375 -161.54296875 l 1
 248.80859375 -143.400390625 l 1
 272.134765625 -122.666015625 l 1
 277.318359375 -94.15625 l 1
 264.359375 -76.013671875 l 1
 238.44140625 -65.646484375 l 1
 196.97265625 -73.421875 l 1
 158.09765625 -78.60546875 l 1
 137.36328125 -88.97265625 l 1
 114.037109375 -78.60546875 l 1
 108.853515625 -50.09765625 l 1
 111.4453125 -16.404296875 l 1
 124.404296875 22.47265625 l 1
 137.36328125 74.30859375 l 1
 150.322265625 84.673828125 l 1
 186.607421875 53.57421875 l 1
 220.298828125 38.0234375 l 1
 264.359375 32.83984375 l 1
 311.01171875 61.349609375 l 1
 344.703125 102.81640625 l 1
 365.4375 141.693359375 l 1
 373.212890625 216.853515625 l 1
 362.845703125 276.46484375 l 1
 336.927734375 325.708984375 l 1
 295.4609375 369.767578125 l 1
 238.44140625 387.91015625 l 1
 204.748046875 393.09375 l 1
243.625 284.240234375 m 1
 261.767578125 281.6484375 l 1
 277.318359375 260.9140625 l 1
 287.685546875 234.99609375 l 1
 287.685546875 198.712890625 l 1
 274.7265625 175.38671875 l 1
 256.583984375 152.060546875 l 1
 230.666015625 131.326171875 l 1
 209.931640625 128.734375 l 1
 204.748046875 167.611328125 l 1
 215.115234375 209.080078125 l 1
 220.298828125 229.8125 l 1
 230.666015625 255.73046875 l 1
 243.625 284.240234375 l 1
EndSplineSet
EndChar

StartChar: "+4CUDxQAA"
Encoding: 41 -1 41
Width: 484
VWidth: 824
GlyphClass: 1
Flags: W
LayerCount: 2
Fore
SplineSet
50.62109375 519.1484375 m 1
 21.912109375 516.755859375 l 1
 0.380859375 490.439453125 l 1
 5.166015625 471.30078125 l 1
 17.126953125 444.984375 l 1
 53.013671875 433.0234375 l 1
 105.646484375 404.314453125 l 1
 139.138671875 377.998046875 l 1
 177.41796875 346.896484375 l 1
 201.341796875 325.365234375 l 1
 213.302734375 306.2265625 l 1
 191.771484375 291.87109375 l 1
 141.53125 255.986328125 l 1
 108.0390625 217.70703125 l 1
 96.076171875 169.859375 l 1
 96.076171875 136.365234375 l 1
 108.0390625 88.517578125 l 1
 127.177734375 55.025390625 l 1
 165.455078125 28.708984375 l 1
 201.341796875 11.9609375 l 1
 232.443359375 4.78515625 l 1
 270.720703125 0 l 1
 309 0 l 1
 342.4921875 16.74609375 l 1
 378.37890625 43.0625 l 1
 397.517578125 64.59375 l 1
 414.263671875 98.087890625 l 1
 414.263671875 157.8984375 l 1
 399.91015625 184.21484375 l 1
 371.201171875 241.630859375 l 1
 359.240234375 253.59375 l 1
 352.0625 275.125 l 1
 344.884765625 303.833984375 l 1
 344.884765625 325.365234375 l 1
 366.416015625 342.111328125 l 1
 407.087890625 361.25 l 1
 447.7578125 387.56640625 l 1
 474.07421875 401.921875 l 1
 505.17578125 425.845703125 l 1
 521.921875 444.984375 l 1
 524.314453125 468.908203125 l 1
 497.998046875 504.794921875 l 1
 462.11328125 514.36328125 l 1
 433.404296875 497.6171875 l 1
 285.076171875 399.529296875 l 1
 258.759765625 380.390625 l 1
 237.2265625 382.783203125 l 1
 210.912109375 409.099609375 l 1
 139.138671875 468.908203125 l 1
 115.21484375 492.83203125 l 1
 81.72265625 507.1875 l 1
 50.62109375 519.1484375 l 1
277.8984375 198.568359375 m 1
 309 191.390625 l 1
 316.17578125 162.681640625 l 1
 316.17578125 131.58203125 l 1
 299.4296875 114.833984375 l 1
 280.291015625 95.6953125 l 1
 253.974609375 90.91015625 l 1
 230.05078125 93.302734375 l 1
 208.51953125 110.048828125 l 1
 206.126953125 133.974609375 l 1
 215.6953125 167.466796875 l 1
 237.2265625 186.60546875 l 1
 277.8984375 198.568359375 l 1
EndSplineSet
Ligature2: "msbarocci102fin1-<1,2> Common Ligatures lookup 0 subtable" uniE025 upsilon
EndChar

StartChar: delta
Encoding: 42 948 42
Width: 700
VWidth: 824
GlyphClass: 1
Flags: W
LayerCount: 2
Fore
SplineSet
40.5546875 885.513671875 m 1
 15.03515625 880.41015625 l 1
 -18.138671875 859.994140625 l 1
 -41.10546875 814.060546875 l 1
 -38.552734375 765.576171875 l 1
 -23.2421875 734.955078125 l 1
 4.828125 696.677734375 l 1
 40.5546875 663.501953125 l 1
 89.0390625 612.466796875 l 1
 122.212890625 571.63671875 l 1
 168.146484375 523.15234375 l 1
 206.423828125 484.873046875 l 1
 229.390625 456.802734375 l 1
 260.01171875 421.078125 l 1
 272.771484375 390.455078125 l 1
 285.53125 349.626953125 l 1
 285.53125 326.66015625 l 1
 285.53125 308.796875 l 1
 262.564453125 301.140625 l 1
 219.18359375 301.140625 l 1
 173.25 293.486328125 l 1
 137.5234375 257.759765625 l 1
 104.349609375 219.482421875 l 1
 91.591796875 176.1015625 l 1
 91.591796875 132.720703125 l 1
 101.798828125 84.234375 l 1
 132.419921875 40.853515625 l 1
 175.80078125 7.6796875 l 1
 219.18359375 7.6796875 l 1
 265.115234375 22.990234375 l 1
 326.359375 58.716796875 l 1
 369.7421875 96.994140625 l 1
 382.5 135.271484375 l 1
 397.8125 193.96484375 l 1
 397.8125 242.44921875 l 1
 397.8125 313.900390625 l 1
 374.845703125 359.833984375 l 1
 334.015625 438.94140625 l 1
 293.185546875 489.978515625 l 1
 242.150390625 543.56640625 l 1
 196.216796875 597.154296875 l 1
 163.04296875 625.224609375 l 1
 112.005859375 683.91796875 l 1
 71.17578125 732.40234375 l 1
 71.17578125 755.369140625 l 1
 78.83203125 775.783203125 l 1
 114.556640625 785.9921875 l 1
 155.38671875 788.54296875 l 1
 193.6640625 775.783203125 l 1
 229.390625 734.955078125 l 1
 285.53125 663.501953125 l 1
 326.359375 622.673828125 l 1
 377.396484375 558.876953125 l 1
 425.8828125 512.943359375 l 1
 453.953125 477.21875 l 1
 494.78125 428.734375 l 1
 535.611328125 380.248046875 l 1
 571.337890625 344.5234375 l 1
 624.92578125 303.693359375 l 1
 660.65234375 283.279296875 l 1
 727 245 l 1
 795.8984375 237.345703125 l 1
 826.521484375 245 l 1
 829.072265625 262.86328125 l 1
 785.69140625 285.830078125 l 1
 749.966796875 311.349609375 l 1
 714.240234375 334.314453125 l 1
 670.859375 364.9375 l 1
 624.92578125 410.87109375 l 1
 586.6484375 444.044921875 l 1
 538.1640625 489.978515625 l 1
 504.98828125 525.703125 l 1
 461.607421875 574.1875 l 1
 436.08984375 607.36328125 l 1
 392.708984375 653.294921875 l 1
 367.189453125 694.125 l 1
 346.775390625 729.8515625 l 1
 313.6015625 785.9921875 l 1
 285.53125 826.8203125 l 1
 247.25390625 852.33984375 l 1
 191.11328125 872.75390625 l 1
 132.419921875 882.9609375 l 1
 73.728515625 885.513671875 l 1
 40.5546875 885.513671875 l 1
254.908203125 201.619140625 m 1
 295.73828125 201.619140625 l 1
 308.498046875 181.205078125 l 1
 293.185546875 153.134765625 l 1
 262.564453125 127.615234375 l 1
 224.287109375 102.09765625 l 1
 196.216796875 102.09765625 l 1
 188.560546875 127.615234375 l 1
 191.11328125 148.03125 l 1
 208.9765625 181.205078125 l 1
 254.908203125 201.619140625 l 1
EndSplineSet
EndChar

StartChar: Epsilon
Encoding: 43 917 43
Width: 450
VWidth: 824
GlyphClass: 1
Flags: MW
HStem: 224.963 64.5938 423.531 88.5176
LayerCount: 2
Fore
SplineSet
245.771484375 512.048828125 m 1
 193.138671875 502.48046875 l 1
 142.8984375 488.125 l 1
 95.05078125 459.416015625 l 1
 63.951171875 413.9609375 l 1
 35.2421875 361.328125 l 1
 25.671875 313.48046875 l 1
 25.671875 268.025390625 l 1
 25.671875 215.392578125 l 1
 30.45703125 186.68359375 l 1
 42.41796875 148.40625 l 1
 51.98828125 117.3046875 l 1
 73.51953125 79.025390625 l 1
 92.658203125 57.494140625 l 1
 128.544921875 35.962890625 l 1
 159.646484375 12.0390625 l 1
 207.494140625 2.46875 l 1
 260.126953125 7.25390625 l 1
 315.15234375 21.609375 l 1
 358.21484375 38.35546875 l 1
 408.455078125 57.494140625 l 1
 418.0234375 74.2421875 l 1
 406.0625 93.380859375 l 1
 379.74609375 100.55859375 l 1
 324.720703125 90.98828125 l 1
 284.05078125 76.6328125 l 1
 233.810546875 69.45703125 l 1
 207.494140625 76.6328125 l 1
 176.392578125 88.595703125 l 1
 147.68359375 105.341796875 l 1
 128.544921875 138.8359375 l 1
 116.58203125 169.9375 l 1
 116.58203125 193.861328125 l 1
 123.759765625 220.177734375 l 1
 145.291015625 236.923828125 l 1
 188.35546875 232.138671875 l 1
 238.595703125 224.962890625 l 1
 324.720703125 224.962890625 l 1
 363 213 l 1
 398.884765625 217.78515625 l 1
 425.201171875 232.138671875 l 1
 437.1640625 258.455078125 l 1
 422.80859375 279.986328125 l 1
 374.9609375 289.556640625 l 1
 319.935546875 289.556640625 l 1
 264.912109375 296.734375 l 1
 219.455078125 301.51953125 l 1
 176.392578125 299.126953125 l 1
 140.505859375 303.91015625 l 1
 133.330078125 320.658203125 l 1
 138.115234375 354.150390625 l 1
 183.5703125 399.607421875 l 1
 231.41796875 423.53125 l 1
 281.658203125 425.923828125 l 1
 331.8984375 409.17578125 l 1
 384.53125 387.64453125 l 1
 437.1640625 373.291015625 l 1
 468.263671875 356.54296875 l 1
 489.796875 361.328125 l 1
 506.54296875 382.859375 l 1
 496.97265625 418.74609375 l 1
 451.517578125 464.201171875 l 1
 403.669921875 483.33984375 l 1
 351.037109375 497.6953125 l 1
 300.796875 509.65625 l 1
 245.771484375 512.048828125 l 1
EndSplineSet
EndChar

StartChar: xi
Encoding: 44 958 44
Width: 538
VWidth: 824
GlyphClass: 1
Flags: MW
HStem: 289.631 102.074
LayerCount: 2
Fore
SplineSet
-48.76171875 996.4921875 m 1
 -99.798828125 991.388671875 l 1
 -115.111328125 965.869140625 l 1
 -117.662109375 919.9375 l 1
 -120.21484375 879.107421875 l 1
 -125.318359375 843.380859375 l 1
 -125.318359375 820.4140625 l 1
 -99.798828125 794.896484375 l 1
 -53.8671875 751.515625 l 1
 -30.900390625 718.341796875 l 1
 12.482421875 682.615234375 l 1
 86.484375 629.02734375 l 1
 127.314453125 595.853515625 l 1
 191.111328125 567.783203125 l 1
 265.11328125 524.400390625 l 1
 341.669921875 470.8125 l 1
 387.6015625 442.7421875 l 1
 408.017578125 422.328125 l 1
 392.705078125 399.361328125 l 1
 346.7734375 391.705078125 l 1
 280.42578125 394.2578125 l 1
 180.90234375 386.6015625 l 1
 150.28125 376.39453125 l 1
 132.41796875 358.53125 l 1
 137.521484375 333.013671875 l 1
 163.041015625 312.59765625 l 1
 188.55859375 297.287109375 l 1
 229.388671875 289.630859375 l 1
 295.736328125 287.080078125 l 1
 336.56640625 281.9765625 l 1
 367.1875 279.423828125 l 1
 382.498046875 256.45703125 l 1
 372.291015625 236.04296875 l 1
 323.806640625 215.62890625 l 1
 295.736328125 202.869140625 l 1
 249.802734375 172.24609375 l 1
 206.421875 139.072265625 l 1
 170.6953125 105.8984375 l 1
 129.8671875 62.517578125 l 1
 91.587890625 19.13671875 l 1
 78.830078125 -14.037109375 l 1
 73.7265625 -47.2109375 l 1
 78.830078125 -93.14453125 l 1
 99.244140625 -116.111328125 l 1
 134.970703125 -141.62890625 l 1
 193.662109375 -169.69921875 l 1
 242.146484375 -190.115234375 l 1
 282.9765625 -202.873046875 l 1
 356.98046875 -220.736328125 l 1
 415.671875 -230.943359375 l 1
 446.294921875 -248.806640625 l 1
 469.26171875 -253.91015625 l 1
 484.572265625 -266.669921875 l 1
 494.779296875 -284.533203125 l 1
 471.8125 -302.396484375 l 1
 438.638671875 -317.70703125 l 1
 433.53515625 -327.9140625 l 1
 441.19140625 -348.328125 l 1
 466.708984375 -363.640625 l 1
 499.8828125 -363.640625 l 1
 543.263671875 -353.431640625 l 1
 578.990234375 -333.017578125 l 1
 599.404296875 -299.84375 l 1
 586.646484375 -253.91015625 l 1
 558.576171875 -230.943359375 l 1
 530.505859375 -197.76953125 l 1
 464.158203125 -185.01171875 l 1
 413.12109375 -172.251953125 l 1
 356.98046875 -154.388671875 l 1
 280.42578125 -139.078125 l 1
 231.939453125 -121.21484375 l 1
 201.318359375 -105.904296875 l 1
 175.798828125 -88.041015625 l 1
 173.248046875 -59.970703125 l 1
 188.55859375 -24.244140625 l 1
 219.181640625 19.13671875 l 1
 280.42578125 70.173828125 l 1
 331.4609375 100.794921875 l 1
 402.9140625 136.521484375 l 1
 446.294921875 169.6953125 l 1
 499.8828125 197.765625 l 1
 520.298828125 215.62890625 l 1
 533.056640625 236.04296875 l 1
 533.056640625 274.3203125 l 1
 522.849609375 302.390625 l 1
 510.08984375 315.150390625 l 1
 499.8828125 335.564453125 l 1
 517.74609375 358.53125 l 1
 530.505859375 376.39453125 l 1
 530.505859375 422.328125 l 1
 499.8828125 465.708984375 l 1
 466.708984375 488.67578125 l 1
 415.671875 516.74609375 l 1
 354.427734375 555.0234375 l 1
 290.6328125 595.853515625 l 1
 244.69921875 639.234375 l 1
 191.111328125 680.0625 l 1
 122.2109375 728.548828125 l 1
 66.0703125 771.9296875 l 1
 22.689453125 822.966796875 l 1
 9.9296875 848.484375 l 1
 2.2734375 899.521484375 l 1
 4.826171875 925.041015625 l 1
 -7.93359375 983.732421875 l 1
 -48.76171875 996.4921875 l 1
EndSplineSet
EndChar

StartChar: "+4DEDvgAA"
Encoding: 45 -1 45
Width: 1003
VWidth: 824
GlyphClass: 1
Flags: MW
HStem: 268.02 102.074
LayerCount: 2
Fore
SplineSet
395.341796875 974.880859375 m 1
 344.3046875 969.77734375 l 1
 328.9921875 944.2578125 l 1
 326.44140625 898.326171875 l 1
 323.888671875 857.49609375 l 1
 318.78515625 821.76953125 l 1
 318.78515625 798.802734375 l 1
 323.19140625 794.396484375 l 1
 312.599609375 760.26953125 l 1
 299.841796875 719.439453125 l 1
 266.66796875 660.74609375 l 1
 225.837890625 599.501953125 l 1
 185.0078125 540.810546875 l 1
 139.07421875 487.220703125 l 1
 93.142578125 431.08203125 l 1
 57.416015625 400.458984375 l 1
 31.8984375 374.94140625 l 1
 26.794921875 341.767578125 l 1
 36.73046875 334.314453125 l 1
 19.34375 316.92578125 l 1
 8.349609375 286.697265625 l 1
 5.6015625 234.482421875 l 1
 5.6015625 190.51171875 l 1
 11.099609375 130.052734375 l 1
 24.83984375 102.572265625 l 1
 66.060546875 66.845703125 l 1
 93.54296875 50.357421875 l 1
 137.513671875 33.869140625 l 1
 181.482421875 36.6171875 l 1
 219.95703125 55.853515625 l 1
 250.1875 88.830078125 l 1
 283.1640625 130.052734375 l 1
 296.904296875 168.52734375 l 1
 302.400390625 212.498046875 l 1
 294.15625 270.208984375 l 1
 269.423828125 305.93359375 l 1
 239.193359375 333.416015625 l 1
 200.369140625 354.123046875 l 1
 200.318359375 354.525390625 l 1
 200.318359375 372.388671875 l 1
 230.94140625 413.21875 l 1
 269.21875 471.91015625 l 1
 327.912109375 556.12109375 l 1
 381.5 640.33203125 l 1
 408.55078125 703.44921875 l 1
 413.203125 696.73046875 l 1
 456.5859375 661.00390625 l 1
 530.587890625 607.416015625 l 1
 571.41796875 574.2421875 l 1
 635.21484375 546.171875 l 1
 709.216796875 502.7890625 l 1
 785.7734375 449.201171875 l 1
 831.705078125 421.130859375 l 1
 852.12109375 400.716796875 l 1
 836.80859375 377.75 l 1
 790.876953125 370.09375 l 1
 724.529296875 372.646484375 l 1
 625.005859375 364.990234375 l 1
 594.384765625 354.783203125 l 1
 576.521484375 336.919921875 l 1
 581.625 311.40234375 l 1
 607.14453125 290.986328125 l 1
 632.662109375 275.67578125 l 1
 673.4921875 268.01953125 l 1
 739.83984375 265.46875 l 1
 780.669921875 260.365234375 l 1
 811.291015625 257.8125 l 1
 826.6015625 234.845703125 l 1
 816.39453125 214.431640625 l 1
 767.91015625 194.017578125 l 1
 739.83984375 181.2578125 l 1
 693.90625 150.634765625 l 1
 650.525390625 117.4609375 l 1
 614.798828125 84.287109375 l 1
 573.970703125 40.90625 l 1
 535.69140625 -2.474609375 l 1
 522.93359375 -35.6484375 l 1
 517.830078125 -68.822265625 l 1
 522.93359375 -114.755859375 l 1
 543.34765625 -137.72265625 l 1
 579.07421875 -163.240234375 l 1
 637.765625 -191.310546875 l 1
 686.25 -211.7265625 l 1
 727.080078125 -224.484375 l 1
 801.083984375 -242.34765625 l 1
 859.775390625 -252.5546875 l 1
 890.3984375 -270.41796875 l 1
 913.365234375 -275.521484375 l 1
 928.67578125 -288.28125 l 1
 938.8828125 -306.14453125 l 1
 915.916015625 -324.0078125 l 1
 882.7421875 -339.318359375 l 1
 877.638671875 -349.525390625 l 1
 885.294921875 -369.939453125 l 1
 910.8125 -385.251953125 l 1
 943.986328125 -385.251953125 l 1
 987.3671875 -375.04296875 l 1
 1023.09375 -354.62890625 l 1
 1043.5078125 -321.455078125 l 1
 1030.75 -275.521484375 l 1
 1002.6796875 -252.5546875 l 1
 974.609375 -219.380859375 l 1
 908.26171875 -206.623046875 l 1
 857.224609375 -193.86328125 l 1
 801.083984375 -176 l 1
 724.529296875 -160.689453125 l 1
 676.04296875 -142.826171875 l 1
 645.421875 -127.515625 l 1
 619.90234375 -109.65234375 l 1
 617.3515625 -81.58203125 l 1
 632.662109375 -45.85546875 l 1
 663.28515625 -2.474609375 l 1
 724.529296875 48.5625 l 1
 775.564453125 79.18359375 l 1
 847.017578125 114.91015625 l 1
 890.3984375 148.083984375 l 1
 943.986328125 176.154296875 l 1
 964.40234375 194.017578125 l 1
 977.16015625 214.431640625 l 1
 977.16015625 252.708984375 l 1
 966.953125 280.779296875 l 1
 954.193359375 293.5390625 l 1
 943.986328125 313.953125 l 1
 961.849609375 336.919921875 l 1
 974.609375 354.783203125 l 1
 974.609375 400.716796875 l 1
 943.986328125 444.09765625 l 1
 910.8125 467.064453125 l 1
 859.775390625 495.134765625 l 1
 798.53125 533.412109375 l 1
 734.736328125 574.2421875 l 1
 688.802734375 617.623046875 l 1
 635.21484375 658.451171875 l 1
 566.314453125 706.9375 l 1
 510.173828125 750.318359375 l 1
 466.79296875 801.35546875 l 1
 454.033203125 826.873046875 l 1
 451.515625 843.66015625 l 1
 452.951171875 849.583984375 l 1
 463.158203125 900.619140625 l 1
 463.158203125 933.79296875 l 1
 442.744140625 972.072265625 l 1
 414.673828125 974.623046875 l 1
 401.701171875 972.892578125 l 1
 395.341796875 974.880859375 l 1
170.490234375 286.697265625 m 1
 189.728515625 261.962890625 l 1
 206.216796875 234.482421875 l 1
 206.216796875 201.50390625 l 1
 197.97265625 176.771484375 l 1
 184.23046875 152.0390625 l 1
 162.24609375 132.80078125 l 1
 132.017578125 130.052734375 l 1
 112.779296875 135.548828125 l 1
 110.03125 163.03125 l 1
 110.03125 185.015625 l 1
 115.52734375 217.994140625 l 1
 129.26953125 267.458984375 l 1
 148.505859375 283.94921875 l 1
 170.490234375 286.697265625 l 1
EndSplineSet
Ligature2: "msbarocci102fin1-<1,2> Common Ligatures lookup 0 subtable" uniE031 xi
EndChar

StartChar: zeta
Encoding: 46 950 46
Width: 727
VWidth: 824
GlyphClass: 1
Flags: MW
HStem: -93.1445 74.1992
LayerCount: 2
Fore
SplineSet
431.45703125 610.37890625 m 1
 368.25 599.38671875 l 1
 299.546875 571.904296875 l 1
 233.591796875 522.4375 l 1
 173.1328125 478.46875 l 1
 115.421875 409.763671875 l 1
 65.955078125 363.046875 l 1
 30.23046875 302.587890625 l 1
 2.748046875 258.6171875 l 1
 -5.49609375 228.38671875 l 1
 -2.748046875 203.654296875 l 1
 19.236328125 176.173828125 l 1
 49.466796875 184.41796875 l 1
 87.939453125 236.6328125 l 1
 129.162109375 286.09765625 l 1
 131.91015625 299.83984375 l 1
 162.140625 341.060546875 l 1
 219.8515625 409.763671875 l 1
 272.06640625 450.986328125 l 1
 335.2734375 494.95703125 l 1
 406.724609375 516.94140625 l 1
 461.6875 527.93359375 l 1
 524.89453125 519.689453125 l 1
 582.60546875 494.95703125 l 1
 599.09375 459.23046875 l 1
 621.078125 415.26171875 l 1
 607.337890625 376.787109375 l 1
 577.109375 346.556640625 l 1
 522.146484375 316.328125 l 1
 475.427734375 291.59375 l 1
 414.96875 280.6015625 l 1
 387.48828125 261.365234375 l 1
 390.236328125 220.142578125 l 1
 398.48046875 187.166015625 l 1
 431.45703125 165.1796875 l 1
 489.16796875 162.431640625 l 1
 590.849609375 165.1796875 l 1
 640.31640625 154.1875 l 1
 662.30078125 129.455078125 l 1
 676.041015625 99.224609375 l 1
 667.796875 55.25390625 l 1
 643.064453125 19.529296875 l 1
 610.0859375 -2.455078125 l 1
 546.87890625 -21.693359375 l 1
 414.96875 -27.189453125 l 1
 302.294921875 -18.9453125 l 1
 239.087890625 -18.9453125 l 1
 175.880859375 -10.701171875 l 1
 137.40625 8.537109375 l 1
 115.421875 36.017578125 l 1
 96.185546875 63.5 l 1
 60.458984375 74.4921875 l 1
 27.48046875 71.744140625 l 1
 10.9921875 47.009765625 l 1
 24.732421875 14.033203125 l 1
 52.21484375 -18.9453125 l 1
 104.4296875 -46.42578125 l 1
 178.62890625 -71.16015625 l 1
 239.087890625 -84.900390625 l 1
 316.03515625 -95.892578125 l 1
 398.48046875 -93.14453125 l 1
 533.138671875 -93.14453125 l 1
 579.857421875 -93.14453125 l 1
 643.064453125 -87.6484375 l 1
 687.03515625 -62.916015625 l 1
 728.255859375 -24.44140625 l 1
 761.234375 27.7734375 l 1
 772.2265625 85.484375 l 1
 772.2265625 148.69140625 l 1
 763.982421875 184.41796875 l 1
 733.751953125 203.654296875 l 1
 684.28515625 228.38671875 l 1
 645.8125 239.380859375 l 1
 621.078125 239.380859375 l 1
 607.337890625 250.373046875 l 1
 634.8203125 280.6015625 l 1
 684.28515625 302.587890625 l 1
 711.767578125 332.81640625 l 1
 722.759765625 393.275390625 l 1
 703.5234375 470.22265625 l 1
 665.048828125 516.94140625 l 1
 623.826171875 549.919921875 l 1
 568.865234375 585.64453125 l 1
 508.40625 607.630859375 l 1
 431.45703125 610.37890625 l 1
EndSplineSet
EndChar

StartChar: phi
Encoding: 47 966 47
Width: 600
VWidth: 824
GlyphClass: 1
Flags: MW
VStem: 192.095 79.582
LayerCount: 2
Fore
SplineSet
230.514648438 665.533203125 m 1
 183.862304688 657.30078125 l 1
 145.444335938 643.580078125 l 1
 118.000976562 621.626953125 l 1
 90.5595703125 599.671875 l 1
 71.3505859375 566.7421875 l 1
 65.8623046875 533.810546875 l 1
 74.0947265625 506.369140625 l 1
 96.0478515625 473.439453125 l 1
 126.233398438 451.484375 l 1
 142.700195312 429.53125 l 1
 134.467773438 418.5546875 l 1
 142.700195312 399.345703125 l 1
 126.233398438 374.646484375 l 1
 87.8154296875 347.205078125 l 1
 49.3955078125 306.041015625 l 1
 19.2099609375 262.134765625 l 1
 2.7451171875 220.970703125 l 1
 2.7451171875 174.318359375 l 1
 24.6982421875 122.1796875 l 1
 71.3505859375 94.736328125 l 1
 115.256835938 78.271484375 l 1
 178.374023438 70.0390625 l 1
 214.049804688 59.0625 l 1
 225.026367188 28.875 l 1
 214.049804688 -9.54296875 l 1
 205.815429688 -86.380859375 l 1
 192.094726562 -163.21875 l 1
 192.094726562 -226.3359375 l 1
 192.094726562 -262.01171875 l 1
 216.793945312 -281.220703125 l 1
 249.723632812 -281.220703125 l 1
 271.676757812 -262.01171875 l 1
 282.655273438 -207.126953125 l 1
 290.887695312 -157.73046875 l 1
 304.608398438 -105.58984375 l 1
 312.840820312 -64.427734375 l 1
 315.584960938 -20.51953125 l 1
 323.817382812 12.41015625 l 1
 329.305664062 42.59765625 l 1
 354.004882812 53.57421875 l 1
 406.143554688 45.341796875 l 1
 447.307617188 45.341796875 l 1
 493.958007812 45.341796875 l 1
 543.354492188 56.318359375 l 1
 587.262695312 78.271484375 l 1
 614.704101562 113.947265625 l 1
 614.704101562 155.109375 l 1
 611.959960938 190.78515625 l 1
 573.541992188 253.90234375 l 1
 529.633789062 303.296875 l 1
 491.213867188 338.97265625 l 1
 458.284179688 358.181640625 l 1
 430.842773438 374.646484375 l 1
 400.655273438 391.111328125 l 1
 395.166992188 415.810546875 l 1
 403.399414062 451.484375 l 1
 411.631835938 506.369140625 l 1
 406.143554688 561.25390625 l 1
 378.702148438 616.138671875 l 1
 343.026367188 651.8125 l 1
 274.420898438 665.533203125 l 1
 230.514648438 665.533203125 l 1
277.165039062 569.486328125 m 1
 290.887695312 561.25390625 l 1
 299.120117188 522.833984375 l 1
 301.864257812 487.16015625 l 1
 301.864257812 451.484375 l 1
 293.631835938 432.275390625 l 1
 255.211914062 445.99609375 l 1
 222.282226562 478.927734375 l 1
 203.071289062 498.13671875 l 1
 203.071289062 531.06640625 l 1
 225.026367188 561.25390625 l 1
 277.165039062 569.486328125 l 1
274.420898438 336.228515625 m 1
 274.420898438 289.576171875 l 1
 271.676757812 253.90234375 l 1
 271.676757812 220.970703125 l 1
 263.444335938 174.318359375 l 1
 241.491210938 130.412109375 l 1
 216.793945312 127.66796875 l 1
 175.629882812 133.15625 l 1
 139.956054688 141.388671875 l 1
 118.000976562 157.853515625 l 1
 118.000976562 199.017578125 l 1
 137.211914062 245.66796875 l 1
 178.374023438 295.064453125 l 1
 211.305664062 314.2734375 l 1
 249.723632812 333.484375 l 1
 274.420898438 336.228515625 l 1
378.702148438 295.064453125 m 1
 403.399414062 286.83203125 l 1
 447.307617188 242.923828125 l 1
 485.725585938 199.017578125 l 1
 513.168945312 160.59765625 l 1
 507.680664062 127.66796875 l 1
 491.213867188 122.1796875 l 1
 436.331054688 105.712890625 l 1
 400.655273438 108.458984375 l 1
 356.749023438 113.947265625 l 1
 343.026367188 135.900390625 l 1
 351.258789062 185.296875 l 1
 370.469726562 242.923828125 l 1
 378.702148438 295.064453125 l 1
EndSplineSet
EndChar

StartChar: Lambda
Encoding: 48 923 48
Width: 493
VWidth: 824
GlyphClass: 1
Flags: MW
HStem: 66.248 87.9395 79.9883 79.6953
LayerCount: 2
Fore
SplineSet
403.9765625 500.453125 m 1x80
 370.998046875 489.4609375 l 1
 346.265625 448.23828125 l 1
 316.03515625 401.51953125 l 1
 302.294921875 341.060546875 l 1
 280.310546875 305.3359375 l 1
 236.33984375 242.12890625 l 1
 170.384765625 129.455078125 l 1
 93.4375 38.765625 l 1
 10.9921875 -71.16015625 l 1
 -19.236328125 -104.13671875 l 1
 -27.48046875 -128.87109375 l 1
 -27.48046875 -167.34375 l 1
 -8.244140625 -197.57421875 l 1
 46.71875 -203.0703125 l 1
 79.6953125 -189.330078125 l 1
 98.93359375 -139.86328125 l 1
 123.666015625 -82.15234375 l 1
 200.61328125 14.033203125 l 1
 244.583984375 74.4921875 l 1
 294.05078125 74.4921875 l 1
 370.998046875 66.248046875 l 1
 453.443359375 66.248046875 l 1x80
 541.3828125 68.99609375 l 1
 632.072265625 79.98828125 l 1
 640.31640625 104.720703125 l 1
 640.31640625 140.447265625 l 1
 621.078125 159.68359375 l 1x40
 577.109375 154.1875 l 1
 524.89453125 154.1875 l 1
 467.18359375 154.1875 l 1
 409.47265625 148.69140625 l 1
 362.75390625 140.447265625 l 1
 327.02734375 154.1875 l 1
 343.517578125 195.41015625 l 1
 370.998046875 242.12890625 l 1
 395.732421875 283.349609375 l 1
 434.205078125 338.3125 l 1
 480.923828125 401.51953125 l 1
 505.65625 459.23046875 l 1
 483.671875 483.96484375 l 1
 445.197265625 494.95703125 l 1
 403.9765625 500.453125 l 1x80
EndSplineSet
EndChar

StartChar: sigma1
Encoding: 49 962 49
Width: 450
VWidth: 824
GlyphClass: 1
Flags: W
LayerCount: 2
Fore
SplineSet
230.923828125 452.099609375 m 1
 148.38671875 434.15625 l 1
 98.146484375 394.681640625 l 1
 58.671875 322.91015625 l 1
 29.962890625 258.31640625 l 1
 22.787109375 200.8984375 l 1
 26.375 143.48046875 l 1
 62.259765625 71.708984375 l 1
 105.32421875 39.412109375 l 1
 180.68359375 3.525390625 l 1
 245.279296875 -0.0625 l 1
 334.994140625 7.115234375 l 1
 396 43 l 1
 406.765625 78.88671875 l 1
 374.46875 104.005859375 l 1
 313.4609375 89.65234375 l 1
 266.810546875 86.064453125 l 1
 177.095703125 104.005859375 l 1
 137.62109375 129.126953125 l 1
 134.033203125 190.1328125 l 1
 144.798828125 243.9609375 l 1
 162.740234375 279.84765625 l 1
 184.2734375 330.087890625 l 1
 227.3359375 355.20703125 l 1
 266.810546875 365.97265625 l 1
 317.05078125 326.5 l 1
 385.234375 315.732421875 l 1
 449.828125 315.732421875 l 1
 460.59375 348.03125 l 1
 431.884765625 398.271484375 l 1
 396 426.98046875 l 1
 349.34765625 426.98046875 l 1
 299.107421875 452.099609375 l 1
 230.923828125 452.099609375 l 1
EndSplineSet
EndChar

StartChar: "+4DEDxwAA"
Encoding: 50 -1 50
Width: 826
VWidth: 824
GlyphClass: 1
Flags: W
LayerCount: 2
Fore
SplineSet
529.830078125 686.703125 m 1
 489.841796875 673.375 l 1
 446.5234375 636.71875 l 1
 376.544921875 590.068359375 l 1
 299.904296875 556.744140625 l 1
 203.267578125 503.4296875 l 1
 146.619140625 476.771484375 l 1
 69.9765625 423.455078125 l 1
 19.994140625 383.466796875 l 1
 13.328125 283.5 l 1
 19.994140625 233.515625 l 1
 66.64453125 203.525390625 l 1
 126.625 190.197265625 l 1
 216.59765625 186.86328125 l 1
 303.236328125 223.51953125 l 1
 347.5625 239.033203125 l 1
 359.884765625 216.853515625 l 1
 426.529296875 123.55078125 l 1
 442.11328125 101.2890625 l 1
 399.87109375 73.56640625 l 1
 303.236328125 3.58984375 l 1
 156.6171875 -83.048828125 l 1
 26.658203125 -149.693359375 l 1
 43.3203125 -193.013671875 l 1
 63.3125 -206.341796875 l 1
 113.296875 -199.677734375 l 1
 163.28125 -176.3515625 l 1
 229.92578125 -129.701171875 l 1
 319.896484375 -76.384765625 l 1
 459.8515625 -6.40625 l 1
 498.087890625 21.85546875 l 1
 603.138671875 -93.044921875 l 1
 673.1171875 -146.361328125 l 1
 743.09375 -169.6875 l 1
 776.416015625 -163.0234375 l 1
 769.751953125 -96.37890625 l 1
 646.458984375 0.2578125 l 1
 583.146484375 70.234375 l 1
 578.568359375 76.814453125 l 1
 599.806640625 90.228515625 l 1
 713.103515625 180.19921875 l 1
 783.08203125 230.18359375 l 1
 849.7265625 243.51171875 l 1
 909.70703125 273.501953125 l 1
 963.0234375 340.1484375 l 1
 983.017578125 373.470703125 l 1
 963.0234375 413.45703125 l 1
 913.0390625 416.7890625 l 1
 866.388671875 406.79296875 l 1
 823.068359375 383.466796875 l 1
 739.76171875 340.1484375 l 1
 629.796875 233.515625 l 1
 524.1171875 156.3984375 l 1
 459.8515625 263.505859375 l 1
 406.53515625 346.8125 l 1
 373.212890625 436.783203125 l 1
 365.84375 468.720703125 l 1
 389.875 480.103515625 l 1
 476.513671875 536.751953125 l 1
 563.15234375 603.396484375 l 1
 603.138671875 643.3828125 l 1
 593.142578125 673.375 l 1
 529.830078125 686.703125 l 1
247.0703125 409.337890625 m 1
 309.900390625 306.826171875 l 1
 320.04296875 288.5703125 l 1
 316.564453125 286.83203125 l 1
 276.578125 270.169921875 l 1
 229.92578125 263.505859375 l 1
 153.283203125 250.177734375 l 1
 123.29296875 270.169921875 l 1
 123.29296875 296.828125 l 1
 153.283203125 343.48046875 l 1
 193.271484375 373.470703125 l 1
 247.0703125 409.337890625 l 1
EndSplineSet
Ligature2: "msbarocci102fin1-<1,2> Common Ligatures lookup 0 subtable" uniE031 chi
EndChar

StartChar: Upsilon
Encoding: 51 933 51
Width: 469
VWidth: 824
GlyphClass: 1
Flags: W
LayerCount: 2
Fore
SplineSet
408.01953125 404.94921875 m 1
 380.228515625 389.068359375 l 1
 358.390625 365.24609375 l 1
 316.703125 325.54296875 l 1
 278.984375 287.82421875 l 1
 233.32421875 254.076171875 l 1
 197.591796875 250.10546875 l 1
 171.78515625 291.794921875 l 1
 159.873046875 343.41015625 l 1
 132.080078125 377.158203125 l 1
 84.4375 398.994140625 l 1
 26.8671875 397.009765625 l 1
 -4.896484375 383.11328125 l 1
 -12.837890625 357.3046875 l 1
 -24.748046875 329.513671875 l 1
 -20.77734375 303.705078125 l 1
 -8.8671875 275.9140625 l 1
 3.044921875 260.03125 l 1
 38.77734375 269.95703125 l 1
 62.599609375 275.9140625 l 1
 84.4375 250.10546875 l 1
 96.34765625 212.388671875 l 1
 100.318359375 162.7578125 l 1
 102.302734375 136.951171875 l 1
 104.2890625 77.396484375 l 1
 114.21484375 35.70703125 l 1
 147.962890625 3.943359375 l 1
 177.740234375 3.943359375 l 1
 207.517578125 23.796875 l 1
 211.48828125 59.529296875 l 1
 225.384765625 89.306640625 l 1
 249.20703125 113.12890625 l 1
 271.04296875 138.935546875 l 1
 318.6875 192.53515625 l 1
 338.5390625 212.388671875 l 1
 368.31640625 238.1953125 l 1
 404.05078125 250.10546875 l 1
 435.8125 228.26953125 l 1
 445.73828125 226.283203125 l 1
 487.427734375 238.1953125 l 1
 503.30859375 287.82421875 l 1
 505.294921875 323.55859375 l 1
 505.294921875 363.26171875 l 1
 489.412109375 391.052734375 l 1
 453.6796875 402.96484375 l 1
 408.01953125 404.94921875 l 1
EndSplineSet
EndChar

StartChar: Nu
Encoding: 52 925 52
Width: 482
VWidth: 824
GlyphClass: 1
Flags: W
LayerCount: 2
Fore
SplineSet
403.44140625 350.1015625 m 1
 374.84765625 338.0625 l 1
 367.32421875 324.517578125 l 1
 368.828125 295.92578125 l 1
 364.314453125 250.77734375 l 1
 347.759765625 231.21484375 l 1
 307.126953125 232.71875 l 1
 280.0390625 247.767578125 l 1
 251.447265625 259.806640625 l 1
 225.86328125 267.33203125 l 1
 200.28125 268.8359375 l 1
 182.22265625 265.826171875 l 1
 179.212890625 288.400390625 l 1
 179.212890625 327.52734375 l 1
 155.134765625 342.576171875 l 1
 117.51171875 347.091796875 l 1
 73.869140625 342.576171875 l 1
 39.2578125 323.013671875 l 1
 25.712890625 307.96484375 l 1
 21.19921875 286.896484375 l 1
 24.208984375 253.787109375 l 1
 39.2578125 237.234375 l 1
 57.31640625 238.73828125 l 1
 72.365234375 231.21484375 l 1
 69.35546875 210.146484375 l 1
 54.306640625 192.087890625 l 1
 45.27734375 174.029296875 l 2
 36.248046875 155.970703125 18.189453125 127.376953125 18.189453125 127.376953125 c 1
 4.64453125 101.79296875 l 1
 6.150390625 82.23046875 l 1
 10.6640625 64.171875 l 1
 21.19921875 44.607421875 l 1
 40.76171875 25.044921875 l 1
 63.3359375 3.9765625 l 1
 90.423828125 0.966796875 l 1
 117.51171875 11.5 l 1
 155.134765625 31.064453125 l 1
 177.70703125 43.103515625 l 1
 183.7265625 64.171875 l 1
 171.6875 77.71484375 l 1
 162.658203125 83.734375 l 1
 147.609375 91.259765625 l 1
 134.064453125 109.318359375 l 1
 138.580078125 143.931640625 l 1
 147.609375 163.494140625 l 1
 171.6875 195.09765625 l 1
 186.736328125 195.09765625 l 1
 218.33984375 186.068359375 l 1
 240.912109375 172.5234375 l 1
 268 165 l 1
 295.087890625 152.9609375 l 1
 316.158203125 143.931640625 l 1
 314.65234375 109.318359375 l 1
 319.16796875 91.259765625 l 1
 326.69140625 64.171875 l 1
 349.265625 46.11328125 l 1
 373.34375 38.587890625 l 1
 416.984375 26.548828125 l 1
 442.568359375 34.07421875 l 1
 454.607421875 50.626953125 l 1
 454.607421875 68.685546875 l 1
 448.587890625 89.75390625 l 1
 429.0234375 110.822265625 l 1
 436.548828125 130.38671875 l 1
 450.091796875 146.94140625 l 1
 454.607421875 163.494140625 l 1
 451.59765625 186.068359375 l 1
 466.646484375 220.6796875 l 1
 486.2109375 249.2734375 l 1
 487.71484375 274.85546875 l 1
 487.71484375 315.48828125 l 1
 474.171875 339.56640625 l 1
 444.072265625 348.595703125 l 1
 403.44140625 350.1015625 l 1
EndSplineSet
EndChar

StartChar: "+4CcDxAAA"
Encoding: 53 -1 53
Width: 698
VWidth: 824
GlyphClass: 1
Flags: MW
HStem: 311.646 77.4219 317.602 97.2734
LayerCount: 2
Fore
SplineSet
198.517578125 414.875 m 1x40
 142.93359375 412.890625 l 1
 111.169921875 410.90625 l 1
 83.376953125 395.0234375 l 1
 85.36328125 367.232421875 l 1
 85.36328125 367.232421875 95.2890625 351.349609375 95.2890625 341.423828125 c 0
 95.2890625 331.498046875 97.2734375 321.572265625 97.2734375 321.572265625 c 1
 67.49609375 289.810546875 l 1
 51.615234375 260.03125 l 1
 39.703125 212.388671875 l 1
 39.703125 170.69921875 l 1
 39.703125 130.99609375 l 1
 49.62890625 103.203125 l 1
 73.451171875 85.3359375 l 1
 105.21484375 65.484375 l 1
 138.962890625 53.57421875 l 1
 178.666015625 51.587890625 l 1
 210.4296875 67.470703125 l 1
 250.1328125 89.306640625 l 1
 277.923828125 95.26171875 l 1
 301.74609375 91.291015625 l 1
 313.658203125 71.439453125 l 1
 305.716796875 27.765625 l 1
 287.8515625 -35.759765625 l 1
 281.89453125 -85.388671875 l 1
 281.89453125 -127.078125 l 1
 285.865234375 -154.869140625 l 1
 323.583984375 -194.57421875 l 1
 369.2421875 -212.439453125 l 1
 408.947265625 -212.439453125 l 1
 456.58984375 -200.529296875 l 1
 530.04296875 -168.765625 l 1
 565.775390625 -109.2109375 l 1
 569.74609375 -91.34375 l 1
 555.849609375 -73.478515625 l 1
 528.056640625 -75.462890625 l 1
 500.263671875 -93.330078125 l 1
 446.6640625 -111.1953125 l 1
 418.873046875 -123.107421875 l 1
 397.03515625 -119.13671875 l 1
 395.05078125 -89.359375 l 1
 408.947265625 -37.744140625 l 1
 414.90234375 -0.025390625 l 1
 430.783203125 55.55859375 l 1
 438.724609375 109.158203125 l 1
 452.62109375 162.7578125 l 1
 462.546875 188.56640625 l 1
 472.47265625 232.240234375 l 1
 478.427734375 285.83984375 l 1
 492.32421875 311.646484375 l 1
 589.59765625 311.646484375 l 1
 688.85546875 315.6171875 l 1
 760.322265625 311.646484375 l 1
 809.951171875 309.662109375 l 1
 849.65625 315.6171875 l 1
 873.478515625 351.349609375 l 1
 859.58203125 369.216796875 l 1
 823.84765625 387.083984375 l 1
 704.73828125 391.052734375 l 1
 530.04296875 389.068359375 l 1x80
 458.576171875 400.98046875 l 1
 337.48046875 404.94921875 l 1
 266.013671875 414.875 l 1
 198.517578125 414.875 l 1x40
333.509765625 323.55859375 m 1
 351.376953125 317.6015625 l 1
 365.2734375 303.705078125 l 1
 367.2578125 281.869140625 l 1
 359.31640625 240.1796875 l 1
 347.40625 216.357421875 l 1
 323.583984375 182.609375 l 1
 287.8515625 156.802734375 l 1
 258.072265625 134.966796875 l 1
 202.48828125 117.099609375 l 1
 174.6953125 117.099609375 l 1
 152.859375 127.025390625 l 1
 138.962890625 142.90625 l 1
 129.037109375 186.580078125 l 1
 136.9765625 214.373046875 l 1
 150.873046875 252.091796875 l 1
 174.6953125 273.927734375 l 1
 206.458984375 313.630859375 l 1
 230.28125 317.6015625 l 1x40
 283.880859375 319.587890625 l 1
 333.509765625 323.55859375 l 1
EndSplineSet
Ligature2: "msbarocci102fin1-<1,2> Common Ligatures lookup 0 subtable" uniE027 tau
EndChar

StartChar: uni0394
Encoding: 54 916 54
Width: 900
VWidth: 824
GlyphClass: 1
Flags: MW
HStem: 191.926 93.0742 211.668 84.6133
LayerCount: 2
Fore
SplineSet
266.19140625 792.681640625 m 1x80
 195.6796875 784.220703125 l 1
 144.91015625 767.298828125 l 1
 111.06640625 750.375 l 1
 94.142578125 724.9921875 l 1
 65.9375 668.58203125 l 1
 54.65625 631.916015625 l 1
 60.296875 569.8671875 l 1
 91.322265625 561.404296875 l 1
 130.80859375 572.6875 l 1
 161.833984375 603.7109375 l 1
 192.859375 660.12109375 l 1
 212.6015625 693.966796875 l 1
 240.806640625 708.068359375 l 1
 297.21484375 705.248046875 l 1
 359.265625 693.966796875 l 1
 424.13671875 677.04296875 l 1
 483.365234375 626.275390625 l 1
 514.390625 567.044921875 l 1
 497.46875 541.662109375 l 1
 466.443359375 521.91796875 l 1
 429.77734375 479.611328125 l 1
 404.392578125 442.9453125 l 1
 359.265625 378.07421875 l 1
 347.984375 332.947265625 l 1
 339.5234375 299.1015625 l 1
 308.498046875 296.28125 l 1
 271.83203125 296.28125 l 1x40
 192.859375 304.744140625 l 1
 -92.005859375 327.306640625 l 1
 -142.775390625 335.767578125 l 1
 -159.697265625 307.564453125 l 1
 -165.337890625 285 l 1x80
 -168.158203125 262.435546875 l 1
 -151.236328125 251.154296875 l 1
 -131.4921875 234.232421875 l 1
 -94.828125 234.232421875 l 1
 263.37109375 222.94921875 l 1
 345.1640625 214.48828125 l 1
 466.443359375 211.66796875 l 1x40
 596.18359375 206.02734375 l 1
 737.20703125 194.74609375 l 1
 819 200.38671875 l 1
 914.896484375 191.92578125 l 1
 1022.07226562 191.92578125 l 1
 1055.91796875 191.92578125 l 1
 1075.66210938 220.12890625 l 1
 1075.66210938 256.794921875 l 1
 1044.63671875 259.615234375 l 1
 1016.43164062 262.435546875 l 1
 968.484375 268.078125 l 1
 906.43359375 282.1796875 l 1
 819 285 l 1
 768.232421875 285 l 1
 742.84765625 301.923828125 l 1
 725.92578125 344.23046875 l 1
 700.541015625 394.998046875 l 1
 675.15625 426.0234375 l 1
 652.59375 473.970703125 l 1
 635.669921875 536.021484375 l 1
 593.36328125 617.814453125 l 1
 551.056640625 677.04296875 l 1
 483.365234375 739.09375 l 1
 412.853515625 772.939453125 l 1
 342.34375 784.220703125 l 1
 266.19140625 792.681640625 l 1x80
596.18359375 445.765625 m 1
 607.466796875 414.740234375 l 1
 621.568359375 386.537109375 l 1
 630.029296875 332.947265625 l 1
 646.953125 285 l 1x80
 618.748046875 282.1796875 l 1
 570.80078125 282.1796875 l 1
 531.314453125 287.8203125 l 1
 480.544921875 290.640625 l 1
 449.51953125 299.1015625 l 1
 452.33984375 324.486328125 l 1
 463.623046875 341.41015625 l 1
 494.6484375 383.716796875 l 1
 553.876953125 442.9453125 l 1
 596.18359375 445.765625 l 1
EndSplineSet
EndChar

StartChar: "+4CYDxAAA"
Encoding: 55 -1 55
Width: 900
VWidth: 824
GlyphClass: 1
Flags: MW
HStem: -122.057 35.6758 258.84 98.4863 310.288 44.0605
VStem: 675.076 76.8379
LayerCount: 2
Fore
SplineSet
260.904296875 359.91796875 m 1xd0
 165.009765625 357.326171875 l 1
 87.2578125 357.326171875 l 1
 25.0546875 357.326171875 l 1
 -24.189453125 341.775390625 l 1
 -63.064453125 323.6328125 l 1
 -99.349609375 313.265625 l 1
 -101.94140625 284.7578125 l 1
 -78.615234375 258.83984375 l 1
 -52.697265625 232.921875 l 1
 -19.005859375 217.37109375 l 1
 9.50390625 225.146484375 l 1
 45.7890625 251.064453125 l 1
 107.990234375 258.83984375 l 1
 144.275390625 258.83984375 l 1xd0
 128.724609375 214.779296875 l 1
 120.94921875 170.720703125 l 1
 131.31640625 116.29296875 l 1
 162.41796875 92.966796875 l 1
 216.845703125 61.865234375 l 1
 273.86328125 69.640625 l 1
 325.69921875 92.966796875 l 1
 367.166015625 103.333984375 l 1
 406.04296875 69.640625 l 1
 442.328125 48.90625 l 1
 494.1640625 25.58203125 l 1
 548.58984375 15.21484375 l 1
 595.2421875 28.173828125 l 1
 639.30078125 56.681640625 l 1
 667.810546875 95.55859375 l 1
 677.189453125 116.998046875 l 1
 675.076171875 53.57421875 l 1
 669.587890625 -26.0078125 l 1
 672.33203125 -78.1484375 l 1
 691.54296875 -113.82421875 l 1
 721.728515625 -122.056640625 l 1
 771.125 -130.2890625 l 1
 817.775390625 -122.056640625 l 1
 847.962890625 -108.3359375 l 1
 839.73046875 -86.380859375 l 1
 806.798828125 -80.892578125 l 1
 760.1484375 -72.66015625 l 1
 740.9375 -34.2421875 l 1
 751.9140625 12.41015625 l 1
 751.9140625 67.294921875 l 1
 751.9140625 133.15625 l 1
 749.169921875 204.505859375 l 1
 746.42578125 262.134765625 l 1
 744.71875 291.150390625 l 1
 768.888671875 289.94140625 l 1
 815.541015625 292.533203125 l 1
 905.029296875 299.922851562 l 1
 943.904296875 310.288085938 l 1
 959.455078125 336.206054688 l 1
 959.455078125 354.348632812 l 1xb0
 907.62109375 356.940429688 l 1
 802.58203125 357.326171875 l 1
 730.013671875 354.734375 l 1
 644.484375 354.734375 l 1
 553.7734375 346.958984375 l 1
 470.837890625 346.958984375 l 1
 361.984375 346.958984375 l 1
 260.904296875 359.91796875 l 1xd0
675.6328125 282.177734375 m 1
 676.568359375 251.33984375 l 1
 675.5859375 256.248046875 l 1
 675.5859375 282.166015625 l 1
 675.6328125 282.177734375 l 1
483.796875 276.982421875 m 1
 512.3046875 269.20703125 l 1
 538.22265625 251.064453125 l 1
 569.32421875 219.962890625 l 1
 577.099609375 199.228515625 l 1
 582.283203125 181.0859375 l 1
 582.283203125 149.986328125 l 1
 577.099609375 129.251953125 l 1
 564.140625 108.517578125 l 1
 538.22265625 98.150390625 l 1
 517.48828125 98.150390625 l 1
 486.388671875 111.109375 l 1
 463.0625 134.435546875 l 1
 457.87890625 157.76171875 l 1
 455.287109375 188.861328125 l 1
 457.87890625 219.962890625 l 1
 463.0625 258.83984375 l 1
 483.796875 276.982421875 l 1
304.96484375 274.390625 m 1
 328.291015625 274.390625 l 1
 343.841796875 264.0234375 l 1
 343.841796875 232.921875 l 1
 330.8828125 199.228515625 l 1
 307.556640625 170.720703125 l 1
 263.49609375 162.9453125 l 1
 247.9453125 173.3125 l 1
 247.9453125 191.453125 l 1
 260.904296875 219.962890625 l 1
 276.455078125 256.248046875 l 1
 304.96484375 274.390625 l 1
EndSplineSet
Ligature2: "msbarocci102fin1-<1,2> Common Ligatures lookup 0 subtable" uniE026 tau
EndChar

StartChar: "+4CcDyQAA"
Encoding: 56 -1 56
Width: 780
VWidth: 824
GlyphClass: 1
Flags: MW
VStem: 18.6602 97.4512
LayerCount: 2
Fore
SplineSet
360.7734375 717.0625 m 1
 269.54296875 702.548828125 l 1
 176.240234375 654.861328125 l 1
 134.771484375 611.3203125 l 1
 97.451171875 538.75 l 1
 58.056640625 437.15234375 l 1
 45.615234375 408.125 l 1
 41.46875 387.390625 l 1
 29.02734375 354.216796875 l 1
 24.880859375 306.529296875 l 1
 16.587890625 244.326171875 l 1
 18.66015625 196.638671875 l 1
 31.1015625 163.462890625 l 1
 45.615234375 117.849609375 l 1
 76.716796875 78.453125 l 1
 122.33203125 41.1328125 l 1
 153.431640625 22.47265625 l 1
 196.974609375 -2.408203125 l 1
 257.103515625 -16.921875 l 1
 315.158203125 -18.99609375 l 1
 364.919921875 -18.99609375 l 1
 408.4609375 -16.921875 l 1
 452.00390625 5.884765625 l 1
 485.177734375 34.912109375 l 1
 512.130859375 61.8671875 l 1
 537.01171875 95.041015625 l 1
 547.37890625 109.5546875 l 1
 578.48046875 111.62890625 l 1
 617.875 113.701171875 l 1
 659.34375 111.62890625 l 1
 719.47265625 117.849609375 l 1
 756.79296875 138.58203125 l 1
 785.822265625 165.537109375 l 1
 798.26171875 192.4921875 l 1
 796.189453125 233.958984375 l 1
 779.6015625 277.501953125 l 1
 765.087890625 308.6015625 l 1
 744.353515625 352.14453125 l 1
 709.10546875 377.025390625 l 1
 680.078125 393.611328125 l 1
 642.755859375 399.83203125 l 1
 607.5078125 399.83203125 l 1
 601.2890625 395.685546875 l 1
 553.599609375 385.318359375 l 1
 522.498046875 372.876953125 l 1
 503.837890625 387.390625 l 1
 464.443359375 416.419921875 l 1
 398.09375 422.638671875 l 1
 319.3046875 408.125 l 1
 279.91015625 399.83203125 l 1
 221.85546875 374.951171875 l 1
 196.974609375 354.216796875 l 1
 167.9453125 325.189453125 l 1
 153.431640625 285.794921875 l 1
 163.798828125 240.1796875 l 1
 186.607421875 196.638671875 l 1
 215.634765625 182.125 l 1
 257.103515625 157.244140625 l 1
 321.37890625 134.435546875 l 1
 360.7734375 132.36328125 l 1
 400.16796875 128.21484375 l 1
 418.828125 134.435546875 l 1
 410.53515625 84.673828125 l 1
 369.06640625 61.8671875 l 1
 335.892578125 45.279296875 l 1
 292.3515625 41.1328125 l 1
 234.294921875 61.8671875 l 1
 186.607421875 101.26171875 l 1
 153.431640625 134.435546875 l 1
 128.55078125 180.05078125 l 1
 116.111328125 236.033203125 l 1
 116.111328125 296.162109375 l 1
 138.91796875 393.611328125 l 1
 155.505859375 443.373046875 l 1
 190.75390625 520.08984375 l 1
 246.736328125 582.291015625 l 1
 298.5703125 613.392578125 l 1
 373.212890625 632.052734375 l 1
 431.26953125 623.759765625 l 1
 483.103515625 611.3203125 l 1
 526.646484375 603.025390625 l 1
 574.333984375 580.21875 l 1
 595.068359375 578.14453125 l 1
 613.728515625 594.732421875 l 1
 605.435546875 640.34765625 l 1
 545.306640625 683.888671875 l 1
 483.103515625 706.6953125 l 1
 425.048828125 714.990234375 l 1
 360.7734375 717.0625 l 1
406.388671875 335.556640625 m 1
 429.1953125 327.263671875 l 1
 452.00390625 304.455078125 l 1
 462.369140625 283.720703125 l 1
 466.517578125 240.1796875 l 1
 456.150390625 213.224609375 l 1
 433.341796875 196.638671875 l 1
 385.654296875 198.7109375 l 1
 356.626953125 200.78515625 l 1
 321.37890625 207.005859375 l 1
 296.498046875 217.373046875 l 1
 273.689453125 229.8125 l 1
 269.54296875 248.47265625 l 1
 275.763671875 273.353515625 l 1
 300.64453125 296.162109375 l 1
 329.671875 318.96875 l 1
 362.845703125 327.263671875 l 1
 381.5078125 333.482421875 l 1
 406.388671875 335.556640625 l 1
624.095703125 294.087890625 m 1
 655.197265625 292.015625 l 1
 673.857421875 275.427734375 l 1
 684.224609375 246.400390625 l 1
 684.224609375 229.8125 l 1
 675.931640625 204.931640625 l 1
 657.26953125 192.4921875 l 1
 622.021484375 192.4921875 l 1
 597.140625 202.857421875 l 1
 576.408203125 217.373046875 l 1
 574.333984375 233.958984375 l 1
 574.333984375 254.693359375 l 1
 576.408203125 265.060546875 l 1
 599.21484375 283.720703125 l 1
 624.095703125 294.087890625 l 1
EndSplineSet
Ligature2: "msbarocci102fin1-<1,2> Common Ligatures lookup 0 subtable" uniE031 uni03A9
EndChar

StartChar: "+4DEDxQAA"
Encoding: 57 -1 57
Width: 626
VWidth: 824
GlyphClass: 1
Flags: W
LayerCount: 2
Fore
SplineSet
492.43359375 688.5546875 m 1
 444.537109375 642.755859375 l 1
 361.599609375 572.779296875 l 1
 247.5625 487.25 l 1
 159.443359375 401.72265625 l 1
 81.689453125 316.1953125 l 1
 37.630859375 253.9921875 l 1
 9.12109375 215.115234375 l 1
 6.529296875 173.6484375 l 1
 22.080078125 134.771484375 l 1
 60.95703125 101.078125 l 1
 112.791015625 80.34375 l 1
 195.7265625 67.384765625 l 1
 281.255859375 75.16015625 l 1
 353.82421875 111.4453125 l 1
 384.92578125 129.587890625 l 1
 423.802734375 85.52734375 l 1
 488.595703125 41.46875 l 1
 555.982421875 12.958984375 l 1
 613 0 l 1
 690.75390625 20.734375 l 1
 786.6484375 67.384765625 l 1
 864.400390625 124.404296875 l 1
 900.685546875 165.873046875 l 1
 926.603515625 196.97265625 l 1
 944.74609375 228.07421875 l 1
 944.74609375 261.767578125 l 1
 913.64453125 274.7265625 l 1
 872.17578125 269.54296875 l 1
 812.56640625 215.115234375 l 1
 752.955078125 171.056640625 l 1
 701.12109375 129.587890625 l 1
 677.794921875 108.853515625 l 1
 623.3671875 85.52734375 l 1
 584.4921875 90.7109375 l 1
 524.880859375 111.4453125 l 1
 475.63671875 165.873046875 l 1
 428.986328125 222.890625 l 1
 392.701171875 272.134765625 l 1
 348.640625 329.15234375 l 1
 322.724609375 368.029296875 l 1
 294.21484375 401.72265625 l 1
 359.0078125 453.55859375 l 1
 423.802734375 497.6171875 l 1
 504.146484375 557.228515625 l 1
 555.982421875 596.103515625 l 1
 568.94140625 619.4296875 l 1
 568.94140625 650.53125 l 1
 544.26953125 688.5546875 l 1
 492.43359375 688.5546875 l 1
224.236328125 323.96875 m 1
 273.48046875 272.134765625 l 1
 304.58203125 235.849609375 l 1
 327.90625 209.931640625 l 1
 346.048828125 181.423828125 l 1
 340.865234375 160.689453125 l 1
 301.990234375 142.546875 l 1
 200.91015625 121.8125 l 1
 125.75 142.546875 l 1
 97.240234375 160.689453125 l 1
 102.423828125 202.15625 l 1
 143.892578125 246.216796875 l 1
 195.7265625 300.64453125 l 1
 224.236328125 323.96875 l 1
EndSplineSet
Ligature2: "msbarocci102fin1-<1,2> Common Ligatures lookup 0 subtable" uniE031 upsilon
EndChar

StartChar: psi
Encoding: 58 968 58
Width: 610
VWidth: 824
GlyphClass: 1
Flags: W
LayerCount: 2
Fore
SplineSet
344.333984375 744.462890625 m 1
 297.681640625 708.91796875 l 1
 266.580078125 651.158203125 l 1
 279.91015625 586.734375 l 1
 279.91015625 535.640625 l 1
 279.91015625 480.103515625 l 1
 279.91015625 415.6796875 l 1
 273.24609375 357.919921875 l 1
 259.916015625 240.1796875 l 1
 253.251953125 189.0859375 l 1
 233.2578125 173.53515625 l 1
 215.486328125 175.755859375 l 1
 144.3984375 249.06640625 l 1
 84.41796875 313.490234375 l 1
 62.203125 317.93359375 l 1
 35.544921875 302.3828125 l 1
 19.994140625 295.71875 l 1
 8.88671875 266.837890625 l 1
 22.21484375 235.736328125 l 1
 46.65234375 222.408203125 l 1
 79.974609375 200.193359375 l 1
 131.068359375 144.65625 l 1
 177.720703125 86.896484375 l 1
 211.04296875 38.0234375 l 1
 211.04296875 -1.96484375 l 1
 191.048828125 -68.609375 l 1
 155.505859375 -219.671875 l 1
 139.955078125 -266.32421875 l 1
 139.955078125 -295.203125 l 1
 157.7265625 -315.197265625 l 1
 173.27734375 -328.525390625 l 1
 195.4921875 -326.3046875 l 1
 224.373046875 -301.8671875 l 1
 248.80859375 -250.7734375 l 1
 268.802734375 -181.90625 l 1
 286.57421875 -90.82421875 l 1
 288.796875 -50.837890625 l 1
 311.01171875 -30.84375 l 1
 339.890625 -30.84375 l 1
 353.21875 -19.736328125 l 1
 357.662109375 13.5859375 l 1
 359.884765625 31.359375 l 1
 373.212890625 46.908203125 l 1
 395.427734375 55.794921875 l 1
 439.859375 75.7890625 l 1
 524.275390625 142.43359375 l 1
 613.13671875 222.408203125 l 1
 655.34375 240.1796875 l 1
 670.89453125 262.39453125 l 1
 668.673828125 284.609375 l 1
 650.90234375 311.267578125 l 1
 624.244140625 315.7109375 l 1
 595.36328125 313.490234375 l 1
 550.93359375 293.49609375 l 1
 486.509765625 235.736328125 l 1
 450.966796875 191.306640625 l 1
 390.984375 153.541015625 l 1
 348.77734375 151.3203125 l 1
 350.998046875 173.53515625 l 1
 357.662109375 204.63671875 l 1
 362.10546875 255.73046875 l 1
 366.548828125 304.603515625 l 1
 377.65625 380.134765625 l 1
 402.09375 462.330078125 l 1
 406.53515625 568.962890625 l 1
 406.53515625 653.380859375 l 1
 395.427734375 706.697265625 l 1
 375.435546875 740.01953125 l 1
 344.333984375 744.462890625 l 1
EndSplineSet
EndChar

StartChar: uni03A9
Encoding: 59 937 59
Width: 542
VWidth: 824
GlyphClass: 1
Flags: W
LayerCount: 2
Fore
SplineSet
519.4296875 320.59765625 m 1
 491.947265625 301.361328125 l 1
 475.458984375 273.880859375 l 1
 483.703125 243.650390625 l 1
 489.19921875 196.931640625 l 1
 478.20703125 144.716796875 l 1
 458.970703125 119.984375 l 1
 415 98 l 1
 376.525390625 100.748046875 l 1
 362.78515625 111.740234375 l 1
 362.78515625 152.962890625 l 1
 373.77734375 185.939453125 l 1
 382.021484375 227.162109375 l 1
 379.2734375 262.88671875 l 1
 371.029296875 301.361328125 l 1
 343.548828125 304.109375 l 1
 294.08203125 304.109375 l 1
 272.09765625 287.62109375 l 1
 258.35546875 268.384765625 l 1
 247.36328125 205.17578125 l 1
 222.630859375 150.21484375 l 1
 162.171875 117.236328125 l 1
 109.95703125 106.244140625 l 1
 104.4609375 130.9765625 l 1
 123.697265625 196.931640625 l 1
 140.185546875 216.169921875 l 1
 153.927734375 246.3984375 l 1
 145.681640625 282.125 l 1
 123.697265625 309.60546875 l 1
 87.970703125 309.60546875 l 1
 49.498046875 287.62109375 l 1
 22.015625 251.89453125 l 1
 2.779296875 216.169921875 l 1
 -2.716796875 147.46484375 l 1
 5.52734375 89.755859375 l 1
 30.26171875 51.28125 l 1
 63.23828125 29.294921875 l 1
 112.705078125 4.5625 l 1
 153.927734375 10.05859375 l 1
 200.64453125 34.79296875 l 1
 239.119140625 54.029296875 l 1
 261.103515625 54.029296875 l 1
 299.578125 26.546875 l 1
 332.556640625 10.05859375 l 1
 379.2734375 4.5625 l 1
 423.244140625 4.5625 l 1
 458.970703125 18.302734375 l 1
 508.4375 51.28125 l 1
 555.154296875 87.005859375 l 1
 585.384765625 144.716796875 l 1
 590.880859375 202.427734375 l 1
 588.1328125 243.650390625 l 1
 566.1484375 284.873046875 l 1
 552.40625 304.109375 l 1
 519.4296875 320.59765625 l 1
EndSplineSet
EndChar

StartChar: Gamma
Encoding: 60 915 60
Width: 730
VWidth: 824
GlyphClass: 1
Flags: W
LayerCount: 2
Fore
SplineSet
999.046875 731.099609375 m 1
 964.595703125 711.9609375 l 1
 941.62890625 669.85546875 l 1
 880.384765625 627.75 l 1
 803.830078125 589.47265625 l 1
 692.82421875 585.64453125 l 1
 623.92578125 600.95703125 l 1
 539.71484375 620.095703125 l 1
 459.33203125 639.234375 l 1
 409.5703125 650.716796875 l 1
 317.705078125 669.85546875 l 1
 244.9765625 654.544921875 l 1
 187.560546875 643.0625 l 1
 137.798828125 600.95703125 l 1
 149.283203125 566.505859375 l 1
 176.076171875 505.26171875 l 1
 172.25 432.53515625 l 1
 122.48828125 183.73046875 l 1
 91.8671875 38.275390625 l 1
 65.072265625 -57.41796875 l 1
 57.416015625 -111.0078125 l 1
 68.900390625 -168.423828125 l 1
 95.693359375 -210.529296875 l 1
 179.904296875 -206.701171875 l 1
 256.4609375 -187.5625 l 1
 340.669921875 -156.94140625 l 1
 333.015625 -118.662109375 l 1
 310.048828125 -107.1796875 l 1
 264.115234375 -111.0078125 l 1
 199.04296875 -111.0078125 l 1
 176.076171875 -95.697265625 l 1
 164.59375 -61.24609375 l 1
 183.732421875 38.275390625 l 1
 218.181640625 160.763671875 l 1
 229.666015625 264.11328125 l 1
 267.943359375 432.53515625 l 1
 267.943359375 524.400390625 l 1
 275.599609375 551.1953125 l 1
 298.56640625 574.162109375 l 1
 344.498046875 585.64453125 l 1
 417.2265625 577.990234375 l 1
 497.609375 562.6796875 l 1
 577.9921875 532.056640625 l 1
 666.03125 512.91796875 l 1
 734.9296875 497.607421875 l 1
 842.107421875 505.26171875 l 1
 930.146484375 528.228515625 l 1
 991.390625 577.990234375 l 1
 1052.63476562 677.51171875 l 1
 1033.49609375 731.099609375 l 1
 999.046875 731.099609375 l 1
EndSplineSet
EndChar

StartChar: epsilon
Encoding: 61 949 61
Width: 304
VWidth: 824
GlyphClass: 1
Flags: MW
HStem: 20.6113 49.4648
LayerCount: 2
Fore
SplineSet
63.068359375 428.708984375 m 1
 38.333984375 350.38671875 l 1
 30.08984375 218.4765625 l 1
 30.08984375 111.298828125 l 1
 63.068359375 53.587890625 l 1
 100.16796875 24.732421875 l 1
 162 0 l 1
 232.078125 20.611328125 l 1
 265.056640625 45.34375 l 1
 232.078125 70.076171875 l 1
 174.3671875 70.076171875 l 1
 137.267578125 90.6875 l 1
 149.634765625 140.154296875 l 1
 199.1015625 152.521484375 l 1
 244.4453125 177.25390625 l 1
 236.201171875 234.96484375 l 1
 207.345703125 247.33203125 l 1
 153.755859375 247.33203125 l 1
 149.634765625 300.919921875 l 1
 170.24609375 338.01953125 l 1
 215.58984375 321.53125 l 1
 277.421875 346.265625 l 1
 285.66796875 391.609375 l 1
 248.56640625 420.46484375 l 1
 166.123046875 428.708984375 l 1
 63.068359375 428.708984375 l 1
EndSplineSet
EndChar

StartChar: Phi
Encoding: 62 934 62
Width: 662
VWidth: 824
GlyphClass: 1
Flags: MW
VStem: 263.82 93.4375 277.562 90.6875
LayerCount: 2
Fore
SplineSet
382.099609375 884.41796875 m 1x40
 355.44140625 873.310546875 l 1
 344.333984375 833.322265625 l 1
 333.2265625 800 l 1
 326.5625 740.01953125 l 1
 308.7890625 675.595703125 l 1
 295.4609375 615.615234375 l 1
 277.6875 560.078125 l 1
 222.599609375 522.4375 l 1
 156.64453125 486.712890625 l 1
 104.4296875 437.24609375 l 1
 68.703125 398.771484375 l 1
 24.732421875 349.3046875 l 1
 10.9921875 288.845703125 l 1
 21.984375 222.890625 l 1
 74.19921875 154.1875 l 1
 140.154296875 110.216796875 l 1
 195.1171875 82.736328125 l 1
 263.8203125 74.4921875 l 1x80
 274.814453125 38.765625 l 1
 277.5625 -126.123046875 l 1
 277.5625 -227.802734375 l 1x40
 283.05859375 -304.751953125 l 1
 269.318359375 -343.224609375 l 1
 250.080078125 -359.712890625 l 1
 222.599609375 -387.1953125 l 1
 222.599609375 -411.927734375 l 1
 239.087890625 -431.166015625 l 1
 288.5546875 -444.90625 l 1
 357.2578125 -433.9140625 l 1x80
 384.73828125 -403.68359375 l 1
 376.494140625 -367.958984375 l 1
 370.998046875 -302.00390625 l 1
 368.25 -219.55859375 l 1
 368.25 -112.380859375 l 1
 368.25 -10.701171875 l 1
 368.76953125 38.0234375 l 1
 384.3203125 55.794921875 l 1
 419.865234375 53.57421875 l 1
 468.73828125 51.3515625 l 1
 510.947265625 53.57421875 l 1
 559.8203125 66.90234375 l 1
 590.919921875 95.783203125 l 1
 615.357421875 142.43359375 l 1
 635.3515625 169.091796875 l 1
 642.015625 233.515625 l 1
 628.685546875 304.603515625 l 1
 617.578125 349.033203125 l 1
 599.806640625 386.798828125 l 1
 570.927734375 422.34375 l 1
 537.60546875 460.109375 l 1
 484.2890625 504.5390625 l 1
 446.5234375 511.203125 l 1
 415.421875 535.640625 l 1
 410.978515625 575.626953125 l 1
 410.978515625 624.5 l 1
 422.0859375 677.81640625 l 1
 435.416015625 775.5625 l 1
 430.97265625 833.322265625 l 1
 410.978515625 875.53125 l 1
 382.099609375 884.41796875 l 1x40
263.8203125 448.23828125 m 1
 263.8203125 165.1796875 l 1
 197.865234375 189.9140625 l 1
 137.40625 217.39453125 l 1
 115.421875 261.365234375 l 1
 126.4140625 330.068359375 l 1
 167.63671875 398.771484375 l 1
 214.35546875 423.505859375 l 1
 263.8203125 448.23828125 l 1
387.48828125 401.51953125 m 1
 431.45703125 401.51953125 l 1
 491.916015625 365.794921875 l 1
 530.390625 330.068359375 l 1
 546.87890625 269.609375 l 1
 546.87890625 206.40234375 l 1
 500.16015625 143.1953125 l 1
 447.947265625 126.70703125 l 1
 390.236328125 129.455078125 l 1
 357.2578125 129.455078125 l 1
 357.2578125 231.134765625 l 1
 387.48828125 401.51953125 l 1
EndSplineSet
EndChar

StartChar: Theta
Encoding: 63 920 63
Width: 302
VWidth: 824
GlyphClass: 1
Flags: W
LayerCount: 2
Fore
SplineSet
196.4921875 669.005859375 m 1
 122.0625 657.09765625 l 1
 71.451171875 639.234375 l 1
 35.7265625 570.759765625 l 1
 29.771484375 493.353515625 l 1
 26.794921875 433.810546875 l 1
 23.81640625 371.291015625 l 1
 14.88671875 290.908203125 l 1
 14.88671875 219.455078125 l 1
 29.771484375 142.05078125 l 1
 56.56640625 61.66796875 l 1
 92.291015625 -15.73828125 l 1
 145.880859375 -30.625 l 1
 202.4453125 -0.853515625 l 1
 226.263671875 52.736328125 l 1
 276.875 148.00390625 l 1
 279.8515625 225.41015625 l 1
 276.875 323.65625 l 1
 276.875 412.970703125 l 1
 264.966796875 499.30859375 l 1
 241.1484375 576.712890625 l 1
 226.263671875 630.302734375 l 1
 196.4921875 669.005859375 l 1
151.833984375 505.26171875 m 1
 163.744140625 481.4453125 l 1
 172.673828125 421.90234375 l 1
 178.62890625 368.3125 l 1
 169.697265625 320.6796875 l 1
 122.0625 323.65625 l 1
 116.109375 359.3828125 l 1
 122.0625 407.015625 l 1
 122.0625 460.60546875 l 1
 136.94921875 493.353515625 l 1
 151.833984375 505.26171875 l 1
122.0625 216.478515625 m 1
 154.8125 201.59375 l 1
 163.744140625 183.73046875 l 1
 148.857421875 142.05078125 l 1
 128.017578125 124.1875 l 1
 110.154296875 124.1875 l 1
 110.154296875 159.912109375 l 1
 122.0625 216.478515625 l 1
EndSplineSet
EndChar

StartChar: period
Encoding: 65 46 65
Width: 450
VWidth: 824
GlyphClass: 1
Flags: W
LayerCount: 2
Fore
SplineSet
173.526367188 177.841796875 m 1
 144.538085938 168.783203125 l 1
 130.950195312 154.2890625 l 1
 122.797851562 132.548828125 l 1
 130.045898438 98.125 l 1
 159.032226562 71.85546875 l 1
 197.985351562 52.83203125 l 1
 237.842773438 59.173828125 l 1
 274.983398438 72.76171875 l 1
 299.440429688 96.314453125 l 1
 312.122070312 122.583984375 l 1
 311.215820312 145.23046875 l 1
 298.534179688 157.912109375 l 1
 278.606445312 157.005859375 l 1
 253.241210938 155.1953125 l 1
 234.219726562 158.818359375 l 1
 223.348632812 171.5 l 1
 205.231445312 176.935546875 l 1
 173.526367188 177.841796875 l 1
EndSplineSet
EndChar

StartChar: comma
Encoding: 66 44 66
Width: 450
VWidth: 824
GlyphClass: 1
Flags: W
LayerCount: 2
Fore
SplineSet
207.33984375 126.142578125 m 1
 165.873046875 123.55078125 l 1
 119.220703125 115.775390625 l 1
 126.99609375 84.673828125 l 1
 119.220703125 61.349609375 l 1
 103.669921875 43.20703125 l 1
 88.119140625 30.248046875 l 1
 62.203125 25.064453125 l 1
 49.244140625 9.513671875 l 1
 49.244140625 -8.62890625 l 1
 69.9765625 -26.771484375 l 1
 85.52734375 -34.546875 l 1
 137.36328125 -39.73046875 l 1
 171.056640625 -26.771484375 l 1
 215.115234375 -3.4453125 l 1
 230.666015625 14.697265625 l 1
 233.2578125 58.7578125 l 1
 228.07421875 105.408203125 l 1
 207.33984375 126.142578125 l 1
EndSplineSet
EndChar

StartChar: "+4CQDvwO5"
Encoding: 67 -1 67
Width: 846
VWidth: 824
GlyphClass: 1
Flags: MW
HStem: 492.863 53.5879
VStem: 866.598 88.2637
LayerCount: 2
Fore
SplineSet
78.529296875 559.060546875 m 1
 -3.4296875 546.451171875 l 1
 -19.19140625 527.537109375 l 1
 -0.27734375 492.86328125 l 1
 47.0078125 483.40625 l 1
 94.291015625 489.7109375 l 1
 166.79296875 455.03515625 l 1
 245.599609375 407.751953125 l 1
 305.494140625 363.619140625 l 1
 333.86328125 341.552734375 l 1
 280.275390625 278.5078125 l 1
 185.70703125 168.177734375 l 1
 128.966796875 98.828125 l 1
 72.224609375 42.087890625 l 1
 34.3984375 -2.044921875 l 1
 21.7890625 -33.568359375 l 1
 47.0078125 -71.39453125 l 1
 87.986328125 -84.00390625 l 1
 135.271484375 -77.69921875 l 1
 188.859375 -49.328125 l 1
 210.92578125 -14.654296875 l 1
 214.078125 29.478515625 l 1
 214.078125 61 l 1
 258.208984375 127.19921875 l 1
 371.69140625 272.203125 l 1
 400.0625 294.26953125 l 1
 453.650390625 272.203125 l 1
 450.498046875 246.984375 l 1
 403.21484375 183.939453125 l 1
 362.234375 142.9609375 l 1
 359.08203125 48.392578125 l 1
 387.453125 -5.197265625 l 1
 444.193359375 -24.111328125 l 1
 516.6953125 -24.111328125 l 1
 573.4375 1.107421875 l 1
 617.568359375 54.6953125 l 1
 623.873046875 101.98046875 l 1
 623.873046875 161.873046875 l 1
 598.654296875 193.396484375 l 1
 595.501953125 228.072265625 l 1
 620.720703125 256.44140625 l 1
 683.765625 284.8125 l 1
 727.8984375 294.26953125 l 1
 772.029296875 256.44140625 l 1
 803.552734375 190.244140625 l 1
 822.466796875 117.7421875 l 1
 828.771484375 70.45703125 l 1
 838.228515625 23.173828125 l 1
 853.98828125 -30.416015625 l 1
 853.98828125 -124.982421875 l 1
 866.59765625 -200.638671875 l 1
 866.59765625 -273.140625 l 1
 863.4453125 -389.775390625 l 1
 863.4453125 -446.515625 l 1
 857.140625 -547.388671875 l 1
 857.140625 -613.5859375 l 1
 857.140625 -686.087890625 l 1
 891.81640625 -686.087890625 l 1
 945.404296875 -654.56640625 l 1
 1039.97265625 -556.845703125 l 1
 1087.2578125 -509.560546875 l 1
 1118.78125 -443.36328125 l 1
 1106.171875 -405.53515625 l 1
 1074.6484375 -386.623046875 l 1
 1043.125 -414.9921875 l 1
 986.384765625 -462.27734375 l 1
 976.927734375 -487.494140625 l 1
 948.556640625 -503.255859375 l 1
 954.861328125 -430.75390625 l 1
 954.861328125 -260.53125 l 1
 951.708984375 -165.962890625 l 1
 945.404296875 -55.6328125 l 1
 920.1875 54.6953125 l 1
 891.81640625 152.416015625 l 1
 844.533203125 316.3359375 l 1
 819.314453125 366.771484375 l 1
 784.638671875 391.990234375 l 1
 712.13671875 404.599609375 l 1
 639.634765625 366.771484375 l 1
 582.89453125 344.705078125 l 1
 538.76171875 303.7265625 l 1
 491.478515625 328.943359375 l 1
 396.91015625 401.447265625 l 1
 280.275390625 480.25390625 l 1
 201.46875 530.689453125 l 1
 138.421875 559.060546875 l 1
 78.529296875 559.060546875 l 1
513.54296875 158.720703125 m 1
 538.76171875 136.65625 l 1
 538.76171875 98.828125 l 1
 523 61 l 1
 482.021484375 38.935546875 l 1
 444.193359375 54.6953125 l 1
 444.193359375 86.21875 l 1
 450.498046875 114.58984375 l 1
 482.021484375 155.568359375 l 1
 513.54296875 158.720703125 l 1
EndSplineSet
Ligature2: "msbarocci102fin1-<1,2> Common Ligatures lookup 0 subtable" uniE024 omicron iota
EndChar

StartChar: "+4CEDsQAA"
Encoding: 68 -1 68
Width: 1324
VWidth: 824
GlyphClass: 1
Flags: W
LayerCount: 2
Fore
SplineSet
35.7265625 925.041015625 m 1
 10.20703125 919.9375 l 1
 -22.966796875 899.521484375 l 1
 -45.93359375 853.587890625 l 1
 -43.380859375 805.103515625 l 1
 -28.0703125 774.482421875 l 1
 0 736.205078125 l 1
 35.7265625 703.029296875 l 1
 84.2109375 651.994140625 l 1
 117.384765625 611.1640625 l 1
 163.318359375 562.6796875 l 1
 201.595703125 524.400390625 l 1
 224.5625 496.330078125 l 1
 255.18359375 460.60546875 l 1
 267.943359375 429.982421875 l 1
 280.703125 389.154296875 l 1
 280.703125 366.1875 l 1
 280.703125 348.32421875 l 1
 257.736328125 340.66796875 l 1
 214.35546875 340.66796875 l 1
 168.421875 333.013671875 l 1
 132.6953125 297.287109375 l 1
 99.521484375 259.009765625 l 1
 86.763671875 215.62890625 l 1
 86.763671875 172.248046875 l 1
 96.970703125 123.76171875 l 1
 127.591796875 80.380859375 l 1
 170.97265625 47.20703125 l 1
 214.35546875 47.20703125 l 1
 260.287109375 62.517578125 l 1
 321.53125 98.244140625 l 1
 364.9140625 136.521484375 l 1
 377.671875 174.798828125 l 1
 392.984375 233.4921875 l 1
 392.984375 281.9765625 l 1
 392.984375 353.427734375 l 1
 370.017578125 399.361328125 l 1
 329.1875 478.46875 l 1
 288.357421875 529.505859375 l 1
 237.322265625 583.09375 l 1
 191.388671875 636.681640625 l 1
 158.21484375 664.751953125 l 1
 107.177734375 723.4453125 l 1
 66.34765625 771.9296875 l 1
 66.34765625 794.896484375 l 1
 74.00390625 815.310546875 l 1
 109.728515625 825.51953125 l 1
 150.55859375 828.0703125 l 1
 188.8359375 815.310546875 l 1
 224.5625 774.482421875 l 1
 280.703125 703.029296875 l 1
 321.53125 662.201171875 l 1
 372.568359375 598.404296875 l 1
 385.8203125 585.849609375 l 1
 391.271484375 562.2265625 l 1
 403.310546875 514.0703125 l 1
 430.3984375 435.81640625 l 1
 463.505859375 318.435546875 l 1
 499.625 237.169921875 l 1
 538.751953125 146.876953125 l 1
 586.908203125 89.69140625 l 1
 653.123046875 44.544921875 l 1
 737.396484375 8.427734375 l 1
 818.662109375 -6.62109375 l 1
 914.974609375 38.525390625 l 1
 957.111328125 104.740234375 l 1
 984.19921875 186.00390625 l 1
 981.189453125 252.21875 l 1
 975.31640625 258.826171875 l 1
 979.203125 259.1796875 l 1
 983.107421875 257.71484375 l 1
 987.01953125 246.466796875 l 1
 1025.43945312 216.28125 l 1
 1113.25390625 197.0703125 l 1
 1187.34765625 197.0703125 l 1
 1250.46484375 221.76953125 l 1
 1332.79101562 262.931640625 l 1
 1384.93164062 320.560546875 l 1
 1423.34960938 383.677734375 l 1
 1439.81445312 433.07421875 l 1
 1420.60546875 479.724609375 l 1
 1379.44335938 504.423828125 l 1
 1341.0234375 487.95703125 l 1
 1321.81445312 460.515625 l 1
 1294.37109375 397.3984375 l 1
 1266.9296875 345.2578125 l 1
 1240.12890625 318.45703125 l 1
 1237.52734375 319.638671875 l 1
 1177.54492188 306.0078125 l 1
 1126.97460938 312.328125 l 1
 1080.32226562 334.28125 l 1
 1083.06640625 367.212890625 l 1
 1090.91796875 404.892578125 l 1
 1091.87695312 407.580078125 l 1
 1091.70507812 408.671875 l 1
 1096.7890625 433.07421875 l 1
 1121.48632812 479.724609375 l 1
 1115.99804688 526.376953125 l 1
 1096.7890625 542.841796875 l 1
 1055.625 537.353515625 l 1
 1030.92773438 512.65625 l 1
 1018.76367188 501.70703125 l 1
 1000.74023438 460.515625 l 1
 973.298828125 435.818359375 l 1
 948.6015625 430.330078125 l 1
 933.046875 441.439453125 l 1
 932.484375 440.556640625 l 1
 931.03515625 442.876953125 l 1
 929.390625 444.05078125 l 1
 929.484375 445.357421875 l 1
 918.744140625 462.54296875 l 1
 891.26171875 479.03125 l 1
 841.796875 484.52734375 l 1
 775.83984375 476.283203125 l 1
 740.115234375 451.548828125 l 1
 720.87890625 407.580078125 l 1
 712.6328125 360.861328125 l 1
 720.87890625 294.90625 l 1
 742.86328125 256.431640625 l 1
 781.337890625 215.208984375 l 1
 825.306640625 212.4609375 l 1
 874.1640625 224.67578125 l 1
 872.837890625 210.08203125 l 1
 866.818359375 149.88671875 l 1
 827.69140625 104.740234375 l 1
 770.50390625 77.65234375 l 1
 674.19140625 128.818359375 l 1
 613.99609375 204.0625 l 1
 538.751953125 345.5234375 l 1
 487.5859375 523.099609375 l 1
 452.59375 606.5390625 l 1
 456.779296875 613.71484375 l 1
 431.26171875 646.890625 l 1
 387.880859375 692.822265625 l 1
 362.361328125 733.65234375 l 1
 341.947265625 769.37890625 l 1
 308.7734375 825.51953125 l 1
 280.703125 866.34765625 l 1
 242.42578125 891.8671875 l 1
 186.28515625 912.28125 l 1
 127.591796875 922.48828125 l 1
 68.900390625 925.041015625 l 1
 35.7265625 925.041015625 l 1
863.78125 402.083984375 m 1
 891.26171875 399.333984375 l 1
 921.4921875 380.09765625 l 1
 921.4921875 341.625 l 1
 899.5078125 322.38671875 l 1
 872.025390625 294.90625 l 1
 814.314453125 297.654296875 l 1
 800.57421875 322.38671875 l 1
 797.826171875 349.869140625 l 1
 825.306640625 388.341796875 l 1
 850.041015625 396.5859375 l 1
 863.78125 402.083984375 l 1
250.080078125 241.146484375 m 1
 290.91015625 241.146484375 l 1
 303.669921875 220.732421875 l 1
 288.357421875 192.662109375 l 1
 257.736328125 167.142578125 l 1
 219.458984375 141.625 l 1
 191.388671875 141.625 l 1
 183.732421875 167.142578125 l 1
 186.28515625 187.55859375 l 1
 204.1484375 220.732421875 l 1
 250.080078125 241.146484375 l 1
EndSplineSet
Ligature2: "msbarocci102fin1-<1,2> Common Ligatures lookup 0 subtable" uniE021 alpha
EndChar

StartChar: "+4DEDsQAA"
Encoding: 69 -1 69
Width: 1500
VWidth: 824
GlyphClass: 1
Flags: W
LayerCount: 2
Fore
SplineSet
549.0546875 914.833984375 m 1
 355.26953125 864.59375 l 1
 233.2578125 796.412109375 l 1
 122.01171875 652.8671875 l 1
 50.240234375 494.970703125 l 1
 28.708984375 362.19140625 l 1
 14.353515625 258.123046875 l 1
 28.708984375 182.763671875 l 1
 61.005859375 82.283203125 l 1
 139.955078125 17.6875 l 1
 283.498046875 46.396484375 l 1
 358.859375 150.46484375 l 1
 362.447265625 240.1796875 l 1
 340.916015625 319.12890625 l 1
 272.732421875 369.369140625 l 1
 226.08203125 394.490234375 l 1
 261.966796875 430.375 l 1
 337.328125 430.375 l 1
 427.04296875 322.716796875 l 1
 509.580078125 247.357421875 l 1
 610.060546875 93.048828125 l 1
 689.009765625 -14.609375 l 1
 742.837890625 -46.90625 l 1
 828.96484375 -79.205078125 l 1
 947.38671875 -61.26171875 l 1
 1026.3359375 -14.609375 l 1
 1087.34179688 49.984375 l 1
 1087.34179688 125.345703125 l 1
 1094.51953125 193.529296875 l 1
 1094.51953125 240.12890625 l 1
 1131.34375 214.03125 l 1
 1228.68554688 194.822265625 l 1
 1310.81835938 194.822265625 l 1
 1380.78320312 219.51953125 l 1
 1472.04296875 260.673828125 l 1
 1529.83984375 318.294921875 l 1
 1572.42578125 381.40234375 l 1
 1590.67773438 430.791015625 l 1
 1569.38476562 477.43359375 l 1
 1523.75585938 502.12890625 l 1
 1481.16796875 485.666015625 l 1
 1459.875 458.228515625 l 1
 1429.453125 395.12109375 l 1
 1399.03515625 342.98828125 l 1
 1369.32617188 316.19140625 l 1
 1366.44335938 317.373046875 l 1
 1299.953125 303.744140625 l 1
 1243.89648438 310.0625 l 1
 1192.18164062 332.013671875 l 1
 1195.22265625 364.939453125 l 1
 1203.92773438 402.61328125 l 1
 1204.99023438 405.30078125 l 1
 1204.79882812 406.392578125 l 1
 1210.43554688 430.791015625 l 1
 1237.8125 477.43359375 l 1
 1231.72851562 524.080078125 l 1
 1210.43554688 540.541015625 l 1
 1164.8046875 535.0546875 l 1
 1137.42773438 510.361328125 l 1
 1123.94335938 499.4140625 l 1
 1103.96484375 458.228515625 l 1
 1073.546875 433.53515625 l 1
 1046.16992188 428.046875 l 1
 1028.92773438 439.154296875 l 1
 1028.3046875 438.271484375 l 1
 1026.69726562 440.591796875 l 1
 1024.875 441.765625 l 1
 1024.97851562 443.072265625 l 1
 1013.07226562 460.255859375 l 1
 982.609375 476.740234375 l 1
 927.77734375 482.236328125 l 1
 854.6640625 473.994140625 l 1
 815.064453125 449.263671875 l 1
 793.740234375 405.30078125 l 1
 784.599609375 358.58984375 l 1
 793.740234375 292.64453125 l 1
 818.109375 254.17578125 l 1
 860.759765625 212.958984375 l 1
 909.498046875 210.2109375 l 1
 970.423828125 223.951171875 l 1
 992.408203125 240.17578125 l 1
 997.626953125 182.763671875 l 1
 994.0390625 128.93359375 l 1
 990.451171875 85.87109375 l 1
 954.564453125 39.21875 l 1
 904.32421875 10.509765625 l 1
 850.49609375 6.921875 l 1
 793.078125 21.275390625 l 1
 750.015625 75.10546875 l 1
 674.654296875 157.642578125 l 1
 645.9453125 200.705078125 l 1
 588.529296875 301.185546875 l 1
 520.345703125 376.546875 l 1
 459.33984375 448.318359375 l 1
 405.509765625 498.55859375 l 1
 355.26953125 527.267578125 l 1
 279.91015625 527.267578125 l 1
 186.607421875 530.85546875 l 1
 157.8984375 527.267578125 l 1
 211.7265625 642.1015625 l 1
 305.029296875 742.58203125 l 1
 434.21875 817.943359375 l 1
 559.8203125 853.828125 l 1
 642.357421875 882.537109375 l 1
 549.0546875 914.833984375 l 1
952.146484375 399.8046875 m 1
 982.609375 397.056640625 l 1
 1016.11914062 377.822265625 l 1
 1016.11914062 339.35546875 l 1
 991.75 320.12109375 l 1
 961.28515625 292.64453125 l 1
 897.3125 295.392578125 l 1
 882.08203125 320.12109375 l 1
 879.03515625 347.599609375 l 1
 909.498046875 386.06640625 l 1
 936.916015625 394.30859375 l 1
 952.146484375 399.8046875 l 1
118.423828125 337.072265625 m 1
 143.54296875 337.072265625 l 1
 208.138671875 315.541015625 l 1
 247.61328125 290.419921875 l 1
 272.732421875 258.123046875 l 1
 276.322265625 204.294921875 l 1
 258.37890625 150.46484375 l 1
 222.4921875 110.990234375 l 1
 183.017578125 103.814453125 l 1
 136.3671875 128.93359375 l 1
 114.833984375 186.3515625 l 1
 104.068359375 233.00390625 l 1
 104.068359375 279.654296875 l 1
 107.658203125 315.541015625 l 1
 118.423828125 337.072265625 l 1
EndSplineSet
Ligature2: "msbarocci102fin1-<1,2> Common Ligatures lookup 0 subtable" uniE031 alpha
EndChar

StartChar: "+4DADyQAA"
Encoding: 70 -1 70
Width: 1046
VWidth: 824
GlyphClass: 1
Flags: W
LayerCount: 2
Fore
SplineSet
167.9453125 302.3828125 m 1
 96.4140625 299.271484375 l 1
 37.322265625 252.62109375 l 1
 15.55078125 205.96875 l 1
 18.66015625 134.435546875 l 1
 40.431640625 100.224609375 l 1
 83.97265625 112.666015625 l 1
 83.97265625 66.013671875 l 1
 65.3125 3.8125 l 1
 31.1015625 -114.373046875 l 1
 34.2109375 -195.234375 l 1
 40.431640625 -248.107421875 l 1
 77.751953125 -297.869140625 l 1
 124.404296875 -338.30078125 l 1
 223.927734375 -356.9609375 l 1
 307.900390625 -325.859375 l 1
 373.212890625 -291.6484375 l 1
 435.416015625 -185.904296875 l 1
 466.515625 -98.822265625 l 1
 478.95703125 -2.408203125 l 1
 503.837890625 31.802734375 l 1
 538.048828125 38.0234375 l 1
 606.470703125 10.03125 l 1
 684.224609375 10.03125 l 1
 740.20703125 28.693359375 l 1
 802.408203125 22.47265625 l 1
 883.271484375 0.701171875 l 1
 936.142578125 -8.62890625 l 1
 992.125 16.251953125 l 1
 1035.66601562 53.57421875 l 1
 1044.99609375 106.4453125 l 1
 1044.99609375 162.427734375 l 1
 1017.00585938 230.849609375 l 1
 985.904296875 274.390625 l 1
 936.142578125 293.052734375 l 1
 864.611328125 302.3828125 l 1
 814.849609375 302.3828125 l 1
 752.646484375 258.841796875 l 1
 712.21484375 258.841796875 l 1
 684.224609375 280.611328125 l 1
 612.69140625 283.72265625 l 1
 519.388671875 271.28125 l 1
 460.296875 261.951171875 l 1
 422.974609375 212.189453125 l 1
 407.423828125 125.10546875 l 1
 382.54296875 16.251953125 l 1
 354.552734375 -80.16015625 l 1
 339.001953125 -145.47265625 l 1
 279.91015625 -232.556640625 l 1
 214.59765625 -276.09765625 l 1
 180.38671875 -276.09765625 l 1
 146.17578125 -241.88671875 l 1
 136.845703125 -185.904296875 l 1
 143.064453125 -98.822265625 l 1
 164.8359375 -11.73828125 l 1
 189.716796875 62.904296875 l 1
 214.59765625 146.876953125 l 1
 223.927734375 212.189453125 l 1
 208.376953125 271.28125 l 1
 167.9453125 302.3828125 l 1
898.822265625 209.080078125 m 1
 936.142578125 184.197265625 l 1
 954.8046875 153.09765625 l 1
 954.8046875 118.88671875 l 1
 951.693359375 94.005859375 l 1
 926.8125 87.78515625 l 1
 901.931640625 90.89453125 l 1
 858.390625 97.115234375 l 1
 830.3984375 97.115234375 l 1
 805.517578125 103.3359375 l 1
 805.517578125 140.65625 l 1
 836.619140625 181.087890625 l 1
 864.611328125 202.859375 l 1
 898.822265625 209.080078125 l 1
659.34375 190.41796875 m 1
 690.4453125 181.087890625 l 1
 699.775390625 153.09765625 l 1
 699.775390625 125.10546875 l 1
 678.00390625 103.3359375 l 1
 640.68359375 94.005859375 l 1
 609.58203125 97.115234375 l 1
 575.37109375 115.775390625 l 1
 575.37109375 140.65625 l 1
 606.470703125 171.7578125 l 1
 659.34375 190.41796875 l 1
EndSplineSet
LCarets2: 1 0
Ligature2: "msbarocci102fin1-<1,2> Common Ligatures lookup 0 subtable" uniE030 uni03A9
EndChar

StartChar: Iota
Encoding: 71 921 71
Width: 336
VWidth: 824
GlyphClass: 1
Flags: W
LayerCount: 2
Fore
SplineSet
247.61328125 706.697265625 m 1
 211.7265625 674.3984375 l 1
 193.783203125 627.748046875 l 1
 175.841796875 563.15234375 l 1
 129.189453125 390.900390625 l 1
 89.71484375 268.888671875 l 1
 46.65234375 143.2890625 l 1
 17.943359375 64.33984375 l 1
 17.943359375 32.04296875 l 1
 43.0625 -0.255859375 l 1
 96.892578125 -21.787109375 l 1
 154.30859375 -18.197265625 l 1
 193.783203125 -0.255859375 l 1
 208.138671875 24.865234375 l 1
 200.9609375 60.75 l 1
 154.30859375 78.693359375 l 1
 143.54296875 71.515625 l 1
 157.8984375 132.5234375 l 1
 200.9609375 243.76953125 l 1
 244.0234375 351.42578125 l 1
 272.732421875 451.90625 l 1
 276.322265625 498.55859375 l 1
 308.619140625 591.861328125 l 1
 319.384765625 642.1015625 l 1
 308.619140625 695.931640625 l 1
 247.61328125 706.697265625 l 1
EndSplineSet
EndChar

